<?xml version="1.0" encoding="utf-8"?>
<!-- Generator: Adobe Illustrator 21.0.0, SVG Export Plug-In . SVG Version: 6.00 Build 0)  -->
<svg version="1.1" id="Layer_1" xmlns="http://www.w3.org/2000/svg" xmlns:xlink="http://www.w3.org/1999/xlink" x="0px" y="0px"
	 viewBox="0 0 1920 1252" style="enable-background:new 0 0 1920 1252;" xml:space="preserve">
<style type="text/css">
	.st0{fill:#F7F7F7;}
	.st1{fill:none;}
</style>
<g id="Layer_3">
	<path class="st0" d="M610.6,947.3L610.6,947.3C465.5,1098,223.4,1102.6,72.7,957.4l-553.5-533.2C-631.5,279-636.1,37-490.9-113.7
		l0,0C-345.7-264.4-103.6-269,47-123.8l553.5,533.2C751.3,554.6,755.8,796.6,610.6,947.3z"/>
	<path class="st0" d="M678.3,520.2L678.3,520.2c89.3,189.2,7.7,417.1-181.6,506.4l-695,328.1c-189.3,89.3-417.1,7.7-506.4-181.6l0,0
		c-89.3-189.3-7.6-417.2,181.6-506.4l695-328.1C361.2,249.3,589,331,678.3,520.2z"/>
</g>
<g id="Layer_2">
	<path class="st1" d="z"/>
</g>
<image style="overflow:visible;" width="1080" height="637" xlink:href="imhead.png"  transform="matrix(0.863 0 0 0.863 -113 358.6463)">
</image>
</svg>
