<?xml version="1.0" encoding="utf-8"?>
<!-- Generator: Adobe Illustrator 21.0.0, SVG Export Plug-In . SVG Version: 6.00 Build 0)  -->
<svg version="1.1" id="Layer_1" xmlns="http://www.w3.org/2000/svg" xmlns:xlink="http://www.w3.org/1999/xlink" x="0px" y="0px"
	 viewBox="0 0 250 100" style="enable-background:new 0 0 250 100;" xml:space="preserve">
<style type="text/css">
	.st0{fill:#757575;}
	.st1{fill:#4486F3;}
	.st2{fill:#FFFFFF;}
	.st3{fill:#4382DD;}
	.st4{fill:url(#SVGID_1_);}
</style>
<g>
	<path class="st0" d="M45.1,29.4V46h5.1V29.4h4V46h4.1v4H35.8c-0.2,1.3-0.6,2.5-1.2,3.5c-0.7,1-1.5,1.8-2.4,2.5
		c-1,0.7-2,1.2-3.2,1.5c-1.2,0.3-2.4,0.5-3.6,0.5c-1.3,0-2.6-0.2-3.9-0.6c-1.3-0.4-2.4-1-3.4-1.7s-1.8-1.7-2.4-2.9s-0.9-2.5-0.9-4.1
		V33.2h4v15.5c0,0.9,0.2,1.6,0.6,2.3s0.9,1.2,1.5,1.6c0.6,0.4,1.3,0.8,2.1,1c0.8,0.2,1.6,0.3,2.4,0.3c0.8,0,1.6-0.1,2.4-0.3
		c0.8-0.2,1.5-0.5,2.1-1c0.6-0.4,1.1-1,1.5-1.6s0.6-1.4,0.6-2.3V29.4h4V46h5.1V29.4H45.1z"/>
	<path class="st0" d="M64.7,21.4V46h4.1v4H56.6v-4h4.1V21.4H64.7z"/>
	<path class="st0" d="M77.9,29.4v14c0,0.9-0.2,1.8-0.5,2.6c-0.3,0.8-0.8,1.5-1.4,2.1c-0.6,0.6-1.3,1.1-2.1,1.4S72.2,50,71.3,50H67
		v-4h4.3c0.4,0,0.7-0.1,1-0.2c0.3-0.1,0.6-0.3,0.8-0.6c0.2-0.2,0.4-0.5,0.6-0.8c0.1-0.3,0.2-0.7,0.2-1v-14H77.9z M73.8,55.9
		c0-0.3,0.1-0.5,0.2-0.8c0.1-0.2,0.3-0.5,0.4-0.6c0.2-0.2,0.4-0.3,0.7-0.4c0.2-0.1,0.5-0.2,0.8-0.2c0.6,0,1.1,0.2,1.5,0.6
		s0.6,0.9,0.6,1.4c0,0.3-0.1,0.5-0.2,0.8c-0.1,0.2-0.3,0.5-0.4,0.7c-0.2,0.2-0.4,0.3-0.7,0.4c-0.2,0.1-0.5,0.2-0.8,0.2
		s-0.6-0.1-0.8-0.2c-0.2-0.1-0.5-0.3-0.7-0.4c-0.2-0.2-0.3-0.4-0.4-0.7C73.8,56.4,73.8,56.2,73.8,55.9z"/>
	<path class="st0" d="M96.8,29.4V46h4.1v4h-4.3c-0.1,0.6-0.3,1.2-0.6,1.9c-0.3,0.7-0.7,1.4-1.3,2.2c-0.6,0.7-1.3,1.5-2.3,2.2
		c-0.9,0.7-2.1,1.4-3.5,1.9l-1.5-3.7c0.7-0.3,1.3-0.6,1.9-1c0.5-0.3,1-0.7,1.4-1.1c0.4-0.4,0.7-0.7,1-1.1c0.3-0.4,0.5-0.7,0.6-1
		c0.4-0.8,0.6-1.5,0.6-2.3V29.4H96.8z M92.7,23.5c0-0.3,0.1-0.5,0.2-0.8s0.3-0.5,0.4-0.7s0.4-0.3,0.6-0.4c0.2-0.1,0.5-0.2,0.8-0.2
		c0.3,0,0.5,0.1,0.8,0.2c0.2,0.1,0.5,0.3,0.7,0.4s0.3,0.4,0.4,0.7s0.2,0.5,0.2,0.8c0,0.3-0.1,0.5-0.2,0.8s-0.3,0.5-0.4,0.6
		s-0.4,0.3-0.7,0.4s-0.5,0.2-0.8,0.2c-0.6,0-1-0.2-1.4-0.6C92.9,24.6,92.7,24.1,92.7,23.5z"/>
	<path class="st0" d="M103,31.4c0.4-0.2,0.9-0.4,1.5-0.6c0.6-0.2,1.3-0.5,2.1-0.7c0.8-0.2,1.5-0.4,2.4-0.5c0.8-0.1,1.6-0.2,2.4-0.2
		c1.2,0,2.3,0.1,3.4,0.4c1.1,0.3,2.1,0.8,3,1.5c0.9,0.7,1.6,1.7,2.1,2.9c0.5,1.2,0.8,2.8,0.8,4.7v7h4.1v4H99.1v-4h17.5v-7
		c0-1.1-0.2-2-0.5-2.7c-0.3-0.7-0.7-1.3-1.2-1.7c-0.5-0.4-1.1-0.7-1.7-0.9c-0.6-0.2-1.3-0.3-1.9-0.3c-0.6,0-1.3,0.1-1.9,0.2
		s-1.3,0.3-1.9,0.4c-0.6,0.2-1.1,0.3-1.6,0.5c-0.5,0.2-0.9,0.4-1.2,0.5L103,31.4z M109.4,55.9c0-0.3,0.1-0.5,0.2-0.8
		s0.3-0.5,0.4-0.6s0.4-0.3,0.7-0.4c0.2-0.1,0.5-0.2,0.8-0.2c0.6,0,1,0.2,1.4,0.6c0.4,0.4,0.6,0.9,0.6,1.4c0,0.3-0.1,0.5-0.2,0.8
		c-0.1,0.2-0.3,0.5-0.4,0.7c-0.2,0.2-0.4,0.3-0.6,0.4c-0.2,0.1-0.5,0.2-0.8,0.2s-0.5-0.1-0.8-0.2c-0.2-0.1-0.5-0.3-0.7-0.4
		c-0.2-0.2-0.3-0.4-0.4-0.7C109.4,56.4,109.4,56.2,109.4,55.9z"/>
	<path class="st0" d="M133.9,29.4V46h4.1v4h-15v-4h6.9V29.4H133.9z M128.2,23.5c0-0.3,0.1-0.5,0.2-0.8c0.1-0.2,0.3-0.5,0.4-0.7
		c0.2-0.2,0.4-0.3,0.7-0.4c0.2-0.1,0.5-0.2,0.8-0.2s0.5,0.1,0.8,0.2c0.2,0.1,0.5,0.3,0.6,0.4c0.2,0.2,0.3,0.4,0.4,0.7
		c0.1,0.2,0.2,0.5,0.2,0.8c0,0.6-0.2,1-0.6,1.4c-0.4,0.4-0.9,0.6-1.4,0.6c-0.3,0-0.5-0.1-0.8-0.2s-0.5-0.3-0.7-0.4
		c-0.2-0.2-0.3-0.4-0.4-0.6C128.3,24.1,128.2,23.8,128.2,23.5z"/>
	<path class="st0" d="M136.2,46h4.4c-0.1-0.4-0.2-0.8-0.3-1.3s-0.1-0.9-0.1-1.3v-4.6c0-1.3,0.2-2.5,0.7-3.6s1.1-2.1,2-3
		s1.8-1.5,2.9-2c1.1-0.5,2.3-0.7,3.6-0.7c1.3,0,2.5,0.3,3.6,0.8c1.1,0.5,2.1,1.2,2.9,2.1c0.8,0.9,1.5,1.9,2,3
		c0.5,1.1,0.7,2.3,0.7,3.6v4.6c0,1.3-0.2,2.5-0.7,3.6c-0.5,1.1-1.1,2.1-2,3c-0.8,0.9-1.8,1.5-2.9,2c-1.1,0.5-2.3,0.8-3.6,0.8
		c-1.3,0-2.5-0.2-3.6-0.7c-1.1-0.5-2.1-1.2-2.9-2.1h-6.8V46z M149.6,33.5c-0.7,0-1.4,0.1-2,0.4c-0.6,0.3-1.2,0.7-1.6,1.1
		c-0.5,0.5-0.8,1-1.1,1.7c-0.3,0.7-0.4,1.3-0.4,2.1v4.6c0,0.8,0.1,1.5,0.4,2.1c0.3,0.7,0.6,1.2,1.1,1.7c0.5,0.5,1,0.9,1.6,1.2
		c0.6,0.3,1.3,0.4,2,0.4c0.7,0,1.4-0.1,2-0.4c0.6-0.3,1.2-0.7,1.7-1.2c0.5-0.5,0.8-1.1,1.1-1.7s0.4-1.3,0.4-2.1v-4.6
		c0-0.7-0.1-1.4-0.4-2.1c-0.3-0.6-0.6-1.2-1.1-1.7c-0.5-0.5-1-0.9-1.7-1.2S150.3,33.5,149.6,33.5z"/>
</g>
<g>
	<path class="st0" d="M19.6,69v5.7c0,0.5-0.1,0.9-0.3,1.2c-0.2,0.4-0.4,0.6-0.7,0.9c-0.3,0.2-0.6,0.4-1,0.5
		c-0.4,0.1-0.8,0.2-1.2,0.2s-0.8-0.1-1.2-0.2c-0.4-0.1-0.7-0.3-1-0.5c-0.3-0.2-0.5-0.5-0.7-0.9c-0.2-0.4-0.3-0.8-0.3-1.2v-4.6h1.2
		v4.6c0,0.3,0.1,0.5,0.2,0.7c0.1,0.2,0.3,0.4,0.4,0.5s0.4,0.2,0.6,0.3c0.2,0.1,0.5,0.1,0.7,0.1s0.5,0,0.7-0.1
		c0.2-0.1,0.4-0.2,0.6-0.3c0.2-0.1,0.3-0.3,0.4-0.5c0.1-0.2,0.2-0.4,0.2-0.7V69H19.6z M15.8,67.2c0-0.1,0-0.2,0-0.2
		c0-0.1,0.1-0.1,0.1-0.2c0.1-0.1,0.1-0.1,0.2-0.1c0.1,0,0.2,0,0.2,0s0.2,0,0.2,0c0.1,0,0.1,0.1,0.2,0.1c0.1,0.1,0.1,0.1,0.1,0.2
		c0,0.1,0,0.2,0,0.2s0,0.2,0,0.2c0,0.1-0.1,0.1-0.1,0.2c-0.1,0.1-0.1,0.1-0.2,0.1c-0.1,0-0.2,0-0.2,0c-0.2,0-0.3-0.1-0.4-0.2
		C15.9,67.5,15.8,67.3,15.8,67.2z"/>
	<path class="st0" d="M22.1,66.6v6.6c0,0.1,0,0.2,0.1,0.3c0,0.1,0.1,0.2,0.2,0.2c0.1,0.1,0.2,0.1,0.2,0.2c0.1,0,0.2,0.1,0.3,0.1h0.6
		v1.2h-0.6c-0.3,0-0.5-0.1-0.8-0.2c-0.2-0.1-0.5-0.2-0.6-0.4c-0.2-0.2-0.3-0.4-0.4-0.6c-0.1-0.2-0.2-0.5-0.2-0.8v-6.6H22.1z"/>
	<path class="st0" d="M22.9,73.9h1.3c0-0.1-0.1-0.2-0.1-0.4c0-0.1,0-0.3,0-0.4v-1.4c0-0.4,0.1-0.8,0.2-1.1c0.1-0.3,0.3-0.6,0.6-0.9
		c0.3-0.3,0.5-0.5,0.9-0.6c0.3-0.1,0.7-0.2,1.1-0.2c0.4,0,0.7,0.1,1.1,0.2c0.3,0.2,0.6,0.4,0.9,0.6c0.3,0.3,0.4,0.6,0.6,0.9
		c0.1,0.3,0.2,0.7,0.2,1.1v1.4c0,0.4-0.1,0.7-0.2,1.1c-0.1,0.3-0.3,0.6-0.6,0.9c-0.3,0.3-0.5,0.5-0.9,0.6c-0.3,0.2-0.7,0.2-1.1,0.2
		c-0.4,0-0.8-0.1-1.1-0.2s-0.6-0.4-0.9-0.6h-2V73.9z M26.9,70.2c-0.2,0-0.4,0-0.6,0.1c-0.2,0.1-0.4,0.2-0.5,0.3s-0.3,0.3-0.3,0.5
		c-0.1,0.2-0.1,0.4-0.1,0.6v1.4c0,0.2,0,0.4,0.1,0.6c0.1,0.2,0.2,0.4,0.3,0.5s0.3,0.3,0.5,0.3c0.2,0.1,0.4,0.1,0.6,0.1
		c0.2,0,0.4,0,0.6-0.1s0.4-0.2,0.5-0.3s0.3-0.3,0.3-0.5c0.1-0.2,0.1-0.4,0.1-0.6v-1.4c0-0.2,0-0.4-0.1-0.6s-0.2-0.4-0.3-0.5
		s-0.3-0.3-0.5-0.4C27.3,70.2,27.1,70.2,26.9,70.2z"/>
	<path class="st0" d="M32.4,64.4h-0.5h0c-0.1,0-0.2,0-0.3,0.1c-0.1,0.1-0.1,0.2-0.1,0.3c0,0.1,0,0.1,0,0.2c0,0.1,0,0.1,0.1,0.2
		c0,0,0,0.1,0.1,0.1c0,0,0.1,0,0.1,0h0.9v0.6h-2v-0.6H31c-0.1-0.2-0.1-0.3-0.1-0.5c0-0.1,0-0.2,0.1-0.4c0-0.1,0.1-0.2,0.2-0.3
		s0.2-0.2,0.3-0.2c0.1-0.1,0.3-0.1,0.5-0.1h0.5V64.4z M32.2,66.6v8.6H31v-8.6H32.2z"/>
	<path class="st0" d="M34.5,76.3h1.9c0.2,0,0.4,0,0.5-0.1c0.2-0.1,0.3-0.1,0.5-0.2s0.2-0.2,0.3-0.4s0.2-0.3,0.2-0.5h-2.4
		c-0.3,0-0.5-0.1-0.8-0.2c-0.2-0.1-0.4-0.2-0.6-0.4c-0.2-0.2-0.3-0.4-0.4-0.6s-0.2-0.5-0.2-0.8v-1.4c0-0.4,0.1-0.8,0.2-1.1
		s0.3-0.6,0.6-0.9s0.5-0.5,0.9-0.6C35.6,69,36,69,36.4,69c0.3,0,0.5,0,0.7,0.1c0.2,0.1,0.5,0.2,0.7,0.3c0.2,0.1,0.4,0.3,0.6,0.4
		s0.3,0.4,0.4,0.6c0.1,0.2,0.2,0.4,0.3,0.7c0.1,0.2,0.1,0.5,0.1,0.7v3c0,0.4-0.1,0.7-0.2,1.1c-0.1,0.3-0.3,0.6-0.6,0.9
		s-0.5,0.4-0.9,0.6c-0.3,0.1-0.7,0.2-1.1,0.2h-1.9V76.3z M37.9,73.9v-2.1c0-0.2,0-0.4-0.1-0.6c-0.1-0.2-0.2-0.4-0.3-0.5
		s-0.3-0.3-0.5-0.4c-0.2-0.1-0.4-0.1-0.6-0.1c-0.2,0-0.4,0-0.6,0.1c-0.2,0.1-0.4,0.2-0.5,0.4c-0.1,0.1-0.3,0.3-0.3,0.5
		c-0.1,0.2-0.1,0.4-0.1,0.6v1.4c0,0.1,0,0.2,0.1,0.3c0,0.1,0.1,0.2,0.2,0.2c0.1,0.1,0.1,0.1,0.2,0.2c0.1,0,0.2,0.1,0.3,0.1H37.9z"/>
	<path class="st0" d="M49.4,73.9v1.2h-2.4v-3.4c0-0.2,0-0.4-0.1-0.6s-0.2-0.4-0.3-0.5s-0.3-0.3-0.5-0.4c-0.2-0.1-0.4-0.1-0.6-0.1
		c-0.2,0-0.4,0-0.6,0.1s-0.4,0.2-0.5,0.4c-0.1,0.1-0.3,0.3-0.3,0.5c-0.1,0.2-0.1,0.4-0.1,0.6v1.4c0,0.1,0,0.2,0.1,0.3
		c0,0.1,0.1,0.2,0.2,0.2c0.1,0.1,0.1,0.1,0.2,0.2c0.1,0,0.2,0.1,0.3,0.1h1.3v1.2h-1.3c-0.3,0-0.5-0.1-0.8-0.2
		c-0.2-0.1-0.4-0.2-0.6-0.4c-0.2-0.2-0.3-0.4-0.4-0.6c-0.1-0.2-0.2-0.5-0.2-0.8v-1.4c0-0.4,0.1-0.8,0.2-1.1s0.3-0.6,0.6-0.9
		s0.5-0.5,0.9-0.6C44.6,69,45,69,45.4,69c0.4,0,0.7,0.1,1.1,0.2c0.3,0.2,0.6,0.4,0.9,0.6c0.3,0.3,0.5,0.6,0.6,0.9s0.2,0.7,0.2,1.1
		v2.1H49.4z M43.9,67.2c0-0.1,0-0.2,0-0.2c0-0.1,0.1-0.1,0.1-0.2c0.1-0.1,0.1-0.1,0.2-0.1c0.1,0,0.2,0,0.2,0c0.1,0,0.2,0,0.2,0
		c0.1,0,0.1,0.1,0.2,0.1c0.1,0.1,0.1,0.1,0.1,0.2c0,0.1,0,0.2,0,0.2s0,0.2,0,0.2s-0.1,0.1-0.1,0.2c-0.1,0.1-0.1,0.1-0.2,0.1
		c-0.1,0-0.2,0-0.2,0c-0.1,0-0.2,0-0.2,0c-0.1,0-0.1-0.1-0.2-0.1c-0.1-0.1-0.1-0.1-0.1-0.2S43.9,67.3,43.9,67.2z M45.7,67.2
		c0-0.1,0-0.2,0-0.2c0-0.1,0.1-0.1,0.1-0.2c0.1-0.1,0.1-0.1,0.2-0.1c0.1,0,0.2,0,0.2,0s0.2,0,0.2,0c0.1,0,0.1,0.1,0.2,0.1
		c0.1,0.1,0.1,0.1,0.1,0.2c0,0.1,0,0.2,0,0.2c0,0.2-0.1,0.3-0.2,0.4c-0.1,0.1-0.3,0.2-0.4,0.2c-0.1,0-0.2,0-0.2,0
		c-0.1,0-0.1-0.1-0.2-0.1c-0.1-0.1-0.1-0.1-0.1-0.2C45.7,67.3,45.7,67.3,45.7,67.2z"/>
	<path class="st0" d="M52.1,69v5h1.2v1.2h-4.5v-1.2h2.1v-5H52.1z M49.1,76.9c0-0.1,0-0.2,0-0.2c0-0.1,0.1-0.1,0.1-0.2
		c0.1-0.1,0.1-0.1,0.2-0.1c0.1,0,0.2,0,0.2,0s0.2,0,0.2,0c0.1,0,0.1,0.1,0.2,0.1c0.1,0.1,0.1,0.1,0.1,0.2s0,0.2,0,0.2
		c0,0.1,0,0.2,0,0.2s-0.1,0.1-0.1,0.2c-0.1,0.1-0.1,0.1-0.2,0.1c-0.1,0-0.2,0-0.2,0s-0.2,0-0.2,0c-0.1,0-0.1-0.1-0.2-0.1
		c-0.1-0.1-0.1-0.1-0.1-0.2C49.1,77.1,49.1,77,49.1,76.9z M50.9,76.9c0-0.1,0-0.2,0-0.2c0-0.1,0.1-0.1,0.1-0.2s0.1-0.1,0.2-0.1
		c0.1,0,0.2,0,0.2,0c0.1,0,0.2,0,0.2,0c0.1,0,0.1,0.1,0.2,0.1s0.1,0.1,0.1,0.2c0,0.1,0,0.2,0,0.2c0,0.2-0.1,0.3-0.2,0.4
		s-0.3,0.2-0.4,0.2c-0.1,0-0.2,0-0.2,0c-0.1,0-0.1-0.1-0.2-0.1c-0.1-0.1-0.1-0.1-0.1-0.2C50.9,77.1,50.9,77,50.9,76.9z"/>
	<path class="st0" d="M52.8,73.9H54v-2.2c0-0.4,0.1-0.8,0.2-1.1c0.1-0.3,0.3-0.6,0.6-0.9c0.2-0.2,0.5-0.4,0.9-0.6
		c0.3-0.1,0.7-0.2,1.1-0.2c0.4,0,0.7,0.1,1.1,0.2c0.3,0.1,0.6,0.3,0.9,0.6c0.3,0.2,0.4,0.5,0.6,0.9s0.2,0.7,0.2,1.1v1.5
		c0,0.3-0.1,0.6-0.2,0.8s-0.2,0.5-0.4,0.6c-0.2,0.2-0.4,0.3-0.6,0.4c-0.2,0.1-0.5,0.1-0.8,0.1h-4.8V73.9z M55.3,73.9h2.3
		c0.1,0,0.2,0,0.3-0.1s0.2-0.1,0.2-0.2c0.1-0.1,0.1-0.2,0.2-0.2s0.1-0.2,0.1-0.3v-1.5c0-0.2,0-0.4-0.1-0.6c-0.1-0.2-0.2-0.3-0.3-0.5
		s-0.3-0.2-0.5-0.3c-0.2-0.1-0.4-0.1-0.6-0.1c-0.2,0-0.4,0-0.6,0.1c-0.2,0.1-0.4,0.2-0.5,0.3c-0.1,0.1-0.3,0.3-0.3,0.5
		c-0.1,0.2-0.1,0.4-0.1,0.6V73.9z M56.2,67.2c0-0.1,0-0.2,0-0.2c0-0.1,0.1-0.1,0.1-0.2c0.1-0.1,0.1-0.1,0.2-0.1c0.1,0,0.2,0,0.2,0
		s0.2,0,0.2,0c0.1,0,0.1,0.1,0.2,0.1c0.1,0.1,0.1,0.1,0.1,0.2c0,0.1,0,0.2,0,0.2c0,0.2-0.1,0.3-0.2,0.4c-0.1,0.1-0.3,0.2-0.4,0.2
		c-0.1,0-0.2,0-0.2,0c-0.1,0-0.1-0.1-0.2-0.1c-0.1-0.1-0.1-0.1-0.1-0.2S56.2,67.3,56.2,67.2z"/>
	<path class="st0" d="M62.1,66.6v8.6h-1.2v-8.6H62.1z"/>
	<path class="st0" d="M65.7,69v5h1.2v1.2h-1.3c0,0.2-0.1,0.4-0.2,0.6c-0.1,0.2-0.2,0.4-0.4,0.7c-0.2,0.2-0.4,0.4-0.7,0.7
		c-0.3,0.2-0.6,0.4-1,0.6l-0.5-1.1c0.2-0.1,0.4-0.2,0.6-0.3c0.2-0.1,0.3-0.2,0.4-0.3c0.1-0.1,0.2-0.2,0.3-0.3
		c0.1-0.1,0.1-0.2,0.2-0.3c0.1-0.2,0.2-0.5,0.2-0.7V69H65.7z"/>
	<path class="st0" d="M69.7,69v5h1.2v1.2h-4.5v-1.2h2.1v-5H69.7z M66.7,67.2c0-0.1,0-0.2,0-0.2c0-0.1,0.1-0.1,0.1-0.2
		c0.1-0.1,0.1-0.1,0.2-0.1c0.1,0,0.2,0,0.2,0s0.2,0,0.2,0c0.1,0,0.1,0.1,0.2,0.1c0.1,0.1,0.1,0.1,0.1,0.2c0,0.1,0,0.2,0,0.2
		s0,0.2,0,0.2c0,0.1-0.1,0.1-0.1,0.2c-0.1,0.1-0.1,0.1-0.2,0.1c-0.1,0-0.2,0-0.2,0c-0.2,0-0.3-0.1-0.4-0.2
		C66.7,67.5,66.7,67.3,66.7,67.2z M68.4,67.2c0-0.1,0-0.2,0-0.2c0-0.1,0.1-0.1,0.1-0.2c0.1-0.1,0.1-0.1,0.2-0.1c0.1,0,0.2,0,0.2,0
		s0.2,0,0.2,0c0.1,0,0.1,0.1,0.2,0.1c0.1,0.1,0.1,0.1,0.1,0.2c0,0.1,0,0.2,0,0.2c0,0.2-0.1,0.3-0.2,0.4c-0.1,0.1-0.3,0.2-0.4,0.2
		c-0.1,0-0.2,0-0.2,0c-0.1,0-0.1-0.1-0.2-0.1c-0.1-0.1-0.1-0.1-0.1-0.2C68.5,67.3,68.4,67.3,68.4,67.2z"/>
	<path class="st0" d="M71.5,69.6c0.1-0.1,0.3-0.1,0.5-0.2c0.2-0.1,0.4-0.1,0.6-0.2c0.2-0.1,0.5-0.1,0.7-0.2c0.2,0,0.5-0.1,0.7-0.1
		c0.3,0,0.7,0,1,0.1c0.3,0.1,0.6,0.2,0.9,0.5c0.3,0.2,0.5,0.5,0.6,0.9s0.2,0.8,0.2,1.4v1.3c0,0.3-0.1,0.5-0.2,0.8
		c-0.1,0.2-0.2,0.4-0.4,0.6c-0.2,0.2-0.4,0.3-0.6,0.4c-0.2,0.1-0.5,0.2-0.8,0.2h-4.5v-1.2h4.5c0.1,0,0.2,0,0.3-0.1
		c0.1,0,0.2-0.1,0.3-0.2c0.1-0.1,0.1-0.1,0.2-0.2c0-0.1,0.1-0.2,0.1-0.3v-1.4c0-0.3,0-0.6-0.1-0.8c-0.1-0.2-0.2-0.4-0.4-0.5
		c-0.1-0.1-0.3-0.2-0.5-0.3s-0.4-0.1-0.6-0.1c-0.2,0-0.4,0-0.6,0.1c-0.2,0-0.4,0.1-0.6,0.1s-0.3,0.1-0.5,0.2
		c-0.2,0.1-0.3,0.1-0.4,0.1L71.5,69.6z"/>
	<path class="st0" d="M79.4,66.6v8.6h-1.2v-8.6H79.4z"/>
	<path class="st0" d="M90.3,75.1h-1.3c-0.1,0.4-0.2,0.7-0.4,1c-0.2,0.3-0.4,0.5-0.7,0.8c-0.3,0.2-0.6,0.4-1,0.5
		c-0.4,0.1-0.7,0.2-1.1,0.2c-0.4,0-0.8-0.1-1.2-0.2c-0.4-0.1-0.7-0.3-1-0.5S83.2,76.3,83,76c-0.2-0.4-0.3-0.8-0.3-1.2v-4.6H84v4.6
		c0,0.3,0.1,0.5,0.2,0.7c0.1,0.2,0.3,0.4,0.4,0.5s0.4,0.2,0.6,0.3c0.2,0.1,0.5,0.1,0.7,0.1c0.2,0,0.5,0,0.7-0.1
		c0.2-0.1,0.4-0.2,0.6-0.3s0.3-0.3,0.4-0.5c0.1-0.2,0.2-0.4,0.2-0.7v-8.2h1.2v7.4h1.2V75.1z"/>
	<path class="st0" d="M95.3,67.3L93.4,69c0.1,0,0.2,0,0.3,0s0.2,0,0.3,0c0.3,0,0.6,0,0.8,0.1s0.5,0.1,0.8,0.2s0.5,0.2,0.7,0.3
		c0.2,0.1,0.4,0.3,0.6,0.5c0.2,0.2,0.3,0.5,0.4,0.8c0.1,0.3,0.1,0.6,0.1,1v2.1h1.2v1.2h-8.9v-1.2h6.4v-2.1c0-0.3-0.1-0.6-0.2-0.8
		c-0.1-0.2-0.3-0.4-0.5-0.5c-0.2-0.1-0.4-0.2-0.7-0.3c-0.3-0.1-0.5-0.1-0.8-0.1c-0.3,0-0.5,0-0.8,0.1c-0.3,0-0.5,0.1-0.7,0.1
		c-0.2,0-0.4,0.1-0.6,0.2c-0.2,0.1-0.3,0.1-0.4,0.1l-0.5-1l3.4-3.2L95.3,67.3z"/>
	<path class="st0" d="M101.4,69v4.2c0,0.3-0.1,0.5-0.2,0.8c-0.1,0.2-0.2,0.4-0.4,0.6c-0.2,0.2-0.4,0.3-0.6,0.4
		c-0.2,0.1-0.5,0.2-0.8,0.2h-1.3v-1.2h1.3c0.1,0,0.2,0,0.3-0.1c0.1,0,0.2-0.1,0.2-0.2c0.1-0.1,0.1-0.2,0.2-0.2
		c0-0.1,0.1-0.2,0.1-0.3V69H101.4z M100.1,76.9c0-0.1,0-0.2,0-0.2c0-0.1,0.1-0.1,0.1-0.2c0.1-0.1,0.1-0.1,0.2-0.1c0.1,0,0.2,0,0.2,0
		c0.2,0,0.3,0.1,0.4,0.2c0.1,0.1,0.2,0.3,0.2,0.4c0,0.1,0,0.2,0,0.2c0,0.1-0.1,0.1-0.1,0.2c-0.1,0.1-0.1,0.1-0.2,0.1
		c-0.1,0-0.2,0-0.2,0s-0.2,0-0.2,0c-0.1,0-0.1-0.1-0.2-0.1c-0.1-0.1-0.1-0.1-0.1-0.2C100.2,77.1,100.1,77,100.1,76.9z"/>
	<path class="st0" d="M112.5,66.6v7.4h1.2v1.2h-6.2c-0.4,0-0.8-0.1-1.1-0.2s-0.6-0.3-0.9-0.6s-0.5-0.5-0.6-0.9s-0.2-0.7-0.2-1.1
		v-2.2h1.2v2.2c0,0.2,0,0.4,0.1,0.6c0.1,0.2,0.2,0.4,0.3,0.5c0.1,0.1,0.3,0.3,0.5,0.3s0.4,0.1,0.6,0.1h3.7v-7.4H112.5z M109.3,67.6
		h-0.5h0c-0.1,0-0.2,0-0.3,0.1s-0.1,0.2-0.1,0.3c0,0.1,0,0.1,0,0.2c0,0.1,0,0.1,0.1,0.2c0,0,0,0.1,0.1,0.1c0,0,0.1,0,0.1,0h0.9v0.6
		h-2v-0.6l0.3,0c-0.1-0.2-0.1-0.3-0.1-0.5c0-0.1,0-0.3,0.1-0.4s0.1-0.2,0.2-0.3s0.2-0.2,0.3-0.2c0.1-0.1,0.3-0.1,0.5-0.1h0.5V67.6z"
		/>
	<path class="st0" d="M115.8,66.6v6.6c0,0.3-0.1,0.5-0.2,0.8c-0.1,0.2-0.2,0.4-0.4,0.6c-0.2,0.2-0.4,0.3-0.6,0.4
		c-0.2,0.1-0.5,0.2-0.8,0.2h-0.6v-1.2h0.6c0.1,0,0.2,0,0.3-0.1c0.1,0,0.2-0.1,0.2-0.2c0.1-0.1,0.1-0.2,0.2-0.2s0.1-0.2,0.1-0.3v-6.6
		H115.8z"/>
	<path class="st0" d="M118.3,66.6v6.6c0,0.1,0,0.2,0.1,0.3c0,0.1,0.1,0.2,0.2,0.2c0.1,0.1,0.2,0.1,0.2,0.2c0.1,0,0.2,0.1,0.3,0.1
		h0.6v1.2h-0.6c-0.3,0-0.5-0.1-0.8-0.2c-0.2-0.1-0.5-0.2-0.6-0.4c-0.2-0.2-0.3-0.4-0.4-0.6c-0.1-0.2-0.2-0.5-0.2-0.8v-6.6H118.3z"/>
	<path class="st0" d="M119.1,73.9h1.3c0-0.1-0.1-0.2-0.1-0.4c0-0.1,0-0.3,0-0.4v-1.4c0-0.4,0.1-0.8,0.2-1.1c0.1-0.3,0.3-0.6,0.6-0.9
		c0.2-0.3,0.5-0.5,0.9-0.6c0.3-0.1,0.7-0.2,1.1-0.2s0.7,0.1,1.1,0.2c0.3,0.2,0.6,0.4,0.9,0.6c0.3,0.3,0.5,0.6,0.6,0.9
		c0.1,0.3,0.2,0.7,0.2,1.1v1.4c0,0.1,0,0.3,0,0.4c0,0.1,0,0.3-0.1,0.4h1.3v1.2h-2c-0.3,0.3-0.6,0.5-0.9,0.6
		c-0.3,0.2-0.7,0.2-1.1,0.2c-0.4,0-0.7-0.1-1.1-0.2c-0.3-0.1-0.6-0.4-0.9-0.6h-2V73.9z M123.1,70.2c-0.2,0-0.4,0-0.6,0.1
		c-0.2,0.1-0.4,0.2-0.5,0.3s-0.3,0.3-0.3,0.5c-0.1,0.2-0.1,0.4-0.1,0.6v1.4c0,0.2,0,0.4,0.1,0.6c0.1,0.2,0.2,0.4,0.3,0.5
		s0.3,0.3,0.5,0.3c0.2,0.1,0.4,0.1,0.6,0.1s0.4,0,0.6-0.1s0.4-0.2,0.5-0.3s0.3-0.3,0.3-0.5c0.1-0.2,0.1-0.4,0.1-0.6v-1.4
		c0-0.2,0-0.4-0.1-0.6s-0.2-0.4-0.3-0.5s-0.3-0.3-0.5-0.4C123.5,70.2,123.3,70.2,123.1,70.2z"/>
	<path class="st0" d="M132.6,75.1h-6v-1.2h1.2v-2.2c0-0.4,0.1-0.8,0.2-1.1c0.1-0.3,0.3-0.6,0.6-0.9c0.2-0.2,0.5-0.4,0.9-0.6
		c0.3-0.1,0.7-0.2,1.1-0.2c0.4,0,0.9,0.1,1.4,0.3l-0.5,1.1c-0.2-0.1-0.3-0.1-0.5-0.2c-0.2,0-0.3-0.1-0.4-0.1c-0.2,0-0.4,0-0.6,0.1
		c-0.2,0.1-0.4,0.2-0.5,0.3c-0.1,0.1-0.3,0.3-0.3,0.5c-0.1,0.2-0.1,0.4-0.1,0.6v2.2h3.6V75.1z"/>
	<path class="st0" d="M135.1,66.6v8.6h-1.2v-8.6H135.1z"/>
	<path class="st0" d="M140.8,69v5h1.2v1.2h-1.3c0,0.2-0.1,0.4-0.2,0.6c-0.1,0.2-0.2,0.4-0.4,0.7c-0.2,0.2-0.4,0.4-0.7,0.7
		c-0.3,0.2-0.6,0.4-1,0.6l-0.5-1.1c0.2-0.1,0.4-0.2,0.6-0.3s0.3-0.2,0.4-0.3c0.1-0.1,0.2-0.2,0.3-0.3s0.1-0.2,0.2-0.3
		c0.1-0.2,0.2-0.5,0.2-0.7V69H140.8z M139.6,67.2c0-0.1,0-0.2,0-0.2c0-0.1,0.1-0.1,0.1-0.2c0.1-0.1,0.1-0.1,0.2-0.1
		c0.1,0,0.2,0,0.2,0s0.2,0,0.2,0c0.1,0,0.1,0.1,0.2,0.1c0.1,0.1,0.1,0.1,0.1,0.2c0,0.1,0,0.2,0,0.2s0,0.2,0,0.2
		c0,0.1-0.1,0.1-0.1,0.2c-0.1,0.1-0.1,0.1-0.2,0.1c-0.1,0-0.2,0-0.2,0c-0.2,0-0.3-0.1-0.4-0.2C139.6,67.5,139.6,67.3,139.6,67.2z"/>
	<path class="st0" d="M142.6,69.6c0.1-0.1,0.3-0.1,0.5-0.2c0.2-0.1,0.4-0.1,0.6-0.2c0.2-0.1,0.5-0.1,0.7-0.2s0.5-0.1,0.7-0.1
		c0.3,0,0.7,0,1,0.1c0.3,0.1,0.6,0.2,0.9,0.5c0.3,0.2,0.5,0.5,0.6,0.9s0.2,0.8,0.2,1.4v2.1h1.2v1.2h-7.7v-1.2h5.3v-2.1
		c0-0.3,0-0.6-0.1-0.8c-0.1-0.2-0.2-0.4-0.4-0.5c-0.1-0.1-0.3-0.2-0.5-0.3s-0.4-0.1-0.6-0.1c-0.2,0-0.4,0-0.6,0.1
		c-0.2,0-0.4,0.1-0.6,0.1c-0.2,0-0.3,0.1-0.5,0.2c-0.2,0.1-0.3,0.1-0.4,0.1L142.6,69.6z M144.5,76.9c0-0.1,0-0.2,0-0.2
		c0-0.1,0.1-0.1,0.1-0.2c0.1-0.1,0.1-0.1,0.2-0.1c0.1,0,0.2,0,0.2,0c0.2,0,0.3,0.1,0.4,0.2c0.1,0.1,0.2,0.3,0.2,0.4
		c0,0.1,0,0.2,0,0.2c0,0.1-0.1,0.1-0.1,0.2c-0.1,0.1-0.1,0.1-0.2,0.1c-0.1,0-0.2,0-0.2,0s-0.2,0-0.2,0c-0.1,0-0.1-0.1-0.2-0.1
		c-0.1-0.1-0.1-0.1-0.1-0.2C144.6,77.1,144.5,77,144.5,76.9z"/>
	<path class="st0" d="M151.9,69v4.2c0,0.3-0.1,0.5-0.2,0.8c-0.1,0.2-0.2,0.4-0.4,0.6c-0.2,0.2-0.4,0.3-0.6,0.4
		c-0.2,0.1-0.5,0.2-0.8,0.2h-1.3v-1.2h1.3c0.1,0,0.2,0,0.3-0.1c0.1,0,0.2-0.1,0.2-0.2c0.1-0.1,0.1-0.2,0.2-0.2s0.1-0.2,0.1-0.3V69
		H151.9z M150.7,67.2c0-0.1,0-0.2,0-0.2c0-0.1,0.1-0.1,0.1-0.2c0.1-0.1,0.1-0.1,0.2-0.1c0.1,0,0.2,0,0.2,0c0.1,0,0.2,0,0.2,0
		c0.1,0,0.1,0.1,0.2,0.1c0.1,0.1,0.1,0.1,0.1,0.2c0,0.1,0,0.2,0,0.2c0,0.2-0.1,0.3-0.2,0.4c-0.1,0.1-0.3,0.2-0.4,0.2
		c-0.1,0-0.2,0-0.2,0c-0.1,0-0.1-0.1-0.2-0.1c-0.1-0.1-0.1-0.1-0.1-0.2S150.7,67.3,150.7,67.2z"/>
	<path class="st0" d="M154.5,66.6v8.6h-1.2v-8.6H154.5z"/>
</g>
<path class="st1" d="M233.8,32.6c9.5,5.5,9.5,19.3,0,24.8l-24.2,13.9l-26.8,15.5c-8.4,4.8-18.8-1.2-18.8-10.9V45V19
	c0-11.9,12.8-19.3,23.1-13.3l22.5,13L233.8,32.6z"/>
<path class="st2" d="M235.7,35.5c9.7,5.6,9.7,19.6,0,25.2l-23.7,13.7l-26.8,15.5c-8.4,4.8-18.8-1.2-18.8-10.9V48.1v-28
	c0-11,11.9-17.8,21.4-12.3l24.2,14L235.7,35.5z"/>
<path class="st3" d="M237.3,38.7c10,5.8,10,20.2,0,25.9L214.2,78l-26.8,15.5c-8.4,4.8-18.8-1.2-18.8-10.9V51.7V20.8
	c0-9.7,10.5-15.7,18.8-10.9l26.8,15.5L237.3,38.7z"/>
<path class="st1" d="M234.9,38.7c9.3,5.8,9.3,20.2,0,25.9L213.3,78l-25,15.5c-7.8,4.8-17.6-1.2-17.6-10.9V51.7V20.8
	c0-9.7,9.8-15.7,17.6-10.9l25,15.5L234.9,38.7z"/>
<circle class="st3" cx="226.3" cy="51.1" r="11.5"/>
<circle class="st1" cx="226.3" cy="51.1" r="10.8"/>
<circle class="st3" cx="226.3" cy="51.1" r="10.1"/>
<path class="st2" d="M174.7,34.3L174.7,34.3c1.1-1.1,3-1.1,4.1,0l14,14c1.1,1.1,1.1,3,0,4.1l0,0c-1.1,1.1-3,1.1-4.1,0l-14-14
	C173.6,37.3,173.6,35.4,174.7,34.3z"/>
<path class="st2" d="M176.2,70.7L176.2,70.7c-1.6,0-2.9-1.3-2.9-2.9v-31c0-1.6,1.3-2.9,2.9-2.9l0,0c1.6,0,2.9,1.3,2.9,2.9v31
	C179.1,69.4,177.8,70.7,176.2,70.7z"/>
<path class="st2" d="M209,70.7L209,70.7c-1.6,0-2.9-1.3-2.9-2.9V37c0-1.6,1.3-2.9,2.9-2.9l0,0c1.6,0,2.9,1.3,2.9,2.9v30.8
	C211.9,69.4,210.6,70.7,209,70.7z"/>
<path class="st2" d="M195.7,59.9L195.7,59.9c-1.1-1.1-1.1-3,0-4.1l10.2-10.2c1.1-1.1,3-1.1,4.1,0l0,0c1.1,1.1,1.1,3,0,4.1
	l-10.2,10.2C198.7,61.1,196.8,61.1,195.7,59.9z"/>
<linearGradient id="SVGID_1_" gradientUnits="userSpaceOnUse" x1="190.9344" y1="39.9159" x2="190.484" y2="39.4654">
	<stop  offset="0" style="stop-color:#FFFFFF"/>
	<stop  offset="1" style="stop-color:#000000"/>
</linearGradient>
<path class="st4" d="M185.9,59.8L185.9,59.8c-1.1-1.1-1.1-3,0-4.1l20.9-20.9c1.1-1.1,3-1.1,4.1,0l0,0c1.1,1.1,1.1,3,0,4.1L190,59.8
	C188.9,61,187,61,185.9,59.8z"/>
<path class="st2" d="M174.4,34.5L174.4,34.5c1.1-1.1,3-1.1,4.1,0l14,14c1.1,1.1,1.1,3,0,4.1l0,0c-1.1,1.1-3,1.1-4.1,0l-14-14
	C173.2,37.5,173.2,35.6,174.4,34.5z"/>
<path class="st2" d="M219.5,51L219.5,51c0-1.2,0.9-2.1,2.1-2.1h9.6c1.2,0,2.1,0.9,2.1,2.1l0,0c0,1.2-0.9,2.1-2.1,2.1h-9.6
	C220.4,53.1,219.5,52.2,219.5,51z"/>
<path class="st2" d="M226.4,44.1L226.4,44.1c1.2,0,2.1,0.9,2.1,2.1v9.6c0,1.2-0.9,2.1-2.1,2.1l0,0c-1.2,0-2.1-0.9-2.1-2.1v-9.6
	C224.3,45,225.2,44.1,226.4,44.1z"/>
</svg>
