<?xml version="1.0" encoding="utf-8"?>
<!-- Generator: Adobe Illustrator 21.0.0, SVG Export Plug-In . SVG Version: 6.00 Build 0)  -->
<svg version="1.1" id="Layer_2" xmlns="http://www.w3.org/2000/svg" xmlns:xlink="http://www.w3.org/1999/xlink" x="0px" y="0px"
	 viewBox="0 0 100 100" style="enable-background:new 0 0 100 100;" xml:space="preserve">
<style type="text/css">
	.st0{fill:#E7F0F0;}
	.st1{fill:#405B91;}
	.st2{fill:#7DC3EA;stroke:#405B91;stroke-width:0.25;stroke-miterlimit:10;}
	.st3{fill:#F0E5F7;}
	.st4{fill:#251E4F;}
	.st5{fill:#B6D0FB;stroke:#405B91;stroke-width:0.25;stroke-miterlimit:10;}
	.st6{fill:url(#XMLID_6_);stroke:#405B91;stroke-width:0.25;stroke-miterlimit:10;}
	.st7{opacity:0.5;}
	.st8{fill:#405B91;stroke:#133160;stroke-width:0.25;stroke-miterlimit:10;}
	.st9{fill:url(#XMLID_8_);stroke:#405B91;stroke-width:0.25;stroke-miterlimit:10;}
	.st10{fill:#FFFFFF;}
	.st11{fill:#50AA50;stroke:#348E0E;stroke-width:0.25;stroke-miterlimit:10;}
	.st12{fill:#CCBA6A;}
	.st13{opacity:0.19;}
	.st14{fill:url(#XMLID_10_);stroke:#405B91;stroke-width:0.25;stroke-miterlimit:10;}
	.st15{fill:#FFFFFF;stroke:#405B91;stroke-width:0.25;stroke-miterlimit:10;}
	.st16{fill:url(#XMLID_11_);stroke:#405B91;stroke-width:0.25;stroke-miterlimit:10;}
	.st17{fill:url(#XMLID_12_);stroke:#405B91;stroke-width:0.25;stroke-miterlimit:10;}
	.st18{fill:url(#XMLID_13_);stroke:#405B91;stroke-width:0.25;stroke-miterlimit:10;}
	.st19{fill:url(#XMLID_14_);stroke:#405B91;stroke-width:0.25;stroke-miterlimit:10;}
	.st20{fill:url(#XMLID_15_);stroke:#405B91;stroke-width:0.25;stroke-miterlimit:10;}
	.st21{fill:url(#XMLID_16_);stroke:#405B91;stroke-width:0.25;stroke-miterlimit:10;}
</style>
<path class="st0" d="M88.3,61c0,0,21.8-29.9-23.7-38.6s-43.1,7-43.1,7s3,9.7-10.2,14s4.3,38.8,17,36.7c12.7-2.2,47.5,0,47.5,0
	S91.3,82.3,88.3,61z"/>
<g>
	<path class="st1" d="M94.1,80.2H8c-0.1,0-0.2-0.1-0.2-0.2s0.1-0.2,0.2-0.2h86.1c0.1,0,0.2,0.1,0.2,0.2
		C94.3,80.1,94.2,80.2,94.1,80.2z"/>
</g>
<g id="XMLID_77_">
	<g id="XMLID_247_">
		<path id="XMLID_1284_" class="st2" d="M54.6,64.9c-0.3-1.2-0.5-2.3-0.6-3.3c0-0.2-0.2-0.4-0.5-0.4l-3.8,0.3
			c-0.3,0-0.5,0.3-0.5,0.6c0.1,1.2,0.3,2.5,0.6,3.8c1.7,6.9,6.1,12,12.7,14.6l1.8-4.4C59.2,74.1,55.9,70.3,54.6,64.9z"/>
	</g>
</g>
<g id="XMLID_146_">
	<polygon id="XMLID_1283_" class="st3" points="61.9,85.3 65.9,76.8 62.2,75.1 60.1,79.4 	"/>
</g>
<g id="XMLID_352_">
	<g id="XMLID_49_">
		<path id="XMLID_1282_" class="st4" d="M61.6,83.7c1.1-2.4,2.3-4.9,3.7-7.1c0.1-0.2-0.2-0.3-0.3-0.2c-1.4,2.3-2.6,4.7-3.7,7.1
			C61.3,83.8,61.5,83.9,61.6,83.7L61.6,83.7z"/>
	</g>
</g>
<g id="XMLID_353_">
	<g id="XMLID_48_">
		<path id="XMLID_1281_" class="st4" d="M63,76.5c-0.8,1.1-0.5,2.5,0.6,3.2c0.2,0.1,0.3-0.2,0.2-0.3c-1-0.6-1.2-1.8-0.5-2.8
			C63.3,76.5,63.1,76.4,63,76.5L63,76.5z"/>
	</g>
</g>
<g id="XMLID_357_">
	<g id="XMLID_47_">
		<path id="XMLID_1280_" class="st4" d="M60.7,80.9c0.2-0.4,0.5-0.8,0.7-1.1c0.1-0.2-0.2-0.3-0.3-0.2c-0.2,0.4-0.5,0.8-0.7,1.1
			C60.4,80.9,60.6,81.1,60.7,80.9L60.7,80.9z"/>
	</g>
</g>
<g id="XMLID_360_">
	<g id="XMLID_45_">
		<path id="XMLID_1279_" class="st4" d="M60.9,82c0.3-0.5,0.6-1,1-1.6c0.1-0.2-0.2-0.3-0.3-0.2c-0.3,0.5-0.6,1-1,1.6
			C60.6,82,60.8,82.1,60.9,82L60.9,82z"/>
	</g>
</g>
<g id="XMLID_19_">
	<g id="XMLID_244_">
		<path id="XMLID_1278_" class="st2" d="M43.3,62.1l-3.7,0.3c-0.3,0-0.5,0.2-0.5,0.5c0,0.2,0,0.3,0,0.5c-0.3,5.1,1.1,12.5,9.5,18.7
			l2.8-3.8c-6.9-5.1-8-11.1-7.4-15.6C43.9,62.4,43.7,62.1,43.3,62.1z"/>
	</g>
</g>
<g id="XMLID_145_">
	<polygon id="XMLID_1277_" class="st3" points="47.2,87.4 53.2,79.8 50.1,77.2 47,80.9 	"/>
</g>
<g id="XMLID_369_">
	<g id="XMLID_367_">
		<g id="XMLID_44_">
			<path id="XMLID_1276_" class="st4" d="M47.2,85.9c1.8-2.2,3.4-4.5,5.4-6.5c0.1-0.1-0.1-0.4-0.2-0.2c-1.9,2.1-3.5,4.4-5.4,6.5
				C46.9,85.9,47.1,86.1,47.2,85.9L47.2,85.9z"/>
		</g>
	</g>
	<g id="XMLID_366_">
		<g id="XMLID_43_">
			<path id="XMLID_1275_" class="st4" d="M50.6,77.8c-1,0.9-1,2.3,0,3.3c0.1,0.1,0.4-0.1,0.2-0.2c-0.8-0.8-0.8-2,0-2.8
				C51,77.9,50.8,77.7,50.6,77.8L50.6,77.8z"/>
		</g>
	</g>
	<g id="XMLID_365_">
		<g id="XMLID_42_">
			<path id="XMLID_1274_" class="st4" d="M47.2,82.9c0.3-0.3,0.6-0.6,0.9-1c0.1-0.1-0.1-0.4-0.2-0.2c-0.3,0.3-0.6,0.6-0.9,1
				C46.8,82.8,47.1,83,47.2,82.9L47.2,82.9z"/>
		</g>
	</g>
	<g id="XMLID_363_">
		<g id="XMLID_41_">
			<path id="XMLID_1273_" class="st4" d="M47.2,83.9c0.4-0.4,0.8-0.9,1.3-1.3c0.1-0.1-0.1-0.4-0.2-0.2c-0.4,0.4-0.8,0.9-1.3,1.3
				C46.8,83.8,47,84.1,47.2,83.9L47.2,83.9z"/>
		</g>
	</g>
</g>
<path class="st5" d="M80.9,18.1c-0.2-0.2-0.4-0.1-0.6,0c-0.1,0.1-0.3,0.3-0.5,0.5c0.2-0.5,0.4-0.9,0.5-1.3c0.1-0.2,0.1-0.4-0.1-0.5
	s-0.4-0.1-0.5,0.1c-0.4,0.3-0.9,0.9-1.3,1.5c0.3-0.7,0.7-1.5,0.9-2c0.1-0.2,0.1-0.4-0.1-0.6c-0.2-0.2-0.4,0-0.6,0.2
	c-0.4,0.5-0.8,1.1-1.2,1.7c0.2-0.6,0.3-1.1,0.4-1.5c0-0.1,0-0.2-0.1-0.3c-0.2-0.1-0.4-0.1-0.4,0c-0.8,0.8-1.5,2.7-2,3.8l0.1,0.1
	c-0.2,0.3-0.5,0.8-0.7,1.3l0,0c-2.5,5.2-6.9,7.5-10.5,8.6c-0.4,0.1-0.6,0.4-0.7,0.8l-0.9,3.9c-0.1,0.3,0.2,0.7,0.6,0.6
	c8.4-2,13.9-9.4,15.3-11.5c0.1-0.1,0.1-0.2,0.2-0.3c0.1-0.2,0.2-0.3,0.2-0.3c0.3-0.5,1.9-3.6,2.2-4.3C81,18.4,81,18.2,80.9,18.1z"/>
<g id="XMLID_87_">
	<path id="XMLID_1266_" class="st4" d="M79.1,22.2c-0.3-0.1-0.5-0.6-0.7-0.8c-0.6-0.6-0.9-1.3-0.8-2.2c0.1-0.6,0.3-1.7,0.9-2
		c0.3-0.1,0.5,0.1,0.5,0.4C78.9,18.5,78.8,19.8,79.1,22.2z"/>
</g>
<linearGradient id="XMLID_6_" gradientUnits="userSpaceOnUse" x1="75.8" y1="19.6" x2="91.1" y2="19.6">
	<stop  offset="0" style="stop-color:#86B8E0"/>
	<stop  offset="0.1163" style="stop-color:#98C4E7"/>
	<stop  offset="0.3255" style="stop-color:#B2D6F2"/>
	<stop  offset="0.5401" style="stop-color:#C5E2F9"/>
	<stop  offset="0.7615" style="stop-color:#D0EAFE"/>
	<stop  offset="1" style="stop-color:#D4ECFF"/>
</linearGradient>
<path id="XMLID_3_" class="st6" d="M90.6,17.1L90.6,17.1C90.6,17,90.6,17,90.6,17.1C90.6,17,90.6,17,90.6,17.1
	C90.6,17,90.6,17,90.6,17.1C90.6,17,90.6,17,90.6,17.1C90.6,17,90.6,17,90.6,17.1C90.6,17,90.6,17,90.6,17.1
	C90.6,17,90.6,17,90.6,17.1C90.6,17,90.6,17,90.6,17.1c0-0.1,0-0.1,0-0.1l0,0l0,0l0,0l0,0l0,0l0,0l0,0l0,0l0,0l0,0l0,0l0,0l0,0l0,0
	l0,0l0,0l0,0l0,0l0,0l0,0l0,0l0,0l0,0l0,0l0,0l0,0l0,0l0,0l0,0l0,0l0,0l0,0l0,0l0,0l0,0l0,0l0,0l0,0l0,0l0,0l0,0l0,0l0,0l0,0l0,0
	l0,0l0,0l0,0l0,0l0,0l0,0l0,0l0,0l0,0l0,0l0,0l0,0l0,0l0,0l0,0l0,0l0,0l0,0l0,0l0,0l0,0l0,0l0,0l0,0l0,0l0,0l0,0l0,0l0,0l0,0l0,0
	l0,0l0,0l0,0l0,0l0,0l0,0l0,0l0,0l0,0l0,0l0,0l0,0l0,0l0,0c-1.1-2.9-3.9-5-7.2-5c-4.2,0-7.6,3.4-7.6,7.6c0,0.9,0.2,1.8,0.5,2.6l0,0
	l0,0l0,0l0,0l0,0l0,0l0,0l0,0l0,0l0,0l0,0l0,0l0,0l0,0l0,0l0,0l0,0l0,0l0,0l0,0l0,0l0,0l0,0l0,0l0,0l0,0l0,0l0,0l0,0l0,0l0,0l0,0
	l0,0l0,0l0,0l0,0l0,0l0,0l0,0l0,0l0,0l0,0l0,0l0,0l0,0l0,0l0,0l0,0l0,0l0,0l0,0l0,0l0,0l0,0l0,0l0,0l0,0l0,0l0,0l0,0l0,0l0,0l0,0
	l0,0l0,0l0,0l0,0l0,0l0,0l0,0l0,0l0,0l0,0l0,0l0,0l0,0l0,0l0,0l0,0l0,0l0,0l0,0l0,0l0,0l0,0l0,0l0,0l0,0l0,0l0,0l0,0l0,0l0,0l0,0
	l0,0l0,0l0,0l0,0l0,0l0,0c1.1,2.9,3.9,5,7.2,5c4.2,0,7.6-3.4,7.6-7.6C91.1,18.8,90.9,17.9,90.6,17.1z"/>
<g id="XMLID_167_">
	<circle id="XMLID_1165_" class="st5" cx="83.1" cy="18.6" r="7.6"/>
</g>
<g id="XMLID_271_" class="st7">
	<g id="XMLID_274_">
		<path id="XMLID_1164_" class="st8" d="M82,22.8c0.2,0.1,0.4,0.2,0.6,0.2c0.5,0.1,1-0.1,1.4-0.4c1.1-0.8,2.1-1.8,2.9-2.9
			c0.5-0.7,0.9-1.5,0.8-2.4c-0.1-1-1-1.8-1.9-2c-1-0.2-1.7,0.2-2.4,0.9c-0.1-0.9-1.4-1.8-2.3-1.8c-2.1,0.1-2.5,2.2-2.2,3.9
			c0.2,1,0.7,2,1.3,2.8C80.5,21.7,81.2,22.4,82,22.8z"/>
	</g>
</g>
<path class="st5" d="M23.8,43.7L23.8,43.7c-0.1,0.1-0.2,0.3-0.3,0.5l0,0c-0.2,0.5-1.7,3.7-1.9,4.4c-0.1,0.2-0.1,0.4,0.1,0.5
	s0.4,0,0.6-0.1c0.1-0.1,0.3-0.3,0.5-0.6c-0.2,0.5-0.3,1-0.4,1.3c0,0.2-0.1,0.4,0.1,0.5s0.4,0,0.5-0.1c0.4-0.4,0.8-1,1.2-1.6
	c-0.3,0.8-0.6,1.5-0.7,2.1c-0.1,0.2-0.1,0.5,0.2,0.6c0.2,0.1,0.4,0,0.6-0.2c0.3-0.5,0.7-1.1,1.1-1.8c-0.1,0.6-0.2,1.1-0.3,1.5
	c0,0.1,0,0.2,0.1,0.3c0.2,0.1,0.4,0,0.4-0.1c0.5-0.7,1-1.9,1.4-3c0.1,0.1,0.1,0.1,0.2,0.2c0.3,0.3,0.8,0.6,1.2,0.7
	c0.6,0.1,0.7-0.3,0.5-0.7c-0.3-0.7-0.7-1.4-1.2-2.1c0.1-0.1,0.1-0.3,0.2-0.5l0,0C32,35.3,43.8,35.1,43.8,35.1l1.6-4.9
	C31.3,29.4,23.8,43.7,23.8,43.7z"/>
<linearGradient id="XMLID_8_" gradientUnits="userSpaceOnUse" x1="33.8018" y1="59.15" x2="72.052" y2="59.15" gradientTransform="matrix(1 0 0 -1 0 100)">
	<stop  offset="0" style="stop-color:#86B8E0"/>
	<stop  offset="0.1163" style="stop-color:#98C4E7"/>
	<stop  offset="0.3255" style="stop-color:#B2D6F2"/>
	<stop  offset="0.5401" style="stop-color:#C5E2F9"/>
	<stop  offset="0.7615" style="stop-color:#D0EAFE"/>
	<stop  offset="1" style="stop-color:#D4ECFF"/>
</linearGradient>
<path id="XMLID_7_" class="st9" d="M71.1,17.9C71.1,17.8,71.1,17.8,71.1,17.9C71.1,17.8,71.1,17.8,71.1,17.9
	C71.1,17.8,71.1,17.8,71.1,17.9C71,17.8,71,17.8,71.1,17.9C71,17.8,71,17.8,71,17.8l0,0l0,0l0,0l0,0l0,0l0,0l0,0l0,0l0,0l0,0l0,0
	l0,0l0,0l0,0l0,0l0,0l0,0l0,0l0,0l0,0l0,0l0,0l0,0l0,0l0,0l0,0l0,0l0,0l0,0l0,0l0,0l0,0l0,0l0,0l0,0l0,0l0,0l0,0l0,0l0,0l0,0l0,0
	l0,0l0,0l0,0l0,0l0,0l0,0l0,0l0,0l0,0l0,0l0,0l0,0l0,0l0,0l0,0l0,0l0,0l0,0l0,0l0,0l0,0l0,0l0,0l0,0l0,0l0,0l0,0l0,0l0,0l0,0l0,0
	l0,0l0,0l0,0l0,0l0,0l0,0l0,0l0,0l0,0l0,0l0,0l0,0l0,0l0,0l0,0l0,0l0,0l0,0l0,0l0,0l0,0l0,0c-0.4-0.3-0.9-0.4-1.4-0.3L48,20.3
	c-0.8,0.1-1.5,0.7-1.7,1.5L33.9,61.7c-0.2,0.9,0.2,1.9,1,2.3l0,0l0,0l0,0l0,0l0,0l0,0l0,0l0,0l0,0l0,0l0,0l0,0l0,0l0,0l0,0l0,0l0,0
	l0,0l0,0l0,0l0,0l0,0l0,0l0,0l0,0l0,0l0,0l0,0l0,0l0,0l0,0l0,0l0,0l0,0l0,0l0,0l0,0l0,0l0,0l0,0l0,0l0,0l0,0l0,0l0,0l0,0l0,0l0,0
	l0,0l0,0l0,0l0,0l0,0l0,0l0,0l0,0l0,0l0,0l0,0l0,0l0,0l0,0l0,0l0,0l0,0l0,0l0,0l0,0l0,0l0,0l0,0l0,0l0,0l0,0l0,0l0,0l0,0l0,0l0,0
	l0,0l0,0l0,0l0,0l0,0l0,0l0,0l0,0l0,0l0,0l0,0l0,0l0,0l0,0l0,0l0,0l0,0l0,0l0,0l0,0l0,0c0.4,0.2,0.8,0.3,1.2,0.3l22.2-2
	c0.9-0.1,1.6-0.7,1.8-1.6l9.6-42.1C72.2,19.1,71.8,18.3,71.1,17.9z"/>
<g id="XMLID_1_">
	<path id="XMLID_1055_" class="st2" d="M56.6,61l-22.2,2c-1.4,0.1-2.5-1.2-2.2-2.5l10.3-41.3c0.2-0.8,0.9-1.4,1.7-1.5l21.6-2.8
		c1.4-0.2,2.6,1.1,2.3,2.5l-9.6,42.1C58.2,60.3,57.5,61,56.6,61z"/>
</g>
<g id="XMLID_9_">
	<path id="XMLID_1054_" class="st5" d="M56.8,56.5l-21.5,2c-0.6,0.1-1-0.5-0.9-1l9.1-36.6c0.1-0.3,0.4-0.6,0.7-0.6l20.9-2.7
		c0.6-0.1,1,0.4,0.9,1L57.4,56C57.4,56.2,57.2,56.4,56.8,56.5z"/>
</g>
<g id="XMLID_380_">
	<g id="XMLID_393_">
		<g id="XMLID_40_">
			<path id="XMLID_1053_" class="st4" d="M51.3,18.3c2.4-0.3,4.8-0.7,7.2-0.9c0.2,0,0.2-0.3,0-0.3c-2.4,0.2-4.8,0.6-7.2,0.9
				C51.1,18,51.1,18.3,51.3,18.3L51.3,18.3z"/>
		</g>
	</g>
	<g id="XMLID_383_">
		<g id="XMLID_39_">
			<path id="XMLID_1052_" class="st4" d="M50.2,18.4c0.3,0,0.3-0.4,0-0.4C50,18,50,18.4,50.2,18.4L50.2,18.4z"/>
		</g>
	</g>
	<g id="XMLID_395_">
		<g id="XMLID_38_">
			<path id="XMLID_1051_" class="st4" d="M44.4,59.7c-0.2,1.8,3,1.3,2.8-0.5c-0.1-0.7-0.8-1.1-1.5-1C44.9,58.4,44.4,59,44.4,59.7
				c0,0.2,0.3,0.2,0.3,0c0-0.5,0.3-0.9,0.8-1.1c0.5-0.1,1.1,0,1.3,0.4c0.7,1.5-2.2,2.1-2.1,0.7C44.7,59.5,44.4,59.5,44.4,59.7
				L44.4,59.7z"/>
		</g>
	</g>
</g>
<path id="XMLID_4_" class="st5" d="M59.5,21.8L59.5,21.8C59.5,21.7,59.5,21.7,59.5,21.8C59.5,21.7,59.5,21.7,59.5,21.8
	C59.5,21.7,59.5,21.7,59.5,21.8C59.5,21.7,59.5,21.7,59.5,21.8C59.5,21.7,59.4,21.7,59.5,21.8C59.4,21.7,59.4,21.7,59.5,21.8
	c-0.1-0.1-0.1-0.1-0.1-0.1l0,0l0,0l0,0l0,0l0,0l0,0l0,0l0,0l0,0l0,0l0,0l0,0l0,0l0,0l0,0l0,0l0,0l0,0l0,0l0,0l0,0l0,0l0,0l0,0l0,0
	l0,0l0,0l0,0l0,0l0,0l0,0l0,0l0,0l0,0l0,0l0,0l0,0l0,0l0,0l0,0l0,0l0,0l0,0l0,0l0,0l0,0l0,0l0,0l0,0l0,0l0,0l0,0l0,0l0,0l0,0l0,0
	l0,0l0,0l0,0l0,0l0,0l0,0l0,0l0,0l0,0l0,0l0,0l0,0l0,0l0,0l0,0l0,0l0,0l0,0l0,0l0,0l0,0l0,0l0,0l0,0l0,0l0,0l0,0l0,0l0,0l0,0l0,0
	l0,0l0,0l0,0l0,0l0,0c-0.2-0.2-0.5-0.2-0.8-0.2l-19.1,2c-0.4,0-0.8,0.3-0.9,0.8l-2.8,9.3c-0.1,0.5,0,0.9,0.4,1.2l0,0l0,0l0,0l0,0
	l0,0l0,0l0,0l0,0l0,0l0,0l0,0l0,0l0,0l0,0l0,0l0,0l0,0l0,0l0,0l0,0l0,0l0,0l0,0l0,0l0,0l0,0l0,0l0,0l0,0l0,0l0,0l0,0l0,0l0,0l0,0
	l0,0l0,0l0,0l0,0l0,0l0,0l0,0l0,0l0,0l0,0l0,0l0,0l0,0l0,0l0,0l0,0l0,0l0,0l0,0l0,0l0,0l0,0l0,0l0,0l0,0l0,0l0,0l0,0l0,0l0,0l0,0
	l0,0l0,0l0,0l0,0l0,0l0,0l0,0l0,0l0,0l0,0l0,0l0,0l0,0l0,0l0,0l0,0l0,0l0,0l0,0l0,0l0,0l0,0l0,0l0,0l0,0l0,0l0,0l0,0l0,0l0,0l0,0
	l0,0l0,0l0,0C36.4,35,36.7,35,37,35l11.6-1.2l0.1,0.8c0,0.2,0.1,0.4,0.3,0.5l0,0l0,0l0,0l0,0l0,0l0,0l0,0l0,0l0,0l0,0l0,0l0,0l0,0
	l0,0l0,0l0,0l0,0l0,0l0,0l0,0l0,0l0,0l0,0l0,0l0,0l0,0l0,0l0,0l0,0l0,0l0,0l0,0l0,0l0,0l0,0l0,0l0,0l0,0l0,0l0,0l0,0l0,0l0,0l0,0
	l0,0l0,0l0,0l0,0l0,0l0,0l0,0l0,0l0,0l0,0l0,0l0,0l0,0l0,0l0,0l0,0l0,0l0,0l0,0l0,0l0,0l0,0l0,0l0,0l0,0l0,0l0,0l0,0l0,0l0,0l0,0
	l0,0l0,0l0,0l0,0l0,0l0,0l0,0l0,0l0,0l0,0l0,0l0,0l0,0l0,0l0,0l0,0l0,0l0,0l0,0l0,0l0,0l0,0l0,0l0,0l0,0c0.3,0.3,0.8,0.2,1.1-0.1
	l2-2.6l2.9-0.3c0.4,0,0.8-0.4,0.9-0.8l2.6-9.3C60.1,22.5,59.9,22,59.5,21.8z"/>
<g id="XMLID_99_">
	<path id="XMLID_950_" class="st2" d="M57.5,20.6l-19.1,2c-0.4,0-0.8,0.3-0.9,0.8l-2.8,9.3c-0.2,0.7,0.4,1.5,1.1,1.4l12.7-1.3
		l0.3,1.9c0.1,0.7,1,0.9,1.4,0.3l2-2.6l2.9-0.3c0.4,0,0.8-0.4,0.9-0.8l2.6-9.3C58.8,21.2,58.2,20.5,57.5,20.6z"/>
</g>
<g id="XMLID_116_">
	<path id="XMLID_949_" class="st10" d="M39.4,25.4c-0.2,0-0.3-0.1-0.3-0.3c0-0.2,0.1-0.3,0.3-0.4l14.3-1.5c0.2,0,0.3,0.1,0.4,0.3
		c0,0.2-0.1,0.3-0.3,0.4L39.4,25.4L39.4,25.4z"/>
</g>
<g id="XMLID_117_">
	<path id="XMLID_948_" class="st10" d="M37.8,31.4c-0.2,0-0.3-0.1-0.3-0.3c0-0.2,0.1-0.3,0.3-0.4L54.2,29c0.2,0,0.3,0.1,0.4,0.3
		c0,0.2-0.1,0.3-0.3,0.4L37.8,31.4C37.8,31.3,37.8,31.4,37.8,31.4z"/>
</g>
<g id="XMLID_119_">
	<path id="XMLID_947_" class="st10" d="M38.2,29.4c-0.2,0-0.3-0.1-0.3-0.3c0-0.2,0.1-0.3,0.3-0.4l14.7-1.5c0.2,0,0.3,0.1,0.4,0.3
		c0,0.2-0.1,0.3-0.3,0.4L38.2,29.4C38.3,29.4,38.2,29.4,38.2,29.4z"/>
</g>
<g id="XMLID_120_">
	<path id="XMLID_946_" class="st10" d="M38.7,27.4c-0.2,0-0.3-0.1-0.3-0.3c0-0.2,0.1-0.3,0.3-0.4l11.5-1.2c0.2,0,0.3,0.1,0.4,0.3
		c0,0.2-0.1,0.3-0.3,0.4L38.7,27.4C38.8,27.4,38.8,27.4,38.7,27.4z"/>
</g>
<path id="XMLID_5_" class="st11" d="M68.3,39.6L68.3,39.6L68.3,39.6L68.3,39.6L68.3,39.6L68.3,39.6C68.3,39.6,68.3,39.5,68.3,39.6
	C68.2,39.5,68.2,39.5,68.3,39.6C68.2,39.5,68.2,39.5,68.3,39.6L68.3,39.6L68.3,39.6L68.3,39.6L68.3,39.6L68.3,39.6L68.3,39.6
	L68.3,39.6L68.3,39.6L68.3,39.6L68.3,39.6L68.3,39.6L68.3,39.6L68.3,39.6L68.3,39.6L68.3,39.6L68.3,39.6L68.3,39.6L68.3,39.6
	L68.3,39.6L68.3,39.6L68.3,39.6L68.3,39.6L68.3,39.6L68.3,39.6L68.3,39.6L68.3,39.6L68.3,39.6L68.3,39.6L68.3,39.6L68.3,39.6
	L68.3,39.6L68.3,39.6L68.3,39.6L68.3,39.6L68.3,39.6L68.3,39.6L68.3,39.6L68.3,39.6L68.3,39.6L68.3,39.6L68.3,39.6L68.3,39.6
	L68.3,39.6L68.3,39.6L68.3,39.6L68.3,39.6L68.3,39.6L68.3,39.6L68.3,39.6L68.3,39.6L68.3,39.6L68.3,39.6L68.3,39.6L68.3,39.6
	L68.3,39.6L68.3,39.6L68.3,39.6L68.3,39.6L68.3,39.6L68.3,39.6L68.3,39.6L68.3,39.6L68.3,39.6L68.3,39.6L68.3,39.6L68.3,39.6
	L68.3,39.6L68.3,39.6L68.3,39.6L68.3,39.6L68.3,39.6L68.3,39.6L68.3,39.6L68.3,39.6L68.3,39.6L68.3,39.6L68.3,39.6L68.3,39.6
	L68.3,39.6L68.3,39.6L68.3,39.6L68.3,39.6L68.3,39.6L68.3,39.6L68.3,39.6L68.3,39.6L68.3,39.6L68.3,39.6L68.3,39.6L68.3,39.6
	L68.3,39.6L68.3,39.6c-0.3-0.3-0.6-0.3-0.9-0.3l-19.1,2c-0.4,0-0.8,0.3-0.9,0.8l-2.8,9.3c-0.1,0.5,0,0.9,0.4,1.2l0,0l0,0l0,0l0,0
	l0,0l0,0l0,0l0,0l0,0l0,0l0,0l0,0l0,0l0,0l0,0l0,0l0,0l0,0l0,0l0,0l0,0l0,0l0,0l0,0l0,0l0,0l0,0l0,0l0,0l0,0l0,0l0,0l0,0l0,0l0,0
	l0,0l0,0l0,0l0,0l0,0l0,0l0,0l0,0l0,0l0,0l0,0l0,0l0,0l0,0l0,0l0,0l0,0l0,0l0,0l0,0l0,0l0,0l0,0l0,0l0,0l0,0l0,0l0,0l0,0l0,0l0,0
	l0,0l0,0l0,0l0,0l0,0l0,0l0,0l0,0l0,0l0,0l0,0l0,0l0,0l0,0l0,0l0,0l0,0l0,0l0,0l0,0l0,0l0,0l0,0l0,0l0,0l0,0l0,0l0,0l0,0l0,0l0,0
	l0,0l0,0l0,0c0.2,0.2,0.5,0.2,0.8,0.2l1.9-0.2l0.1,0.8c0,0.2,0.1,0.4,0.3,0.5l0,0l0,0l0,0l0,0l0,0l0,0l0,0l0,0l0,0l0,0l0,0l0,0l0,0
	l0,0l0,0l0,0l0,0l0,0l0,0l0,0l0,0l0,0l0,0l0,0l0,0l0,0l0,0l0,0l0,0l0,0l0,0l0,0l0,0l0,0l0,0l0,0l0,0l0,0l0,0l0,0l0,0l0,0l0,0l0,0
	l0,0l0,0l0,0l0,0l0,0l0,0l0,0l0,0l0,0l0,0l0,0l0,0l0,0l0,0l0,0l0,0l0,0l0,0l0,0l0,0l0,0l0,0l0,0l0,0l0,0l0,0l0,0l0,0l0,0l0,0l0,0
	l0,0l0,0l0,0l0,0l0,0l0,0l0,0l0,0l0,0l0,0l0,0l0,0l0,0l0,0l0,0l0,0l0,0l0,0l0,0l0,0l0,0l0,0l0,0l0,0l0,0c0.3,0.3,0.8,0.2,1.1-0.1
	l2-2.6l12.7-1.3c0.4,0,0.8-0.4,0.9-0.8l2.6-9.3C68.9,40.3,68.7,39.9,68.3,39.6z"/>
<g id="XMLID_105_">
	<path id="XMLID_845_" class="st11" d="M65.3,37.4l-19.1,2c-0.4,0-0.8,0.3-0.9,0.8l-2.8,9.3c-0.2,0.7,0.4,1.5,1.1,1.4l3-0.3l0.3,1.9
		c0.1,0.7,1,0.9,1.4,0.3l2-2.6L63,48.9c0.4,0,0.8-0.4,0.9-0.8l2.6-9.3C66.6,38.1,66,37.4,65.3,37.4z"/>
</g>
<g id="XMLID_104_">
	<path id="XMLID_844_" class="st10" d="M50.2,41.9c-0.2,0-0.3-0.1-0.3-0.3s0.1-0.3,0.3-0.4l13.4-1.4c0.2,0,0.3,0.1,0.4,0.3
		c0,0.2-0.1,0.3-0.3,0.4L50.2,41.9L50.2,41.9z"/>
</g>
<g id="XMLID_103_">
	<path id="XMLID_843_" class="st10" d="M50.8,47.6c-0.2,0-0.3-0.1-0.3-0.3s0.1-0.3,0.3-0.4L62,45.8c0.2,0,0.3,0.1,0.4,0.3
		c0,0.2-0.1,0.3-0.3,0.4L50.8,47.6L50.8,47.6z"/>
</g>
<g id="XMLID_102_">
	<path id="XMLID_842_" class="st10" d="M48.6,46c-0.2,0-0.3-0.1-0.3-0.3s0.1-0.3,0.3-0.4l13.9-1.5c0.2,0,0.3,0.1,0.4,0.3
		c0,0.2-0.1,0.3-0.3,0.4L48.6,46L48.6,46z"/>
</g>
<g id="XMLID_101_">
	<path id="XMLID_841_" class="st10" d="M46.6,44.2c-0.2,0-0.3-0.1-0.3-0.3s0.1-0.3,0.3-0.4L63,41.9c0.2,0,0.3,0.1,0.4,0.3
		c0,0.2-0.1,0.3-0.3,0.4L46.6,44.2L46.6,44.2z"/>
</g>
<path id="XMLID_46_" class="st12" d="M21.1,19.4c-1.4-0.4-2.8-0.4-4,0.1l0,0l0,0l0,0l0,0l0,0l0,0l0,0l0,0l0,0l0,0l0,0l0,0l0,0l0,0
	l0,0l0,0l0,0l0,0l0,0l0,0l0,0l0,0l0,0l0,0l0,0l0,0l0,0l0,0l0,0l0,0l0,0l0,0l0,0l0,0l0,0l0,0l0,0l0,0l0,0l0,0l0,0l0,0l0,0l0,0l0,0
	l0,0l0,0l0,0l0,0l0,0l0,0l0,0l0,0l0,0l0,0l0,0l0,0l0,0l0,0l0,0l0,0l0,0l0,0l0,0l0,0l0,0l0,0l0,0l0,0l0,0l0,0l0,0l0,0l0,0l0,0l0,0
	l0,0l0,0l0,0l0,0l0,0l0,0l0,0l0,0l0,0l0,0l0,0l0,0l0,0l0,0l0,0l0,0l0,0l0,0l0,0l0,0l0,0l0,0l0,0l0,0c-1.6,0.6-2.9,1.9-3.5,3.7
	c-1,3.1,0.7,6.5,3.8,7.5c1.4,0.4,2.8,0.4,4-0.1l0,0l0,0l0,0l0,0l0,0l0,0l0,0l0,0l0,0l0,0l0,0l0,0l0,0l0,0l0,0l0,0l0,0l0,0l0,0l0,0
	l0,0l0,0l0,0l0,0l0,0l0,0l0,0l0,0l0,0l0,0l0,0l0,0l0,0l0,0l0,0l0,0l0,0l0,0l0,0l0,0l0,0l0,0l0,0l0,0l0,0l0,0l0,0l0,0l0,0l0,0l0,0
	l0,0l0,0l0,0l0,0l0,0l0,0l0,0l0,0l0,0l0,0l0,0l0,0l0,0l0,0l0,0l0,0l0,0l0,0l0,0l0,0l0,0l0,0l0,0l0,0l0,0l0,0l0,0l0,0l0,0l0,0l0,0
	l0,0l0,0l0,0l0,0l0,0l0,0l0,0l0,0l0,0l0,0l0,0l0,0l0,0l0,0l0,0l0,0l0,0l0,0c1.6-0.6,2.9-1.9,3.5-3.7C25.9,23.8,24.2,20.4,21.1,19.4z
	"/>
<g id="XMLID_32_">
	
		<ellipse id="XMLID_740_" transform="matrix(0.3079 -0.9514 0.9514 0.3079 -10.5971 35.6697)" class="st5" cx="19.2" cy="25.1" rx="6" ry="6"/>
</g>
<g id="XMLID_213_">
	<g id="XMLID_37_">
		<path id="XMLID_739_" class="st1" d="M16.6,23.3c0.1-0.4,0.6-0.8,1-0.6c0.5,0.1,0.6,0.7,0.5,1.1c-0.1,0.3,0.3,0.4,0.4,0.1
			c0.2-0.7-0.1-1.5-0.8-1.7c-0.7-0.2-1.4,0.3-1.6,0.9C16.1,23.5,16.5,23.6,16.6,23.3L16.6,23.3z"/>
	</g>
</g>
<g id="XMLID_215_">
	<g id="XMLID_35_">
		<path id="XMLID_738_" class="st1" d="M21,24.7c0.1-0.4,0.6-0.8,1-0.6c0.5,0.1,0.6,0.7,0.5,1.1c-0.1,0.3,0.3,0.4,0.4,0.1
			c0.2-0.7-0.1-1.5-0.8-1.7c-0.7-0.2-1.4,0.3-1.6,0.9C20.4,24.9,20.9,25,21,24.7L21,24.7z"/>
	</g>
</g>
<g id="XMLID_225_">
	<g id="XMLID_34_">
		<path id="XMLID_737_" class="st1" d="M17,25.4c-0.3,1.1,0.2,2.2,1.3,2.5c1.1,0.3,2.2-0.3,2.5-1.4c0.1-0.3-0.3-0.4-0.4-0.1
			c-0.7,1.9-3.5,1-2.9-0.9C17.6,25.2,17.1,25.1,17,25.4L17,25.4z"/>
	</g>
</g>
<g id="XMLID_217_" class="st13">
	
		<ellipse id="XMLID_736_" transform="matrix(0.3079 -0.9514 0.9514 0.3079 -10.4111 40.0051)" class="st1" cx="22.3" cy="27.2" rx="0.9" ry="0.9"/>
</g>
<g id="XMLID_232_" class="st13">
	
		<ellipse id="XMLID_735_" transform="matrix(0.3079 -0.9514 0.9514 0.3079 -12.9478 32.1901)" class="st1" cx="15.7" cy="25" rx="0.9" ry="0.9"/>
</g>
<linearGradient id="XMLID_10_" gradientUnits="userSpaceOnUse" x1="74.123" y1="75.2" x2="85.377" y2="75.2">
	<stop  offset="0" style="stop-color:#86B8E0"/>
	<stop  offset="0.1163" style="stop-color:#98C4E7"/>
	<stop  offset="0.3255" style="stop-color:#B2D6F2"/>
	<stop  offset="0.5401" style="stop-color:#C5E2F9"/>
	<stop  offset="0.7615" style="stop-color:#D0EAFE"/>
	<stop  offset="1" style="stop-color:#D4ECFF"/>
</linearGradient>
<path id="XMLID_29_" class="st14" d="M83.8,79.1L83.8,79.1L83.8,79.1C83.8,79.1,83.9,79.1,83.8,79.1C83.9,79.1,83.9,79.1,83.8,79.1
	C83.9,79.1,83.9,79.1,83.8,79.1C83.9,79.1,83.9,79.1,83.8,79.1C83.9,79.1,83.9,79.1,83.8,79.1C83.9,79,83.9,79,83.8,79.1
	C83.9,79,83.9,79,83.8,79.1C83.9,79,83.9,79,83.8,79.1C83.9,79,83.9,79,83.8,79.1C83.9,79,83.9,79,83.8,79.1L83.8,79.1L83.8,79.1
	L83.8,79.1L83.8,79.1L83.8,79.1L83.8,79.1L83.8,79.1L83.8,79.1L83.8,79.1L83.8,79.1L83.8,79.1L83.8,79.1L83.8,79.1L83.8,79.1
	L83.8,79.1L83.8,79.1L83.8,79.1L83.8,79.1L83.8,79.1L83.8,79.1L83.8,79.1L83.8,79.1L83.8,79.1L83.8,79.1L83.8,79.1L83.8,79.1
	L83.8,79.1L83.8,79.1L83.8,79.1L83.8,79.1L83.8,79.1L83.8,79.1L83.8,79.1L83.8,79.1L83.8,79.1L83.8,79.1L83.8,79.1L83.8,79.1
	L83.8,79.1L83.8,79.1L83.8,79.1L83.8,79.1L83.8,79.1L83.8,79.1L83.8,79.1L83.8,79.1L83.8,79.1L83.8,79.1L83.8,79.1L83.8,79.1
	L83.8,79.1L83.8,79.1L83.8,79.1L83.8,79.1L83.8,79.1L83.8,79.1L83.8,79.1L83.8,79.1L83.8,79.1L83.8,79.1L83.8,79.1L83.8,79.1
	L83.8,79.1L83.8,79.1L83.8,79.1L83.8,79.1L83.8,79.1L83.8,79.1L83.8,79.1L83.8,79.1L83.8,79.1L83.8,79.1L83.8,79.1L83.8,79.1
	L83.8,79.1L83.8,79.1L83.8,79.1L83.8,79.1L83.8,79.1L83.8,79.1L83.8,79.1L83.8,79.1L83.8,79.1L83.8,79.1L83.8,79.1L83.8,79.1
	L83.8,79.1c1.2-1.3,1.8-2.9,1.5-4.7c-0.4-3.1-3.2-5.2-6.3-4.8c-1.3,0.2-2.5,0.8-3.4,1.8l0,0l0,0l0,0l0,0l0,0l0,0l0,0l0,0l0,0l0,0
	l0,0l0,0l0,0l0,0l0,0l0,0l0,0l0,0l0,0l0,0l0,0l0,0l0,0l0,0l0,0l0,0l0,0l0,0l0,0l0,0l0,0l0,0l0,0l0,0l0,0l0,0l0,0l0,0l0,0l0,0l0,0
	l0,0l0,0l0,0l0,0l0,0l0,0l0,0l0,0l0,0l0,0l0,0l0,0l0,0l0,0l0,0l0,0l0,0l0,0l0,0l0,0l0,0l0,0l0,0l0,0l0,0l0,0l0,0l0,0l0,0l0,0l0,0
	l0,0l0,0l0,0l0,0l0,0l0,0l0,0l0,0l0,0l0,0l0,0l0,0l0,0l0,0l0,0l0,0l0,0l0,0l0,0l0,0l0,0l0,0l0,0l0,0l0,0l0,0l0,0l0,0
	c-1.1,1.2-1.7,2.8-1.4,4.6c0.4,3.1,3.2,5.2,6.3,4.8C81.8,80.7,83,80,83.8,79.1L83.8,79.1z"/>
<g id="XMLID_182_">
	
		<ellipse id="XMLID_634_" transform="matrix(0.9909 -0.1346 0.1346 0.9909 -9.2818 11.5118)" class="st5" cx="80.5" cy="74.4" rx="5.6" ry="5.6"/>
</g>
<g id="XMLID_257_">
	<path id="XMLID_633_" class="st15" d="M77.2,75.2l6.6-0.9c0,0,0.3,3.1-2.9,3.5C77.8,78.2,77.2,75.2,77.2,75.2z"/>
</g>
<g id="XMLID_261_" class="st7">
	<g id="XMLID_33_">
		<path id="XMLID_632_" class="st8" d="M78.4,73.6c1,0,1-1.5,0-1.5S77.4,73.6,78.4,73.6L78.4,73.6z"/>
	</g>
</g>
<g id="XMLID_264_" class="st7">
	<g id="XMLID_31_">
		<path id="XMLID_631_" class="st8" d="M82,73.1c1,0,1-1.5,0-1.5S81,73.1,82,73.1L82,73.1z"/>
	</g>
</g>
<linearGradient id="XMLID_11_" gradientUnits="userSpaceOnUse" x1="24.2206" y1="81.65" x2="34.0155" y2="81.65">
	<stop  offset="0" style="stop-color:#86B8E0"/>
	<stop  offset="0.1163" style="stop-color:#98C4E7"/>
	<stop  offset="0.3255" style="stop-color:#B2D6F2"/>
	<stop  offset="0.5401" style="stop-color:#C5E2F9"/>
	<stop  offset="0.7615" style="stop-color:#D0EAFE"/>
	<stop  offset="1" style="stop-color:#D4ECFF"/>
</linearGradient>
<path id="XMLID_54_" class="st16" d="M33.8,80.3c-0.2-0.6-0.4-1.1-0.8-1.5l0,0l0,0l0,0l0,0l0,0l0,0l0,0l0,0l0,0l0,0l0,0l0,0l0,0l0,0
	l0,0l0,0l0,0l0,0l0,0l0,0l0,0l0,0l0,0l0,0l0,0l0,0l0,0l0,0l0,0l0,0l0,0l0,0l0,0l0,0l0,0l0,0l0,0l0,0l0,0l0,0l0,0l0,0l0,0l0,0l0,0
	l0,0l0,0l0,0l0,0l0,0l0,0l0,0l0,0l0,0l0,0l0,0l0,0l0,0l0,0l0,0l0,0l0,0l0,0l0,0l0,0l0,0l0,0l0,0l0,0l0,0l0,0l0,0l0,0l0,0l0,0l0,0
	l0,0l0,0l0,0l0,0l0,0l0,0l0,0l0,0l0,0l0,0l0,0l0,0l0,0l0,0l0,0l0,0l0,0l0,0l0,0l0,0l0,0l0,0l0,0l0,0c-1.2-1.6-3.3-2.4-5.3-1.8
	c-2.6,0.8-4,3.5-3.3,6c0.2,0.6,0.4,1.1,0.8,1.5l0,0l0,0l0,0l0,0l0,0l0,0l0,0l0,0l0,0l0,0l0,0l0,0l0,0l0,0l0,0l0,0l0,0l0,0l0,0l0,0
	l0,0l0,0l0,0l0,0l0,0l0,0l0,0l0,0l0,0l0,0l0,0l0,0l0,0l0,0l0,0l0,0l0,0l0,0l0,0l0,0l0,0l0,0l0,0l0,0l0,0l0,0l0,0l0,0l0,0l0,0l0,0
	l0,0l0,0l0,0l0,0l0,0l0,0l0,0l0,0l0,0l0,0l0,0l0,0l0,0l0,0l0,0l0,0l0,0l0,0l0,0l0,0l0,0l0,0l0,0l0,0l0,0l0,0l0,0l0,0l0,0l0,0l0,0
	l0,0l0,0l0,0l0,0l0,0l0,0l0,0l0,0l0,0l0,0l0,0l0,0l0,0l0,0l0,0l0,0l0,0l0,0c1.2,1.6,3.3,2.4,5.3,1.8C33.1,85.6,34.6,82.9,33.8,80.3z
	"/>
<g id="XMLID_131_">
	
		<ellipse id="XMLID_523_" transform="matrix(0.9594 -0.282 0.282 0.9594 -21.7048 11.3865)" class="st5" cx="28.7" cy="81.1" rx="4.9" ry="4.9"/>
</g>
<g id="XMLID_269_" class="st7">
	<g id="XMLID_270_">
		<path id="XMLID_522_" class="st8" d="M29.2,83.6c0.1,0,0.3,0,0.4,0c0.3-0.1,0.5-0.3,0.6-0.6c0.4-0.7,0.7-1.5,0.8-2.3
			c0.1-0.5,0.1-1.1-0.2-1.5c-0.3-0.5-1-0.7-1.5-0.5c-0.6,0.2-0.9,0.6-1,1.1c-0.3-0.5-1.2-0.6-1.7-0.4c-1.1,0.6-0.8,1.8-0.2,2.7
			c0.4,0.5,0.9,0.9,1.4,1.2C28.1,83.3,28.7,83.6,29.2,83.6z"/>
	</g>
</g>
<linearGradient id="XMLID_12_" gradientUnits="userSpaceOnUse" x1="77.981" y1="48.2" x2="90.019" y2="48.2">
	<stop  offset="0" style="stop-color:#86B8E0"/>
	<stop  offset="0.1163" style="stop-color:#98C4E7"/>
	<stop  offset="0.3255" style="stop-color:#B2D6F2"/>
	<stop  offset="0.5401" style="stop-color:#C5E2F9"/>
	<stop  offset="0.7615" style="stop-color:#D0EAFE"/>
	<stop  offset="1" style="stop-color:#D4ECFF"/>
</linearGradient>
<path id="XMLID_28_" class="st17" d="M86.9,42.7l-4.5-0.5c-1-0.1-1.9,0.2-2.6,0.7l0,0l0,0l0,0l0,0l0,0l0,0l0,0l0,0l0,0l0,0l0,0l0,0
	l0,0l0,0l0,0l0,0l0,0l0,0l0,0l0,0l0,0l0,0l0,0l0,0l0,0l0,0l0,0l0,0l0,0l0,0l0,0l0,0l0,0l0,0l0,0l0,0l0,0l0,0l0,0l0,0l0,0l0,0l0,0
	l0,0l0,0l0,0l0,0l0,0l0,0l0,0l0,0l0,0l0,0l0,0l0,0l0,0l0,0l0,0l0,0l0,0l0,0l0,0l0,0l0,0l0,0l0,0l0,0l0,0l0,0l0,0l0,0l0,0l0,0l0,0
	l0,0l0,0l0,0l0,0l0,0l0,0l0,0l0,0l0,0l0,0l0,0l0,0l0,0l0,0l0,0l0,0l0,0l0,0l0,0l0,0l0,0l0,0l0,0l0,0l0,0l0,0
	c-0.7,0.6-1.2,1.4-1.3,2.4L78,49.8c-0.2,1.9,1.2,3.7,3.1,3.9l4.5,0.5c1,0.1,1.9-0.2,2.6-0.7l0,0l0,0l0,0l0,0l0,0l0,0l0,0l0,0l0,0
	l0,0l0,0l0,0l0,0l0,0l0,0l0,0l0,0l0,0l0,0l0,0l0,0l0,0l0,0l0,0l0,0l0,0l0,0l0,0l0,0l0,0l0,0l0,0l0,0l0,0l0,0l0,0l0,0l0,0l0,0l0,0
	l0,0l0,0l0,0l0,0l0,0l0,0l0,0l0,0l0,0l0,0l0,0l0,0l0,0l0,0l0,0l0,0l0,0l0,0l0,0l0,0l0,0l0,0l0,0l0,0l0,0l0,0l0,0l0,0l0,0l0,0l0,0
	l0,0l0,0l0,0l0,0l0,0l0,0l0,0l0,0l0,0l0,0l0,0l0,0l0,0l0,0l0,0l0,0l0,0l0,0l0,0l0,0l0,0l0,0l0,0l0,0l0,0l0,0l0,0l0,0l0,0
	c0.7-0.6,1.2-1.4,1.3-2.4l0.5-4.5C90.2,44.7,88.8,42.9,86.9,42.7z"/>
<g id="XMLID_140_">
	<path id="XMLID_390_" class="st5" d="M83.3,53.9L83.3,53.9c-3.2-0.4-5.4-3.2-5.1-6.4l0,0c0.4-3.2,3.2-5.4,6.4-5.1l0,0
		c3.2,0.4,5.4,3.2,5.1,6.4l0,0C89.3,52,86.5,54.3,83.3,53.9z"/>
</g>
<linearGradient id="XMLID_13_" gradientUnits="userSpaceOnUse" x1="80.8" y1="48.05" x2="87" y2="48.05">
	<stop  offset="0" style="stop-color:#86B8E0"/>
	<stop  offset="0.1163" style="stop-color:#98C4E7"/>
	<stop  offset="0.3255" style="stop-color:#B2D6F2"/>
	<stop  offset="0.5401" style="stop-color:#C5E2F9"/>
	<stop  offset="0.7615" style="stop-color:#D0EAFE"/>
	<stop  offset="1" style="stop-color:#D4ECFF"/>
</linearGradient>
<path id="XMLID_52_" class="st18" d="M86.1,45.3c-1.2-1.2-3.2-1.2-4.4,0c-1.2,1.2-1.2,3.2,0,4.4c0.3,0.3,0.7,0.6,1.2,0.7l0.5,1.3
	l0.9-1.2c0.6-0.1,1.3-0.4,1.8-0.9C87.3,48.4,87.3,46.5,86.1,45.3z"/>
<g id="XMLID_283_">
	<g id="XMLID_284_">
		<linearGradient id="XMLID_14_" gradientUnits="userSpaceOnUse" x1="83.3" y1="47.4476" x2="84.6695" y2="47.4476">
			<stop  offset="0" style="stop-color:#86B8E0"/>
			<stop  offset="0.1163" style="stop-color:#98C4E7"/>
			<stop  offset="0.3255" style="stop-color:#B2D6F2"/>
			<stop  offset="0.5401" style="stop-color:#C5E2F9"/>
			<stop  offset="0.7615" style="stop-color:#D0EAFE"/>
			<stop  offset="1" style="stop-color:#D4ECFF"/>
		</linearGradient>
		<path id="XMLID_387_" class="st19" d="M83.3,48.7c0-0.1,0-0.1,0.1-0.2c0-0.1,0.1-0.1,0.1-0.1s0.1-0.1,0.2-0.1s0.1,0,0.2,0
			s0.1,0,0.2,0.1c0.1,0,0.1,0.1,0.1,0.1s0.1,0.1,0.1,0.2c0,0.1,0,0.1,0,0.2c0,0.1,0,0.1-0.1,0.2c0,0.1-0.1,0.1-0.1,0.1
			s-0.1,0.1-0.2,0.1s-0.1,0-0.2,0s-0.1,0-0.2-0.1c-0.1,0-0.1-0.1-0.1-0.1s-0.1-0.1-0.1-0.2S83.3,48.8,83.3,48.7z M84.1,47.9
			c-0.1,0.2-0.4,0.2-0.4,0c-0.2-0.9-0.4-2.4,0.5-2.3C85.1,45.6,84.5,47.1,84.1,47.9z"/>
	</g>
</g>
<linearGradient id="XMLID_15_" gradientUnits="userSpaceOnUse" x1="45.923" y1="7.8" x2="54.3768" y2="7.8">
	<stop  offset="0" style="stop-color:#86B8E0"/>
	<stop  offset="0.1163" style="stop-color:#98C4E7"/>
	<stop  offset="0.3255" style="stop-color:#B2D6F2"/>
	<stop  offset="0.5401" style="stop-color:#C5E2F9"/>
	<stop  offset="0.7615" style="stop-color:#D0EAFE"/>
	<stop  offset="1" style="stop-color:#D4ECFF"/>
</linearGradient>
<path id="XMLID_51_" class="st20" d="M52.9,4.7L52.9,4.7L52.9,4.7L52.9,4.7L52.9,4.7L52.9,4.7L52.9,4.7L52.9,4.7L52.9,4.7L52.9,4.7
	L52.9,4.7C52.9,4.6,52.9,4.6,52.9,4.7C52.8,4.6,52.8,4.6,52.9,4.7L52.9,4.7L52.9,4.7L52.9,4.7L52.9,4.7L52.9,4.7L52.9,4.7L52.9,4.7
	L52.9,4.7L52.9,4.7L52.9,4.7L52.9,4.7L52.9,4.7L52.9,4.7L52.9,4.7L52.9,4.7L52.9,4.7L52.9,4.7L52.9,4.7L52.9,4.7L52.9,4.7L52.9,4.7
	L52.9,4.7L52.9,4.7L52.9,4.7L52.9,4.7L52.9,4.7L52.9,4.7L52.9,4.7L52.9,4.7L52.9,4.7L52.9,4.7L52.9,4.7L52.9,4.7L52.9,4.7L52.9,4.7
	L52.9,4.7L52.9,4.7L52.9,4.7L52.9,4.7L52.9,4.7L52.9,4.7L52.9,4.7L52.9,4.7L52.9,4.7L52.9,4.7L52.9,4.7L52.9,4.7L52.9,4.7L52.9,4.7
	L52.9,4.7L52.9,4.7L52.9,4.7L52.9,4.7L52.9,4.7L52.9,4.7L52.9,4.7L52.9,4.7L52.9,4.7L52.9,4.7L52.9,4.7L52.9,4.7L52.9,4.7L52.9,4.7
	L52.9,4.7L52.9,4.7L52.9,4.7L52.9,4.7L52.9,4.7L52.9,4.7L52.9,4.7L52.9,4.7L52.9,4.7L52.9,4.7L52.9,4.7L52.9,4.7L52.9,4.7L52.9,4.7
	L52.9,4.7L52.9,4.7L52.9,4.7L52.9,4.7L52.9,4.7L52.9,4.7L52.9,4.7L52.9,4.7L52.9,4.7L52.9,4.7L52.9,4.7c-0.6-0.5-1.2-0.8-2-1
	c-2.3-0.5-4.5,1-4.9,3.3c-0.3,1.6,0.3,3.1,1.4,4l0,0l0,0l0,0l0,0l0,0l0,0l0,0l0,0l0,0l0,0l0,0l0,0l0,0l0,0l0,0l0,0l0,0l0,0l0,0l0,0
	l0,0l0,0l0,0l0,0l0,0l0,0l0,0l0,0l0,0l0,0l0,0l0,0l0,0l0,0l0,0l0,0l0,0l0,0l0,0l0,0l0,0l0,0l0,0l0,0l0,0l0,0l0,0l0,0l0,0l0,0l0,0
	l0,0l0,0l0,0l0,0l0,0l0,0l0,0l0,0l0,0l0,0l0,0l0,0l0,0l0,0l0,0l0,0l0,0l0,0l0,0l0,0l0,0l0,0l0,0l0,0l0,0l0,0l0,0l0,0l0,0l0,0l0,0
	l0,0l0,0l0,0l0,0l0,0l0,0l0,0l0,0l0,0l0,0l0,0l0,0l0,0l0,0l0,0l0,0l0,0l0,0c0.5,0.4,1.1,0.7,1.9,0.9c2.3,0.5,4.5-1,4.9-3.3
	C54.7,7.2,54.1,5.7,52.9,4.7z"/>
<g id="XMLID_136_">
	
		<ellipse id="XMLID_242_" transform="matrix(0.197 -0.9804 0.9804 0.197 32.5506 54.3086)" class="st5" cx="49.4" cy="7.3" rx="4.2" ry="4.2"/>
</g>
<g id="XMLID_332_" class="st7">
	<g id="XMLID_308_">
		<path id="XMLID_240_" class="st8" d="M48.2,7.5c0-0.1-0.2-0.2-0.3-0.1h-0.1c-0.4,0.1-0.8,0.2-1,0.5c-0.2,0.3-0.2,0.7,0.1,0.9
			s0.8,0.1,1-0.2C48.1,8.3,48.3,7.9,48.2,7.5z"/>
	</g>
	<g id="XMLID_311_">
		<path id="XMLID_239_" class="st8" d="M51.2,7.6c0-0.1-0.2-0.2-0.3-0.1h-0.1c-0.4,0.1-0.8,0.2-1,0.5s-0.2,0.7,0.1,0.9
			s0.8,0.1,1-0.2C51.2,8.4,51.3,8,51.2,7.6z"/>
	</g>
	<g id="XMLID_331_">
		<path id="XMLID_238_" class="st8" d="M51.6,5.2C51.6,5.1,51.6,5.1,51.6,5.2C51.6,5,51.5,5,51.5,5h-0.1c-0.5,0.2-1.1,0.3-1.7,0.2
			c-0.3,0-0.6-0.1-0.9-0.1c-0.2,0-0.5-0.2-0.6,0.1l0,0v0.1c0,0.7-0.2,1.4-0.5,2.1c-0.1,0.3,0.3,0.4,0.4,0.1c0.2-0.6,0.4-1.1,0.5-1.7
			c0.9,0.2,1.8,0.2,2.6,0c0,0.6-0.2,1.2-0.5,1.8C50.6,7.8,51,8,51.1,7.7C51.5,6.9,51.7,6.1,51.6,5.2z"/>
	</g>
</g>
<linearGradient id="XMLID_16_" gradientUnits="userSpaceOnUse" x1="12.3797" y1="63.45" x2="23.4203" y2="63.45">
	<stop  offset="0" style="stop-color:#86B8E0"/>
	<stop  offset="0.1163" style="stop-color:#98C4E7"/>
	<stop  offset="0.3255" style="stop-color:#B2D6F2"/>
	<stop  offset="0.5401" style="stop-color:#C5E2F9"/>
	<stop  offset="0.7615" style="stop-color:#D0EAFE"/>
	<stop  offset="1" style="stop-color:#D4ECFF"/>
</linearGradient>
<path id="XMLID_50_" class="st21" d="M23.4,65L23,60.9c-0.1-0.9-0.5-1.7-1.2-2.2l0,0l0,0l0,0l0,0l0,0l0,0l0,0l0,0l0,0l0,0l0,0l0,0
	l0,0l0,0l0,0l0,0l0,0l0,0l0,0l0,0l0,0l0,0l0,0l0,0l0,0l0,0l0,0l0,0l0,0l0,0l0,0l0,0l0,0l0,0l0,0l0,0l0,0l0,0l0,0l0,0l0,0l0,0l0,0
	l0,0l0,0l0,0l0,0l0,0l0,0l0,0l0,0l0,0l0,0l0,0l0,0l0,0l0,0l0,0l0,0l0,0l0,0l0,0l0,0l0,0l0,0l0,0l0,0l0,0l0,0l0,0l0,0l0,0l0,0l0,0
	l0,0l0,0l0,0l0,0l0,0l0,0l0,0l0,0l0,0l0,0l0,0l0,0l0,0l0,0l0,0l0,0l0,0l0,0l0,0l0,0l0,0l0,0l0,0l0,0l0,0l0,0
	c-0.6-0.5-1.5-0.8-2.4-0.7l-4.1,0.4c-1.8,0.2-3.1,1.7-2.9,3.5l0.4,4.1c0.1,0.9,0.5,1.7,1.2,2.2l0,0l0,0l0,0l0,0l0,0l0,0l0,0l0,0l0,0
	l0,0l0,0l0,0l0,0l0,0l0,0l0,0l0,0l0,0l0,0l0,0l0,0l0,0l0,0l0,0l0,0l0,0l0,0l0,0l0,0l0,0l0,0l0,0l0,0l0,0l0,0l0,0l0,0l0,0l0,0l0,0
	l0,0l0,0l0,0l0,0l0,0l0,0l0,0l0,0l0,0l0,0l0,0l0,0l0,0l0,0l0,0l0,0l0,0l0,0l0,0l0,0l0,0l0,0l0,0l0,0l0,0l0,0l0,0l0,0l0,0l0,0l0,0
	l0,0l0,0l0,0l0,0l0,0l0,0l0,0l0,0l0,0l0,0l0,0l0,0l0,0l0,0l0,0l0,0l0,0l0,0l0,0l0,0l0,0l0,0l0,0l0,0l0,0l0,0l0,0l0,0l0,0
	c0.6,0.5,1.5,0.8,2.4,0.7l4.1-0.4C22.3,68.4,23.6,66.8,23.4,65z"/>
<g id="XMLID_194_">
	<path id="XMLID_92_" class="st5" d="M17.5,68L17.5,68c-2.9,0.3-5.5-1.8-5.8-4.8l0,0c-0.3-2.9,1.8-5.5,4.8-5.8l0,0
		c2.9-0.3,5.5,1.8,5.8,4.8l0,0C22.5,65.1,20.4,67.7,17.5,68z"/>
</g>
<g id="XMLID_339_" class="st7">
	<g id="XMLID_341_">
		<path id="XMLID_90_" class="st8" d="M16.4,60.5c0.3,0,0.5,0,0.7,0.1v-0.2c0.1-0.1,0.6-0.1,0.6-0.1l0.1,0.8c0,0.3,0.1,0.6,0.1,0.9
			c0.1,0.9,0.1,1.5,0.4,2.1c0.3,0.3,0.7,0,0.8-0.3c0.2-0.4,0.1-1.8,0-2.1c-0.2-0.8-0.7-1.7-1.6-2c-0.3-0.1-0.7-0.1-1.1,0
			c-0.6,0.1-1.1,0.3-1.4,0.7c-0.6,0.7-0.5,1.4-0.4,2.3c0,0.2,0.1,0.6,0.1,0.9c0.1,0.6,0.4,1.2,0.9,1.6c0.4,0.2,0.9,0.4,1.4,0.4
			c0.4,0,0.6-0.1,0.7,0.3c0,0.1,0,0.1-0.1,0.1h-0.1c-0.3,0.1-0.9,0-1.3-0.1H16l0,0c-1.1-0.2-1.6-1.1-1.7-2.1c-0.2-1.5-0.5-3,0.9-4
			c0.3-0.2,0.8-0.4,1.2-0.4c0.4-0.1,0.8,0,1.1,0l0,0c0.8,0.2,1.5,0.9,1.7,1.6c0.2,0.4,0.3,0.8,0.3,1.2c0.1,0.4,0.1,0.9,0,1.3
			c0,0.5-0.3,1.3-0.9,1.4c-0.8,0.2-0.7,0-1-0.3c-0.2,0.2-0.5,0.3-0.6,0.3c-0.2,0-0.4,0-0.6-0.1c-0.6-0.3-1-1.1-1.1-1.9
			c-0.1-0.5,0-1.1,0-1.4C15.6,60.9,16,60.5,16.4,60.5z M17.2,61.4c-0.2-0.1-0.3-0.3-0.7-0.2c-0.4,0.1-0.5,0.9-0.4,1.7
			c0.1,0.6,0.8,1.9,1.4,0.8L17.2,61.4z"/>
	</g>
</g>
</svg>
