<?xml version="1.0" encoding="utf-8"?>
<!-- Generator: Adobe Illustrator 21.0.0, SVG Export Plug-In . SVG Version: 6.00 Build 0)  -->
<svg version="1.1" xmlns="http://www.w3.org/2000/svg" xmlns:xlink="http://www.w3.org/1999/xlink" x="0px" y="0px"
	 viewBox="0 0 100 100" style="enable-background:new 0 0 100 100;" xml:space="preserve">
<style type="text/css">
	.st0{fill:#E7F0F0;}
	.st1{fill:#B6D0FB;stroke:#405B91;stroke-width:0.25;stroke-miterlimit:10;}
	.st2{fill:#7DC3EA;stroke:#405B91;stroke-width:0.25;stroke-miterlimit:10;}
	.st3{fill:#50AA50;stroke:#348E0E;stroke-width:0.25;stroke-miterlimit:10;}
</style>
<g id="Layer_2">
</g>
<g id="Layer_3">
	<path class="st0" d="M88.3,61c0,0,21.8-29.9-23.7-38.6s-43.1,7-43.1,7s3,9.7-10.2,14s4.3,38.8,17,36.7c12.7-2.2,47.5,0,47.5,0
		S91.3,82.3,88.3,61z"/>
</g>
<g id="Layer_5">
	<circle class="st1" cx="49.2" cy="53.7" r="24.9"/>
	<g>
		<path class="st2" d="M58.2,74.3L58.2,74.3C58.2,74.3,58.2,74.3,58.2,74.3c0,0.1,0,0.1,0,0.1l0,0.1l0,0l0,0l0,0c0,0,0,0,0,0v0
			l0,0.1l0,0l0,0l0.1,0l0,0l0,0l0.1,0l0.1,0l0.1-0.1c0,0,0,0,0,0l0.1,0c0,0,0,0,0,0l0.2-0.1l0,0l0.1,0l0,0l0-0.1l0,0l0.1-0.1l0-0.1
			l0-0.1l0,0l0.1-0.1l0,0c0.1-0.1,0.2-0.2,0.3-0.4l0-0.1c0.1-0.1,0.1-0.1,0.3-0.4l0.1-0.1l0.1-0.1l0.1-0.1c0.1-0.1,0.2-0.2,0.2-0.4
			l0,0c0,0,0,0,0,0l0,0l0.1,0l0,0l0,0l0,0l0,0l0.1-0.1l0,0l0,0c0,0,0,0,0,0l0,0c0,0,0,0,0,0l0,0c0,0,0,0,0,0l0,0l0-0.1l0,0l0,0
			l0-0.1l0,0c0,0,0,0,0,0l0,0l0,0l0,0l0,0c0,0,0,0,0,0l0.1-0.1l0.1-0.1l0-0.1c0-0.1,0-0.1,0.1-0.3l0-0.1l0,0l0,0l0,0l0-0.1l0,0l0,0
			l0-0.1c0,0,0,0,0,0l0-0.1l-0.1,0l0,0l0,0L61.1,71l0,0.1l0,0.1c0,0,0,0,0,0l0,0l-0.1,0.1l0,0l0,0l0,0c0,0,0,0,0,0c0,0,0-0.1,0-0.1
			c0,0,0,0,0,0l0,0l0,0.1l0,0l0,0v0l0,0l0,0l-0.1,0.1v0l0,0l-0.1,0l0,0l-0.1,0l0,0l0,0l0,0l0,0c0,0,0,0,0,0l0,0l0,0.1l0,0l0,0
			c0,0,0,0,0,0l-0.1,0.1l0,0.1l0,0.1c0,0,0,0,0,0l0,0l0,0l0,0l-0.1,0l0,0l0,0l-0.1,0.1v0l0,0l-0.1,0l0,0c0,0,0,0,0,0l0,0l-0.1,0
			l-0.1,0l0,0l0,0l0,0l0,0l0,0l0,0l0,0c0,0,0,0,0,0l0,0l-0.1,0l0,0c0,0,0,0,0,0l0,0c0,0,0,0,0,0l0,0l0,0l0,0l0,0l0,0l-0.1,0.1
			l-0.1,0.1l0,0l0,0l-0.1,0.1l-0.1,0.1c0,0,0,0,0,0l0,0.1l0,0.1l0,0l0,0l0,0l0,0.1l0,0l0,0l0,0l0,0l0,0.1l0,0.1l-0.1,0.1l-0.1,0.1
			l0,0l-0.1,0.1l-0.1,0l-0.1,0.1l0,0l-0.1,0.1l0,0.1c0,0,0,0,0,0l0,0l0,0.1l0,0L58.2,74.3L58.2,74.3L58.2,74.3L58.2,74.3L58.2,74.3z
			"/>
		<path class="st2" d="M24.7,58L24.7,58L24.7,58l0-0.1c0,0,0,0,0,0l0-0.1l0-0.1l0-0.1l0-0.1c0,0,0,0,0,0c0,0,0,0,0,0l0,0l0,0l0-0.1
			l0-0.1l0-0.1l0-0.1l0-0.1l0,0l0-0.1c0,0,0,0,0,0l0,0h0h0l0,0l0,0c0,0,0,0,0,0c0,0,0,0,0,0c0,0,0,0,0,0c0-0.1,0-0.2,0-0.2l0-0.1
			l0,0c0,0,0,0,0,0l0,0l0,0C24.5,56.9,24.6,57.4,24.7,58L24.7,58z"/>
		<path class="st2" d="M74.1,55.2l0-0.1l0-0.1l0-0.1c0,0,0,0,0,0l0-0.1l0,0c0-0.3,0-0.7,0-1c0-2.4-0.3-4.7-1-6.8v0l0,0.1l0,0l0,0
			l0,0l0,0l0,0l0-0.1l0-0.1l0,0c0,0,0,0,0,0l0,0l0,0l0,0l0,0l0-0.1l0,0l0-0.1c0,0,0-0.1,0-0.1l0,0l0,0l0,0l0-0.1l0,0l0-0.1l0-0.2
			l0,0l0,0c-0.6-1.8-1.4-3.5-2.3-5.1l0,0l-0.1-0.1c0,0,0,0,0,0h0c0,0,0,0,0,0v0c0,0,0,0,0,0l0,0l-0.1-0.1l0,0l0,0c0,0,0,0,0,0l0,0.1
			l0,0l0,0l0,0l0,0l0,0l0,0l0,0v0l0,0l0-0.1l0-0.1l0,0c0,0,0,0,0,0l0-0.1l0,0l-0.1-0.1l0,0l-0.1-0.1c0,0,0,0,0,0L70,40.1l0-0.1
			l0-0.1l-0.1-0.2l0,0l0,0l0-0.1l-0.1-0.1l-0.1-0.1l-0.1-0.1c0,0,0,0,0,0l-0.1-0.1c0,0,0,0,0,0s0,0,0,0l0,0l0,0l0,0l0,0
			c-0.7-1-1.6-2-2.4-2.9c0,0,0,0,0,0l0,0l0,0l0,0l0,0l0,0.1l0,0l0,0l0,0l0,0l0,0l-0.1-0.1l-0.2,0l0,0l0,0l0,0.1c0,0,0,0.1,0,0.1
			c0,0,0,0,0,0l0,0c0,0,0,0,0,0l0,0l0,0l-0.1,0l0,0l0,0l0,0l0,0l0,0l0,0l0,0l0,0c0,0,0,0,0,0l0,0l0,0l0,0c0,0-0.1,0-0.2,0
			c0,0,0,0,0,0.1l0,0l0,0l0,0l0,0l0,0.1c0,0,0,0,0,0l0,0c0,0,0,0,0,0l0,0l0,0l0,0l0,0l0,0c0,0,0,0,0,0l0,0l0,0v0c0,0,0,0,0,0
			c-0.1,0.1-0.2,0.1-0.2,0.1l0,0l0,0l0,0l0,0l0,0l0,0l0,0c0,0,0,0,0,0l0,0l0,0l0,0l0,0l0,0l0.1,0v0l0,0c0,0,0,0,0,0c0,0,0,0,0,0l0,0
			l0,0l0.1,0c0,0,0,0,0,0c0,0,0,0,0,0l0,0l0.1,0.1c0,0,0,0,0,0l0,0l0,0h0l0,0c0,0,0,0,0,0l0,0l0,0l0,0l0,0l0,0l-0.1,0l0,0l0,0l0,0h0
			c0,0,0,0,0,0l0,0l0,0.1v0l-0.1,0l-0.1,0c0,0,0,0-0.1,0c0,0,0,0,0,0l0,0l0.1,0.1l0.1,0l0,0c0,0,0,0,0,0c0,0,0,0,0.1,0.1l0,0l0,0
			l0,0c-0.1,0-0.2,0-0.3-0.1l0,0l-0.1-0.1h0l0,0c0,0,0,0,0,0c0,0,0,0,0,0l-0.1-0.1l0,0l-0.1,0l0,0l0,0l0,0l0,0c0,0,0,0,0,0l0,0
			c0,0,0,0-0.1,0c0.1,0.1,0.3,0.3,0.4,0.4c0,0,0,0,0,0c-0.1-0.1-0.3-0.3-0.4-0.4c0,0-0.1,0-0.1,0l0,0l0,0l0,0l0,0l0,0l0,0l0,0l0,0
			l0,0l0,0l0,0l0,0l0,0c0,0,0,0,0,0l0,0l0,0l0,0l0,0l0,0l0,0v0l0.1,0l0.1,0l0,0l0.1,0l0,0l0,0l0,0c0,0,0,0,0,0l0,0l-0.1,0l0,0l0,0
			c0,0,0,0,0,0l-0.1,0l0,0l0,0c0,0,0,0,0,0l0,0l0,0h0h0l-0.1,0l0,0l0,0c0,0,0,0,0,0l0,0l0,0l0,0l-0.1,0l0,0l0,0c0,0,0,0,0,0
			c0,0,0,0,0,0c0,0,0,0,0,0c0,0,0,0,0,0l-0.1,0l0,0l0,0l0,0l0,0l-0.1-0.1l-0.1,0l0,0l0,0v0c0,0,0,0,0,0l0,0c0,0,0,0,0,0l0,0l0,0
			l-0.1,0l0,0l0,0l0,0l0,0l0-0.1l0,0l-0.1,0c0,0,0,0,0,0h0v0l0,0l0,0l0,0l0,0l0,0l0,0l0,0h0l0,0l0,0l0,0l0,0.1l0,0l0.1,0
			c0,0,0,0,0,0l0,0l0,0l0,0.1l0,0c0,0,0,0,0,0l0,0l0,0l0,0l0,0l0,0c0,0,0,0,0,0l0,0l0,0.1l0,0.1c0,0,0,0,0,0h0l0-0.1l0,0l0,0
			c0,0,0,0,0,0c0,0,0,0,0,0l0,0l0,0l0,0v0l0,0c0,0,0,0,0,0l0,0c0,0,0,0,0,0v0l0-0.1l0,0l0,0l0,0l0-0.1l0,0l0,0l0,0c0,0,0,0,0,0l0,0
			l0,0v0l0,0c0,0,0,0,0,0l0,0l0-0.1l0,0l0,0l0,0l0,0l0,0l0,0l0,0l0,0l0,0l0,0c0,0,0,0,0,0l-0.1,0l0,0l0,0l-0.1,0h0l0,0c0,0,0,0,0,0
			l0,0c0,0,0,0,0,0l-0.1,0l0,0l-0.1,0l-0.1,0c0,0,0,0,0,0c0,0,0,0,0,0c0,0,0,0,0,0l0,0l0,0c0,0,0,0,0,0l0,0l-0.1,0c0,0,0,0,0,0l0,0
			l0,0l0,0l0,0c0,0,0,0,0,0l0,0c0,0,0,0,0,0c0,0,0,0,0,0l0,0l0,0l0,0l0-0.1l0,0l-0.1,0l-0.1,0l0,0c0,0,0,0,0,0l0,0l0,0
			c0,0,0-0.1,0-0.1c0,0,0,0,0,0c0,0,0,0,0,0c0,0,0,0,0,0l0,0l-0.1,0l0,0l-0.1,0l0,0.1l0,0l0,0l0,0l0,0l0,0.1l0,0.1l0,0h0l0,0
			c0,0,0,0,0,0l0,0c0,0,0,0,0,0l0,0c0,0,0,0,0,0l0,0l0,0l0,0l0,0l0,0.1l0,0l0,0l-0.1,0l0,0v0l0,0c0,0,0,0,0,0l0,0l0-0.1l0,0l0,0l0,0
			l0,0l0,0l0,0l0,0l0,0l0,0l0,0l-0.1,0l0,0c0,0,0,0,0,0v0l0,0.1l0,0l0,0l0,0l0,0.1l0,0l-0.1,0.1l0,0c0,0,0,0,0,0l-0.1,0
			c0,0,0,0.1-0.1,0.1l0,0c0,0,0,0,0,0l-0.1,0l0,0.1l0,0l-0.1,0.1l0,0l0,0.1l0,0l0,0l0,0l0,0l0,0l0,0h0l0,0c0,0,0,0,0,0c0,0,0,0,0,0
			c0,0,0,0,0,0c0,0,0,0,0,0l0,0l0,0l0,0c0,0,0,0,0,0l0,0l0,0l0,0l-0.1,0c0,0,0,0,0,0l-0.1,0c-0.2,0-0.2,0-0.3,0.1l0,0l0,0.1l0,0
			l0.1,0l0,0l0,0l0,0l0,0l0.1,0.1l0.1,0c0,0,0,0,0,0l0,0l0,0l0.1,0l0,0l0.1,0h0l0,0l0,0c0,0,0,0,0,0l-0.1,0c-0.1,0-0.1-0.1-0.2-0.1
			l-0.1,0l-0.1,0l-0.1,0l0,0c0,0,0,0-0.1,0l0,0l0,0l0,0l0,0v0l0,0l0.1,0l0,0l0,0l0,0l-0.1,0c0,0,0,0,0,0l0,0l0,0l0,0l0,0v0l0,0
			c0,0,0,0,0,0l0,0.1l0,0.1v0l0,0c0,0,0,0,0.1,0c0,0,0,0,0,0c0,0,0,0,0,0c0,0,0,0,0,0c0,0,0,0,0,0l0,0c0,0,0,0,0,0l0,0c0,0,0,0,0,0
			l0,0l-0.1,0.1l0,0l-0.1,0l0,0c0,0,0,0,0,0.1c0,0,0,0,0,0l0,0l0.1,0l0.1,0l0.1,0l0,0l0.1,0l0,0l0.1,0l0,0l0,0l-0.1,0l-0.1,0l0,0
			l-0.1,0l0,0l0,0l-0.1,0l0,0c0,0,0,0,0,0l-0.1,0l-0.1,0c0,0,0,0,0,0c0,0,0,0,0-0.1c0,0,0,0,0,0l-0.1-0.1l0,0l-0.1-0.1l0,0l-0.1,0
			c0,0,0,0,0,0c0,0,0,0,0,0l0,0l0.1,0.1l0.1,0l0.1,0l0,0l0,0l0,0l0,0l-0.1,0l0,0.1l0,0l0,0c0,0,0,0,0,0c0.1,0,0.1,0,0.1,0l0.1,0l0,0
			l0.1,0l0,0l0.1,0l0,0.1l0,0l0,0.1c0,0,0,0,0,0l0.1,0.1l0.1,0l0,0l0,0l0,0l0,0l0,0l0,0c0,0,0,0,0,0l0,0l0,0l0,0c0,0,0,0,0,0
			c0,0,0,0,0,0l0,0l0,0l0,0c0,0,0,0-0.1,0c0,0-0.1,0-0.1,0c0,0,0,0,0,0l0,0c0,0,0,0,0,0l0,0l0.1,0.1l0.1,0.1l0.1,0.1l0,0
			c0,0,0,0,0,0l0,0l0,0.1c0,0,0,0,0,0l0,0l0,0.1l0,0c0,0,0,0,0,0.1l0,0l0,0l0,0l0,0.1l0,0l0,0l0,0l0,0c0,0,0,0,0,0c0,0,0,0-0.1,0
			c0,0,0,0,0,0l0,0l-0.1,0l-0.1,0l0,0c0,0,0,0,0,0c0.1,0,0.1,0,0.2-0.1l0,0l0,0l0-0.1l0,0l0-0.1l0-0.1l0-0.1l-0.1-0.1l0,0l0,0l0,0
			l0-0.1l0,0l-0.1,0c-0.1,0-0.1,0-0.2-0.1l0-0.1l0,0l-0.1-0.1l0,0L60,40.1l-0.1,0l0,0c0,0,0,0,0,0l0,0L59.9,40l0,0l-0.1,0l-0.1,0
			l0,0l-0.1,0l0,0l0,0l0-0.1l0,0l-0.2-0.2l-0.1,0l0,0l-0.1,0l-0.1,0c0,0,0,0,0-0.1c0,0,0,0,0,0l0,0l0,0l0,0l0,0l-0.1,0
			c0,0-0.1,0-0.1,0l0,0l0,0.1l0,0l0,0l0,0l0,0l0,0l0,0l0,0.1c0,0,0,0,0,0c0,0,0,0,0,0c0,0,0,0,0,0.1l0,0l0,0.1l0,0l0,0.1l0,0.1l0,0
			l0,0l0,0l0,0l0.1,0c0,0,0,0,0,0c0,0,0,0,0,0l0,0l0,0l0,0.1l0,0l0.1,0c0,0,0,0,0,0c0,0,0,0,0,0l0,0c0,0,0,0,0,0c0,0,0,0,0,0l0,0
			c0,0,0,0,0,0.1l0.1,0.1l0.1,0l0,0.1l0,0l0.1-0.1c0,0,0,0,0,0l0.1,0.1l0,0l0.1,0h0l0,0l0.1,0c0,0,0,0,0,0l0,0l0,0l0,0l0,0.1l0,0.1
			l-0.2-0.1l0,0c0,0-0.1,0-0.1-0.1c-0.1,0-0.1,0-0.1,0c0,0-0.1,0-0.1,0l0,0c0,0,0,0-0.1,0c-0.1,0-0.1,0-0.2,0l-0.1,0l-0.1,0l-0.1,0
			l-0.2,0l0,0l-0.1,0l0,0l0,0c-0.1,0-0.1,0-0.2,0l0,0c0,0,0,0,0,0l0,0l0,0l0,0l0,0c0,0,0,0,0,0l-0.1,0l0,0l-0.1,0l0,0l-0.1,0l-0.1,0
			l0,0l0,0l0,0.1l0,0l0,0l0.1,0l0.1,0l0,0l0,0l0,0c0,0,0,0,0.1,0c0,0,0,0,0,0c0,0,0,0,0,0l0,0l0,0l0.1,0.1c0,0,0,0,0,0l0.1,0l0,0.1
			l0,0c0,0,0,0,0,0c0,0,0,0,0,0l0,0l0,0l0,0l0,0l0,0c0,0,0,0,0,0c0,0,0,0,0,0l0,0l0,0l0,0l0,0l0,0l0,0l0,0c0,0,0,0,0,0l0,0l0,0
			c0,0,0,0,0,0l0,0l0,0L58,40.7l0,0c0,0,0,0,0,0c0,0,0,0,0,0c0,0,0,0,0,0l0,0l0.1,0.1l0,0c0,0,0,0,0,0l0,0l0,0l0,0l0,0h-0.1l0,0l0,0
			l0,0.1l0,0l0,0l0,0l-0.1,0l-0.1,0l-0.1,0l0,0l0,0l0,0l0,0l0,0l0,0c0,0,0,0,0,0l-0.1,0l0,0c0,0,0,0,0,0c0,0,0,0,0,0l0-0.1l0,0
			c0,0,0,0,0,0l0,0l0,0l0,0l-0.1,0c0,0,0,0,0,0l-0.1,0l0,0l0,0l-0.1,0l0,0.1l0,0l0,0l0,0l0,0l0,0l0,0c0,0,0,0,0,0l0,0l0,0l-0.1,0
			l0,0c0,0,0,0,0,0l-0.1,0.1l-0.1,0.1l0,0l0,0c0,0,0,0,0,0c0,0,0,0,0,0l0,0.1l0,0l0,0l0,0l0,0l0,0.1l0,0.1c0,0,0,0,0,0l0,0l-0.1,0
			c0,0,0,0,0,0l-0.1,0l0,0l-0.1,0l0,0l0,0l0,0l0,0l-0.1,0l0,0l0,0l0,0l0.1-0.1l0,0l0,0l0,0l0.1,0l0-0.1l0,0l0,0l-0.1-0.1l0,0
			L56,41.3l-0.1-0.1l0,0l-0.1,0l-0.1,0l0,0c0,0,0,0,0,0l0,0l0,0l0,0c0,0,0,0,0,0l0,0.1l0.1,0l0.1,0l0,0l0,0.1l0,0.1l0,0l0,0
			c0.1,0.1,0.2,0.1,0.3,0.2l0,0.1l0,0l0,0h-0.1l-0.1-0.1l-0.1,0l-0.1,0l0,0l0,0.1l0,0L55.4,42l-0.1,0c0,0,0,0,0,0l0,0.1l0,0
			l-0.1,0.1l0,0l0,0l0.1,0c0.1,0.1,0.1,0.1,0.2,0.2l0,0l-0.1,0.1l-0.1,0l-0.1,0l0,0l0,0l0,0l-0.1,0l-0.1,0l-0.1,0l-0.1,0l0,0
			l-0.1-0.1l0,0l0,0.1l0,0l0,0c0,0,0,0,0,0l0,0l0,0c0.1,0.1,0.2,0.1,0.2,0.1l0.1,0l0.1,0c0,0,0,0,0,0l0,0l0,0l0,0c0,0,0,0,0,0l0,0
			l0,0l-0.1,0l-0.1,0l0,0l-0.1-0.1l0,0l-0.1,0l0,0l-0.1,0c0,0,0,0-0.1,0l0,0l0,0l-0.1-0.1l0,0l0,0l0,0l0,0l0-0.1l-0.1-0.1l-0.1,0
			l0,0l0,0l-0.1,0l0,0c0,0,0,0,0,0l0,0l0,0L53.7,42l0.1,0l0,0l0,0l0.1,0c0,0,0,0,0.1,0l0.1,0l0,0l0.1,0l0,0l0.1,0l0.1,0l0.1,0l0,0
			c0,0,0,0,0,0l0.1,0c0.1,0,0.2,0,0.3,0l0.1,0c0,0,0.1,0,0.1,0c0,0,0.1,0,0.1,0l0,0l0.1-0.1l0,0l0-0.1l0-0.1l0,0l0,0c0,0,0,0,0,0
			l-0.1-0.1l0,0l-0.1,0l0,0l-0.1,0l-0.1,0l0,0l0,0l0,0l0,0l0,0l-0.1,0l-0.1,0l-0.1,0l0,0l-0.1,0l-0.1-0.1l-0.3-0.1c0,0,0,0,0,0
			l-0.1,0l-0.1,0l-0.1,0l-0.1,0l0,0l0,0l0,0l0,0.1c0,0,0,0,0,0l-0.1-0.1h0l0,0l-0.1,0l0,0l0-0.1l-0.1,0l0,0l0,0l-0.1,0l0,0l0,0
			l-0.1,0.1l-0.1,0l0,0l-0.1,0l0,0l0,0l-0.1,0h0l0,0l0.1-0.1l0,0c0,0,0,0,0,0c0,0,0,0,0,0l0,0l0,0l0,0l-0.1,0c0,0,0,0,0,0
			c0,0,0,0,0,0l0,0l-0.1,0l-0.1,0l-0.1,0l0,0l0,0l0,0.1c0,0,0,0,0,0h0l0,0l0-0.1l0,0l0,0l0,0l-0.1,0c0,0,0,0,0,0l-0.1,0l0,0l0,0l0,0
			l0,0.1l0,0l0,0c0,0,0,0,0,0c0,0,0,0,0,0l0,0c0,0,0-0.1,0-0.1c0,0,0,0,0,0l0,0l0,0L52,41l0,0l0.1-0.1l0.1-0.1l0-0.1l0,0l0,0l-0.1,0
			h0l0,0l0,0l0,0l0,0l0,0l0,0l0,0.1l0,0.1l0,0l0,0l0,0l0,0l0,0l0,0l0,0l0,0l0,0l-0.1,0c0,0,0,0,0,0l-0.1,0c0,0,0,0,0,0c0,0,0,0,0,0
			c0,0,0,0,0,0l0,0l0.1,0l0.1,0l0,0l0,0l0,0c0,0,0,0,0,0l0,0l-0.1,0l0,0l0,0l0,0l0,0l0,0l0,0l0,0l0,0l0,0l-0.1,0.1l0,0l0,0l0-0.1
			c0,0,0-0.1,0-0.1v0l0,0l0,0l-0.1,0h0l-0.1,0l0,0.1l0,0.1l0,0.1l0,0l0,0c0,0,0,0,0,0.1l0,0l0,0l0,0l0-0.1l0,0l0,0l0,0l0,0l-0.1,0.1
			l0,0.1l0,0l0,0l0,0l0,0l0-0.1l0,0l0,0l0,0l0,0l0,0c0,0,0,0,0,0l0,0l0-0.1c0,0,0,0,0,0l0,0l-0.1,0l0,0l0,0l0,0l0,0l0,0l0,0.1l0,0.1
			l0,0c-0.1,0-0.1,0-0.2,0.1c-0.1,0-0.1,0-0.1,0v0l0,0.1l0,0l0.2-0.1l0.1,0l0.1,0l0.1,0l0,0l0,0.1l0,0.1l0,0.1l0,0L50.1,42L50,42
			l-0.1,0l0,0l-0.1,0.1l0,0l0,0.1l0,0l0,0l0,0l0,0l0,0l0,0.1l0,0.1l0,0.1l0,0l0,0.1l0,0l0,0l0,0v0l0,0v0h0l0,0l0,0l-0.1,0l0,0l0,0
			l0,0h0v0l0,0h0l-0.1,0.1L49.3,43l0,0l-0.1,0h0l0,0l0,0l0,0.1l0,0h0l0,0l0,0l0,0l0,0l0,0.1l0,0l0,0l0,0l0,0l0,0l0,0
			c0,0.1,0,0.1,0,0.2l0,0l0,0.1l0,0l0,0l-0.1,0l0,0l0,0l0,0l0,0l0,0l0,0l-0.1,0l0,0l0,0l0,0l0,0l0,0l0,0l0,0l-0.1,0l0,0l0,0l0,0l0,0
			l0,0l0,0.1l0,0l0,0.1l0,0.1l0,0c0,0,0,0,0,0l0,0.1l0,0l0,0l0,0l0,0.1c0,0,0,0,0,0l0,0h0l0,0l0,0.1l0,0l0,0.1l0,0l0,0.1l0,0h0
			l0.1,0l0,0l0,0l0,0c0,0,0,0,0,0l-0.1,0l0,0.2l0,0l0,0l0,0l0.1,0.1l0,0l0.1,0l0.1,0l0,0l0,0l0,0l0.1-0.1c0,0,0,0,0.1,0l0,0l0,0
			l0.1,0l0.1-0.1l0.1,0l0,0l0.1-0.1l0,0l0,0l0,0l0,0l0-0.1l0-0.1l0,0.1l0,0l0,0l0,0v0l0,0.1l0,0l0,0l0,0.2l0,0l0,0l0,0.1l0,0.1l0,0
			l0.1,0.1l0.1,0.1l0,0l0,0.1l0,0l0,0h0l0,0l-0.1,0l0,0.1l0,0h-0.1l0,0l0,0l0,0h0l0,0l0,0l0,0.1l0,0l0,0.1l0,0.1l0,0v0l0,0l0.1,0h0
			l0,0l0,0l0,0c0,0-0.1,0-0.1,0.1c0,0,0,0,0,0l0.1,0l0,0l0,0l0.1,0l0.1-0.1l0,0l0-0.1l0,0l0,0l0,0h0l0.1-0.2l0,0l0,0l0.1,0
			c0,0,0,0,0,0l0.1,0h0l0,0l0-0.1l0-0.1l0,0l0,0h0l0,0l0,0v0l0,0l0,0l0.1,0l0.1,0c0,0,0,0,0,0l0,0l0,0l0,0l0,0l0,0l0.1-0.1l0-0.1
			l0-0.1l0-0.1l0,0c0,0-0.1,0.1-0.1,0.1c0-0.1,0-0.1,0-0.2l0-0.1l0-0.1l0,0l0-0.1l0,0l0,0c0,0,0,0,0,0l0.1,0l0.1-0.1l0.1-0.1l0,0
			l0,0l0-0.1l0-0.1l0,0l0,0l0-0.1l0,0l-0.1-0.1l0,0l-0.1,0c0,0,0,0,0,0c0,0,0,0,0,0l-0.1,0l-0.1,0l0,0l0,0l0-0.1l0-0.1l0,0
			c0,0,0-0.1,0-0.1l0,0l0-0.1l0,0l0,0l0,0l0,0l0,0l0,0l0,0l0.1,0l0.1-0.1l0-0.1l0,0l0,0l0,0l0,0l0,0l0.1,0l0,0l0.1,0l0.1,0l0.1,0
			l0,0l0.1,0l0,0l0.1-0.1l0,0l0-0.1l0-0.1l0,0l0,0l0,0c0.1-0.1,0.1-0.1,0.2-0.2l0.2,0l0,0l0.1,0l0.1,0l0,0c0,0,0,0,0,0l0.1,0.1
			l0,0.1l0,0c0,0,0,0,0,0c0,0,0,0,0,0l-0.1-0.1l0,0l0,0l0,0l0,0l-0.1,0.1L52,42.9l0,0l0,0L51.9,43l-0.1,0.1l-0.1,0.1c0,0,0,0,0,0
			c0,0,0,0,0,0l-0.1,0l0,0.1l0,0.1l0,0l0,0l0,0l0,0l0.1,0.1l0,0.1l0,0l0,0.1l0,0.1l0,0l0,0l0,0l0,0.1l0,0c0,0,0,0,0,0
			c0,0,0,0.1,0,0.2l0.1,0l0.1,0c0,0,0,0,0,0l0,0.1c0.1,0.1,0.3,0,0.4,0.1l0.1,0l0,0l0.1,0l0.1,0l0,0c0,0,0,0,0,0l0.1,0l0.1,0l0,0
			c0,0,0,0,0.1,0l0.1,0l0,0l0.1,0l0.1,0l0.1,0l0,0c0,0,0,0,0,0l0.1,0l0.1,0.1l0.1,0l0.1,0l-0.1,0l0,0l-0.1,0l-0.1,0c0,0,0,0,0,0
			l-0.1,0.1l0,0c0,0,0,0-0.1,0c0,0,0,0,0,0c0,0,0,0,0,0l-0.1,0l0,0l-0.1,0l-0.1,0c0,0,0,0,0,0l-0.1,0.1l-0.1,0h0l-0.1,0l0,0l-0.1,0
			l0,0h0l-0.1,0l0,0.1l-0.1,0l0,0l0,0l-0.1,0.1l0,0L52,44.8l0,0l-0.1,0l0,0.1l0,0c0,0,0,0,0,0l0,0.1h0l0.1,0l0,0l0,0l0,0l0.1,0
			c0,0,0,0,0,0l0-0.1v-0.1l0.1,0l0.1,0.1l0.1,0.1l0,0l0,0l0,0c0,0,0,0,0,0l0,0.1l0,0.1l0,0.1l0,0.1l-0.1,0h0l-0.1,0l0,0l0,0
			l-0.1-0.1l-0.1,0L52,45.2c0,0,0,0,0,0v0l0,0.1l0,0.1l0,0l0,0.1l0,0.2l0,0l0,0.1c0,0,0,0,0,0.1l0,0.1l-0.1,0.1c0,0-0.1,0-0.1,0
			c0,0,0,0,0,0l0,0.1l0,0.1l0,0l-0.1,0h0l-0.1,0l0,0l0-0.1l0,0l0,0l-0.1,0l0,0L51,46.2l-0.1,0c-0.1,0-0.2,0.1-0.3,0.1
			c0,0-0.1,0-0.1,0l-0.1,0l-0.1,0l-0.1,0l0,0h0l0,0l-0.1,0l0-0.1l0,0l-0.1-0.1L50,46.3l-0.1,0h0l-0.1,0l-0.1,0.1h0l0,0l0,0l-0.1,0.1
			l0,0h-0.1l0,0l0.1-0.1v0l0-0.1h0l-0.1,0l-0.1,0l0-0.1l0,0l-0.1-0.1l0,0v0l0.1-0.1l0.1-0.1l0,0l0-0.1l0,0l0-0.1l0-0.1l0-0.1l0,0
			l0-0.1v-0.1l0-0.1l0,0h0l-0.1,0l-0.1,0.1l-0.1,0.1l-0.1,0.1l0,0l-0.1,0l-0.1,0l-0.1,0.1l-0.1,0.1c0,0.1,0,0.1,0,0.3l0,0.1l0,0
			l0,0.2l0,0.1l0,0v0l0,0.1l0,0l0,0l0,0l0,0l0,0.1l0,0l0,0l0,0l0,0l0,0l0,0.1l0,0l0,0l-0.1,0.1h0l0,0l0,0l0,0l-0.1,0l-0.1,0l-0.1,0
			l0,0l0,0c0,0,0,0,0,0l-0.1,0c0,0,0,0-0.1,0l-0.1,0h0l0,0l-0.1,0l-0.1,0L48,46.8l-0.1,0.1l0,0l0,0L47.8,47l0,0.1l0,0.1l0,0.1l0,0.1
			l0,0l-0.1,0l0,0l-0.1,0l-0.1,0l-0.1,0l0,0l-0.1,0l-0.1,0l-0.1,0l0,0h0l0,0.1l0,0.1l0,0.1l-0.1,0.1L46.7,48L46.5,48l0,0l0,0.1l0,0
			c0,0,0,0,0,0l0,0l0,0l-0.1,0l-0.1,0c0,0,0,0-0.1,0l0,0l0,0l0,0l0,0l0,0l-0.1,0l0,0l0,0l0,0l0,0l0,0v0.1l0.1,0.1l0,0
			c0,0,0,0.1,0,0.1l0,0c0,0,0,0,0,0.1c0,0,0,0,0,0l-0.1,0c0,0,0,0,0,0l-0.1,0l-0.1,0l-0.1,0l0,0l0,0l-0.1-0.1l-0.1,0l-0.1,0l-0.2,0
			l-0.1,0l0,0l-0.1,0l0,0l0.1,0.1l0,0.1l0,0l0,0.1l0.1,0l0.1,0l0,0l0.1,0l0.1,0l0,0l0,0l0.1,0l0,0l0,0l0,0.1l0.1,0l0,0l0,0l0,0.1
			l0,0l0.1,0.1l0.1,0.1l0,0.1l0,0.1c0,0,0,0.1,0,0.1l0,0.1l0,0.1c0,0,0,0,0,0.1l0,0.2l-0.1,0.2l0,0c0,0,0,0,0,0l-0.1,0.1l-0.1,0
			l-0.1,0l0,0l0,0l0,0l0,0l-0.1,0l0,0l0,0c0,0-0.1,0-0.1,0l-0.1,0l-0.2,0l-0.1,0l-0.1,0l-0.1,0l-0.1,0l-0.1,0l-0.1,0c0,0,0,0,0,0
			c0,0,0,0,0,0c0,0,0,0,0,0l0,0l-0.1,0l-0.1,0c0,0,0,0,0,0l-0.1,0l-0.1,0.1l0,0l-0.1,0c0,0,0,0,0,0l-0.1,0.1l0,0l0,0.1l0.1,0.1l0,0
			l0,0l0,0.1l0,0.1l0,0.2l0,0.1l0,0.1l0,0c0,0.1,0,0.1-0.1,0.3l-0.1,0.1l-0.1,0.1l-0.1,0.1l0,0l0,0.1c0,0.1,0,0.1,0,0.2v0l0.1,0.1
			l0.1,0c0,0,0,0,0,0l0,0l0,0l0,0.1l0,0.1c0,0,0,0,0,0.1c0,0,0,0.1,0,0.1l0,0.1l0,0l0,0.1l0,0c0,0,0,0,0,0c0,0,0,0,0,0l0,0l0,0l0,0
			l0.1,0l0,0l0.1,0l0,0l0.1,0l0,0l0.1,0l0,0l0,0l0.1,0c0.1,0,0.1,0.1,0.1,0.2l0,0l0.1,0.1l0.1,0.1l0.1,0c0,0,0,0,0,0c0,0,0,0,0,0
			l0.1,0l0.1,0l0.1,0l0,0l0,0l0,0l0.1,0l0,0l0.1,0l0,0l0.1,0l0.1,0l0.2,0l0.1,0l0.1,0l0.1,0l0.1,0l0,0l0.1-0.1l0.1-0.1l0,0l0.1,0
			l0.1,0l0,0l0-0.1l0-0.1l0-0.1l0,0l0-0.1l0-0.1l0.1,0l0.1-0.1l0.1,0l0,0l0-0.1l-0.1,0L46,52.3l0-0.1c0,0,0-0.1,0-0.1l0.2-0.2
			c0.2-0.2,0.2-0.2,0.2-0.3c0,0,0,0,0,0c0,0,0.1-0.1,0.2-0.1c0.1,0,0.1,0,0.2-0.1l0.1,0l0.2-0.1l0.1,0l0.1-0.1l0-0.2c0,0,0,0,0,0
			l0-0.1l0-0.1l0,0l0.1-0.1l0.1,0l0,0l0,0l0,0c0.1,0,0.2,0,0.3,0l0.1,0l0.1,0l0.1,0l0.1,0l0,0l0.1-0.1h0c0,0,0,0,0,0l0.1,0l0,0l0,0
			l0.1-0.1l0-0.1l0.1-0.1l0-0.1l0.1-0.1l0.1,0l0.1,0l0.1,0l0,0l0,0l0,0.1l0,0.1l0.1,0l0,0l0,0.1l0,0v0l0.1,0.1l0,0l0,0v0l0,0l-0.1,0
			h0l0,0l0,0.1l0.1,0l0,0l0-0.1v0h0l0,0v0l0,0l0,0l0,0l0,0.1v0l0,0.1l0,0h0l0,0l0,0l0,0l0,0l0,0l0,0l0.1,0l0,0l0,0l0,0.1l0,0
			l0.1,0.1l0,0l0.1,0c0,0,0.1,0,0.1,0h0v0l0,0l0.1,0l0,0h0l0,0l0,0.1h0l0.1,0l0,0l0,0l0,0c0,0,0.1,0,0.1,0l0,0.1v0l0.1,0.1l0,0l0,0
			c0,0,0,0,0.1,0c0,0,0,0,0,0h0l0,0.1l0,0.1l0,0l0,0l0,0l0,0l0,0.1l0,0.1v0c0,0,0,0,0,0l0,0h0l0,0c0,0,0,0,0,0c0,0,0,0,0,0l0,0l0,0
			h0l-0.1,0.1h0l-0.1,0l-0.1,0l-0.1,0.1h0l-0.1,0l0,0c0,0,0,0,0,0l-0.1,0l0,0l-0.1,0c0,0,0,0,0,0l-0.1,0.1l0,0l0,0l0,0l0,0v0l0,0
			l0,0.1v0l0,0.1l0,0l0.1,0h0l0,0l0.1,0l0.1,0.1l0.1,0l0.1,0l0.1,0h0l0,0l0,0.1l0.1,0.1l0,0l0.1,0l0.1,0l0,0l0-0.1l0,0l0-0.1l0,0
			l0-0.1l0.1-0.1l0,0l0,0l0,0l0,0l0,0l0,0l0,0l0,0l0,0l0,0l0,0l0,0l0,0l0,0l0,0l0,0l0,0c0,0,0,0,0-0.1c0,0,0,0,0-0.1l0-0.1l0,0l0,0
			h0l0,0l0.1,0l0,0l0-0.1l0-0.1l0-0.1l-0.1,0l0,0l0,0l0,0l0,0l0,0v0l0.1-0.1l0-0.1l0,0l0,0l0,0l0,0l0.1,0.1l0.1,0l0.1,0l0,0l0,0
			l0.1,0.2l0,0l0,0l0-0.1l-0.1-0.2l0,0l-0.1-0.1l0,0l-0.1,0l0,0l-0.1,0l0,0l-0.1,0l-0.2-0.1L51,51.3l0,0l0.1-0.1l0,0L51,51.1l-0.1,0
			c0,0-0.1,0-0.1,0l0,0l0,0l-0.1,0l-0.1-0.1L50.5,51l0,0l-0.1-0.1l0,0l-0.1-0.1c0,0,0,0,0,0l0-0.1l-0.2-0.1L50,50.3l-0.1-0.1l0,0
			l0-0.1l0-0.1v0l0,0l0,0l0-0.1l0-0.1l0,0l0,0l0-0.1l0,0h0.1l0.1-0.1l0,0l0,0l0,0l0,0l0,0.1l0.1,0.1l0,0.1c0,0,0,0,0,0l0,0l0,0.1
			l0,0l0.1-0.1l0,0l0.1,0.1l0.1,0l0,0l0,0c0,0,0,0,0,0l0,0h0l0,0.1l0.1,0.1v0l0,0.1c0,0,0,0,0,0.1l0,0l0.1,0l0,0l0.1,0.1v0l0,0.1
			l0.1,0.1l0,0l0.1,0c0,0,0,0,0,0l0,0l0.1,0c0,0,0.1,0,0.1,0c0.1,0,0.1,0,0.1,0l0.1,0.1l0.1,0c0.1,0.1,0.1,0.1,0.2,0.2l0.1,0.1
			l0.1,0.1c0,0,0,0,0,0l0,0l0,0.1l0,0.1l0,0l0,0l0,0.1l0,0.1c0,0,0,0,0,0.1l0,0.1l0.1,0.1l0.1,0.1v0c0,0,0,0,0,0l0,0l0,0l0,0l0,0
			l0.1,0.1l0.1,0l0,0l0.1,0.1h0l0.1,0.1l0,0.1l0,0.1l0.1,0.1c0,0,0,0,0,0c0,0,0,0,0,0l0,0l0.1,0l0.1,0c0,0,0,0,0,0c0,0,0.1,0,0.1,0
			l0.1,0l0.1,0l0,0l0.1,0l0,0l0,0l0,0l0,0.1l0,0l0,0c0,0,0,0,0.1,0l0.1,0l0,0l0,0l0.1,0l0-0.1l0-0.1l0-0.1l0-0.1l0,0l0.1,0l0,0
			l0.1,0l0.1-0.1l0-0.1l-0.1,0l-0.1,0l-0.1-0.1l0,0l0,0l-0.1-0.1l0,0l-0.1,0l0-0.1l0-0.1L53.3,52l0,0l-0.1-0.1l0,0l0-0.1
			c0,0,0-0.1,0-0.1l0,0l0,0l0,0l0.1,0.1l0,0l0.1,0l0.1,0l0,0l0.1-0.1l0,0l0,0l0.1-0.1l0,0c0,0,0,0,0,0l0,0c0,0,0,0,0,0l0.1,0l0.1,0
			l0.1,0l0,0l0.1,0.1l0,0h0l0,0l0,0l0,0.1c0,0,0,0,0,0c0,0,0,0,0,0l-0.1,0l0,0.1l0,0.1l0,0l0,0l-0.1,0.1c0,0,0,0,0,0l0.1,0.1l0,0
			l0.1,0l0,0l0-0.1l0,0v0l0-0.1l0.1-0.1l0,0.1l0,0.1l0,0.1l0,0l0,0l0,0l0,0c0,0,0,0,0,0c0,0,0,0,0,0c0,0,0,0,0,0l0,0l0,0l-0.1,0
			c0,0,0,0,0,0l0,0l0,0.1l0,0.1l0.1,0c0,0,0,0,0,0l0,0l0,0l0-0.1l0,0l0,0l0,0l0,0l0.1,0l0,0l0,0l0,0l0.1,0c0,0,0,0,0,0c0,0,0,0,0,0
			c0,0,0,0,0,0c0,0,0,0,0,0.1l-0.1,0l0,0l0,0l0,0l0,0v0.1c0,0,0,0,0,0l0.1,0l0,0l0,0l0,0.1l0,0.1l0,0l0.1,0l0,0l0,0.1v0l0,0l0,0
			l0,0.1l0,0l0,0l0.1-0.1l0-0.1l0,0c0,0,0,0,0,0c0,0,0,0,0.1,0l0,0c0,0,0,0,0,0l0,0l0,0l0,0l-0.1,0.1l0,0l0,0l0.1,0l0,0l0.1,0
			c0,0,0,0,0,0c0,0,0,0,0,0c0,0,0,0,0,0l0,0l-0.1,0.1l0,0.1l0,0l0.1-0.1l0-0.1l0,0c0,0,0,0,0-0.1l0-0.1l0,0l0,0l0.1,0.1c0,0,0,0,0,0
			l0.1,0l0,0c0,0,0,0.1,0,0.1c0,0,0,0,0,0l0,0.1l0,0l0,0l0,0l0.1,0l0.1,0l0.1,0l0,0l0,0l0.1-0.1l0,0l0-0.1c0,0,0,0,0,0l0-0.1l0,0
			l0,0l0,0c0,0,0,0,0,0l0.1,0l0,0l0.1,0l0.1,0l0,0l0,0l0.1,0.1l0,0l0.2,0c0,0,0.1,0,0.1,0l0,0l0.1,0l0,0c0,0,0,0,0.1,0l0,0L57,53
			l0-0.1l0,0l0,0l0.1,0l0.1,0l0.1,0l0,0c0,0,0,0,0,0l0.1-0.1l0,0l0,0l0,0c0,0,0,0,0,0l0.1,0l0,0l0,0l-0.1,0.1c0,0,0,0,0,0
			c0,0,0,0.1,0,0.1l0,0c0,0,0,0,0,0s0,0,0,0l0,0.1l0,0.1l0,0l0,0.1l0,0l0,0.1l0,0.1l0,0.1l0.1,0.1l0,0c0,0,0,0,0,0l-0.1,0.1l0,0.1
			l0,0.1l0,0l0,0.1l0,0.2l0,0.1l0,0.1l0,0.1v0.1l0,0.1l0,0.1l0,0.1l0,0.1l-0.1,0.1l-0.1,0l0,0l-0.1,0l-0.1,0l0,0l0,0c0,0,0,0,0,0
			l0,0l0,0l0,0c0,0,0,0-0.1,0c0,0,0,0-0.1,0h0l-0.1,0l-0.1-0.1l0,0v0c0,0,0,0,0,0l0,0c0,0,0,0,0,0l0,0l0,0c0,0,0,0-0.1,0l-0.1,0l0,0
			l-0.1,0l-0.1,0l0,0l-0.1,0l-0.1,0l-0.1,0.1l0,0c0,0,0,0,0,0l0,0l-0.1,0l-0.1,0.1l-0.1,0.1l-0.1,0l0,0l-0.1,0l0,0c0,0,0,0,0,0
			l-0.1,0l-0.1,0l-0.2,0l-0.1,0l-0.1,0l-0.1,0l-0.1,0h0c0,0,0,0-0.1,0l-0.1,0l-0.1,0l-0.1,0l-0.1,0l-0.1,0c0,0,0,0,0,0l0,0l-0.1-0.1
			l-0.1,0c0,0,0,0,0,0l-0.1,0l-0.1,0l0,0L53.8,55c0,0,0,0,0,0c0,0,0,0-0.1,0c0,0,0,0,0,0c0,0,0,0,0,0l-0.1,0v0c0,0,0-0.1,0-0.1
			l-0.1,0l-0.1,0l0,0l-0.1,0l-0.1,0l-0.1,0l-0.1,0l-0.1,0l0,0l-0.1,0l-0.1,0.1l0,0l0,0l-0.1,0.1l0,0l0,0.1l0,0.1l0,0.1l0,0.1l0,0
			l-0.1,0.2c0,0,0,0.1-0.1,0.1c-0.1,0-0.1,0-0.2,0l0,0l-0.1,0l-0.2-0.1l0,0c-0.4-0.2-0.5-0.2-0.7-0.2l-0.2-0.1L51,55.3L51,55.1
			L50.8,55l-0.1,0l-0.1,0c-0.1-0.1-0.1-0.1-0.3-0.1l-0.2,0c-0.2,0-0.2,0-0.3-0.1l-0.1-0.1l0,0c0,0-0.1,0-0.1,0c0,0,0-0.1,0-0.1l0,0
			l-0.1,0l-0.1,0l-0.1,0l0,0l0,0l0,0l-0.1-0.1l0.1-0.1l0-0.1l0.1-0.1l0-0.1l0-0.2l0,0l0-0.1l0,0l-0.1-0.2l0,0l0-0.1l0.1-0.1l0,0l0,0
			l0.1-0.1l0-0.1l0-0.1l0,0l-0.1,0l-0.1,0.1l0,0l-0.1-0.1l0,0L49.1,53L49,53l-0.1,0.1l-0.1,0.1l-0.3,0.1l0-0.1l-0.1-0.1l0,0l0,0
			l-0.1,0l-0.1,0l0,0l0,0v0l0,0h0l0,0L48,53.2l0,0l0,0l-0.1,0l0,0l-0.1,0l0,0.1l0,0l0,0l0,0c0,0,0,0,0,0l-0.1,0l-0.1,0l-0.1,0
			l-0.1,0l-0.1,0c0,0-0.1,0-0.1,0l-0.1,0l-0.1,0l-0.1,0l0,0l0,0l-0.1,0l-0.2,0l-0.2,0l0,0L46,53.5l0,0.1v0l0,0c0,0,0,0,0,0
			c0,0,0,0,0,0l-0.1,0l0,0l0,0h0l0,0l-0.1,0.1l-0.1,0l0,0l0,0l0,0l-0.1,0.1c0,0,0,0,0,0l-0.2,0l-0.1,0l0-0.1l0,0l-0.1,0l0,0
			c0,0,0,0,0,0l-0.1,0l-0.1,0l0,0c0,0,0,0,0,0c0,0-0.1,0-0.1,0l-0.1,0l-0.1,0l-0.1-0.2l0,0l-0.1-0.1c0,0-0.1,0-0.1,0
			c0,0-0.1,0.1-0.1,0.1l-0.1,0.2l0,0L43.8,54l0,0.1l-0.1,0.1l-0.1,0.1l0,0l-0.1,0l-0.1,0l-0.2,0.1l-0.2,0.2l0,0l-0.1,0.1L42.8,55
			l0,0l-0.1,0.1l0,0.1l0,0.1l0,0.2l0,0l0,0.1l-0.1,0.1L42.4,56l0,0.1l0,0.1l0,0l-0.1,0.1l0,0l-0.2,0.1L42,56.4l-0.1,0l-0.1,0.1
			l-0.2,0l-0.1,0c0,0,0,0,0,0v0l-0.1,0.1l-0.1,0.1l0,0.1l0,0.1l-0.1,0.2l-0.1,0l-0.2,0.1l0,0l-0.1,0.1l0,0.1l0,0.1l0,0.1l0,0.1l0,0
			l0,0.1l0,0.1L40.6,58l-0.1,0.1l0,0l-0.1,0l-0.1,0.1l0,0.1l0,0.1l-0.1,0.1l0,0l-0.1,0.2l0,0.1l0,0.1L40,58.9l0,0.1l0,0.1l0,0l0,0.1
			l0,0.1l0,0.1l0,0l0,0l0,0c0,0,0,0,0,0l0,0l0.1,0.1l0,0l0,0l0,0.1l0,0.1l0,0.1l0,0l0,0.1v0.1l0,0.1l0.1,0.2l0,0.1l0,0.2
			c0,0.1,0,0.1,0,0.2c0,0,0,0.1,0,0.1l0,0.1l0,0.1l0,0.1l0,0.2c0,0,0,0,0,0.1l0,0.1l-0.1,0.2l0,0l-0.1,0.1l0,0.1l0.1,0.1l0,0l0,0
			l0,0.1l0,0.1l0,0l0,0l0,0.1l0,0.1l0,0.1l0,0.1l0,0.1l0.1,0.2l0,0l0,0l0,0.1l0.1,0.1l0,0l0.1,0l0.1,0l0,0l0,0l0,0.1v0l0,0.1
			l0.1,0.1c0,0,0,0,0,0l0.1,0.1l0,0.1v0l0,0.1l0.1,0.1l0,0l0,0l0.1,0.1l0.1,0l0,0l0,0l0,0.1c0,0,0,0,0,0l0,0.1l0.1,0.1
			c0,0,0,0,0,0.1l0,0.2c0,0,0,0,0,0l0,0.1l0.1,0l0.1,0l0,0l0.1,0l0,0.1l0,0.1l0,0.1l0.1,0.1l0.1,0l0.1,0.1l0.1,0.1l0,0l0,0l0.1,0.1
			l0.1,0.1l0,0l0.1,0c0,0,0,0,0,0c0.1,0.1,0.2,0.2,0.4,0.3l0.1,0.1l0,0c0.1,0.2,0.1,0.2,0.3,0.2l0.1,0.1l0,0
			c0.2-0.1,0.2-0.1,0.4-0.1l0.1-0.1l0.2-0.1l0,0l0.1,0l0.2,0c0.1,0,0.1,0,0.2,0c0.1,0,0.1,0,0.1,0l0,0l0.1,0l0.2,0.1l0,0l0.1,0.1
			l0.2,0.1l0.1-0.1l0.1-0.1l0,0l0.1,0l0.1,0l0,0l0.1,0l0.1-0.1l0,0l0.2-0.1l0.1,0c0,0,0,0,0,0v0l0,0l0,0l0.1-0.1l0.1,0l0.1,0
			c0.2-0.1,0.2-0.1,0.5-0.1l0.1,0c0,0,0,0,0,0c0,0,0,0,0.1,0c0,0,0,0,0.1,0c0,0,0.1,0,0.1,0c0,0,0,0,0.1,0l0.1,0l0.1,0.1l0.2,0.2
			l0.1,0.1l0.1,0.2l0.1,0.2l0,0l0.1,0l0.1,0l0.1,0l0.1,0l0.1-0.1v0l0.1,0l0,0c0,0,0,0,0,0l0.1,0l0.2,0l0.1,0l0.1,0l0.1,0l0.1,0l0,0
			h0l0,0l0,0.1l0,0.1l0,0.1l0.1,0l0.1,0c0,0,0,0,0,0l0,0l0,0l0,0c0,0,0,0,0,0l0,0.2l0,0l0,0.1l0,0.1l0,0.2c0,0.1,0,0.2-0.1,0.2
			L49,67.4l0,0l0,0.1l0.1,0l0,0l0,0.1v0.1h0l-0.1,0.1l0,0.1c0,0,0,0,0,0.1l-0.1,0.1l-0.1,0l0,0c0,0,0,0-0.1,0c0,0,0,0,0,0.1l0.1,0.2
			l0,0l0,0.1l0.1,0.2l0.1,0.1l0.1,0.1l0.1,0.1l0.1,0.1l0.1,0.1l0.1,0.1l0.1,0.1l0.1,0.1l0,0l0.1,0.1l0.1,0.1l0,0l0,0.1l0,0l0,0l0,0
			l0.1,0.1l0.1,0.1v0l0,0.1l0.1,0.1l0,0.1l0.1,0.1l0.1,0.1v0l0,0.1l0,0l-0.1,0l0,0l0,0.1l0,0.1l0,0.1l0,0.1l0,0l0,0.1l0,0l0,0l0,0.1
			l0,0.1l0,0.1c0,0,0,0,0,0.1c0,0,0,0,0,0.1l-0.1,0.1l0,0l-0.1,0.1c0,0-0.1,0-0.1,0c0,0,0,0,0,0.1l0,0.1l0,0l0,0.1l0,0.1l0,0.1
			l0,0.1l0,0.1l0,0l0,0.1l0,0.1l0,0.1l0,0l0,0.1l0,0.1l0,0l0,0.1l0,0.1l0,0.1v0l0,0l0,0.1l0,0l0,0.1l0.1,0.1l0,0l0.1,0.1v0l0,0.1
			l0,0.1l0,0l0,0.1l0,0l0,0.1l0,0l0.1,0.1l0.1,0.1l0.1,0.1l0,0l0,0.1l0,0l0,0.1l0,0c0,0.1,0,0.2,0,0.3l0,0l0,0l0,0l0,0l0,0.1v0.1
			c0,0,0,0,0,0l0,0l0,0l0,0l0,0.1l0,0.1l0,0l0,0l0,0.1l0.1,0.1l0,0l0,0l0.2,0.2l0,0.1l0,0.1c0,0.1,0.1,0.1,0.1,0.2l0,0.1l0,0l0,0.1
			l0,0l0,0.1l0,0.1l0,0l0,0l0,0l0,0l0,0l0,0l0,0l0,0l0,0l0,0l0,0l0,0l0,0v0l0,0l0,0l0,0l0,0l0,0l0,0l0,0l0.1,0l0,0l0,0l0,0l0,0
			l0.2-0.1l0,0l0,0c0,0,0,0,0,0l0,0l0.1,0l0.1,0l0.1,0l0.1,0l0.1,0l0.1,0l0,0l0,0l0.1,0l0,0l0.1,0l0,0l0,0l0,0l0.1,0l0,0l0.1,0l0,0
			l0,0l0,0l0.1,0l0,0l0,0l0,0l0,0l0.1,0l0,0l0.3-0.1l0.2-0.1l0.2-0.1l0,0l0.1-0.1c0.1,0,0.1,0,0.2-0.1l0.1-0.1l0.1-0.1l0.1-0.1
			l0.1-0.1l0,0l0,0l0.1-0.1c0.4-0.2,0.4-0.2,0.4-0.3l0.1-0.1l0,0l0.1-0.2l0,0v0l0,0l0,0l0,0v0l0.1-0.1l0.2-0.1l0,0l0.1,0l0.1,0
			l0.1,0l0,0l0.1-0.1l0.1,0l0.1-0.1l0-0.1l0,0l0,0l0.1-0.1c0-0.1,0-0.1,0.1-0.2c0,0,0,0,0,0c0,0,0,0,0-0.1l0,0l0-0.1l0-0.1
			c0,0,0,0,0-0.1l0,0l0-0.1l0,0l0-0.1l0.1-0.1l0,0l0,0l0.1,0l0,0l0.1-0.1l0.1-0.1l0,0l0.1,0c0,0,0,0,0,0c0,0,0,0,0,0l0.1,0l0.1-0.1
			l0,0l0.1-0.1l0.1-0.1c0,0,0,0,0,0l0,0l0.2-0.1l0.1,0l0.1-0.1c0,0,0,0,0,0l0.1,0l0.1-0.1l0.1,0l0,0l0.1-0.1l0,0l0.1-0.1l0.1-0.1
			l0.1-0.1l0.1-0.2l0,0l0.1-0.1l0,0c0,0,0-0.1,0-0.3c0,0,0-0.1,0-0.1c0-0.1,0.1-0.3,0.1-0.4l0-0.1c0,0,0,0,0,0l0.1-0.1l0,0l0.1-0.1
			l-0.1,0l0,0l0,0c-0.1-0.1-0.1-0.1-0.1-0.2l0-0.1l0-0.1l0,0l0-0.1l0-0.1l0.1-0.1l0,0l0-0.1l0,0l0,0c0,0,0,0,0,0l0,0l0.1-0.1l0,0
			l0,0l0-0.1l-0.1-0.1l-0.1-0.1l-0.1,0l0-0.1l0,0c0-0.1,0-0.1,0.1-0.2l0.1-0.1l0.1-0.1l0,0l0-0.1l0.1-0.1l0,0l0.1-0.1l0-0.1l0-0.1
			l0.1-0.1l0-0.1l0,0c0,0,0,0,0,0l0.1-0.1l0,0c0,0,0,0,0,0l0.1,0l0.1-0.1l0.1-0.1l0.1-0.1l0.1-0.1l0.1-0.1l0.1-0.1l0,0l0.1-0.1l0,0
			l0.1-0.1l0.1-0.1l0.1-0.1l0.1-0.2l0.1-0.1l0.2-0.2l0,0c0,0,0,0,0,0c-0.3,0-0.6,0.1-0.9,0.1c0.3,0,0.6-0.1,0.9-0.1
			c0.8-0.6,0.8-0.6,0.9-0.9c0.2-0.2,0.2-0.3,0.3-0.5l0.1-0.2l0.1-0.1c0.1-0.2,0.1-0.2,0.2-0.4l0.1-0.2l0.1-0.1l0.1-0.2l0-0.1l0-0.1
			l0.1-0.1l0.2-0.4l0,0l0.1-0.1l0-0.1l0-0.1l0-0.1l0-0.1l0.1,0l0,0l0,0l-0.1-0.1l0,0l0-0.1c0,0,0-0.1,0-0.1l0-0.1c0,0,0,0,0-0.1l0,0
			l0-0.1l0-0.1l0,0l0,0h0l-0.1,0l-0.1,0.1l0,0l0,0.1L63,62.6c0,0,0,0,0,0l-0.1,0l-0.1,0l0,0l-0.1,0.1l0,0l-0.1,0l0,0l-0.1,0.1
			l-0.1,0c0,0-0.1,0-0.1,0l-0.1,0c0,0,0,0,0,0l-0.1,0L62.1,63l0,0l-0.1,0.1l-0.1,0l-0.1,0l-0.1,0l-0.1,0.1c-0.1,0.1-0.2,0.1-0.3,0.1
			l-0.2-0.1L61,63.1l0,0l0,0L60.9,63l0,0l-0.1,0c0,0,0,0-0.1,0l0,0l0,0l0.1-0.1l0.1,0l0.1-0.1l0-0.2l0,0l0-0.1l0-0.1l-0.1-0.1l0,0
			c0,0,0,0,0,0l-0.1,0l-0.1-0.1l0,0l-0.1-0.1l-0.1-0.1c-0.1,0-0.1-0.1-0.2-0.2l-0.1-0.1l-0.1,0l-0.1,0l-0.2-0.1l-0.1,0l0,0l-0.1-0.1
			c-0.1-0.2-0.1-0.2-0.1-0.4c0-0.1,0-0.1-0.1-0.4l-0.1-0.2l-0.2-0.1l-0.1,0l-0.1-0.1l0,0l-0.1-0.1v-0.1l0-0.1l0-0.2l0-0.3l0-0.1
			c0,0,0,0,0-0.1l0-0.1l0-0.1L58.6,59l-0.1-0.2l-0.1,0l-0.1-0.1l-0.1-0.1l0,0l-0.2-0.2c0,0,0,0,0,0l0-0.2c0,0,0,0,0,0c0,0,0,0,0,0
			l0,0l0.1,0l0-0.1L58,58l-0.1-0.1l-0.1-0.1l-0.2-0.3l-0.1-0.1l-0.1-0.1l-0.1-0.1L57.5,57l-0.1-0.1l0-0.1l0-0.1l0-0.1l-0.1-0.2l0,0
			l-0.1-0.1L57,56.3l-0.1-0.1l0-0.1l-0.1-0.2c0,0,0-0.1,0-0.1l0,0l0.1,0.1l0,0l0.1,0.1l0.1,0.1l0,0.1l0,0l0.1,0.1l0.1,0.1l0.1,0.1
			l0.1,0l0,0c0-0.1,0-0.3,0.1-0.4l0-0.1l0,0l0-0.1c0,0.1,0,0.1,0,0.2l0,0.1l0,0.1c0,0,0,0.1,0,0.1c0,0,0,0,0,0l0.1,0l0.1,0l0.1,0.1
			l0.1,0.1l0.1,0.1c0.1,0.2,0.3,0.4,0.4,0.6l0.1,0.1l0,0l0.1,0.2l0,0l0,0.1l0,0.1l0,0.1l0.2,0.1l0,0l0,0c0.1,0.1,0.1,0.1,0.3,0.4
			l0.1,0.2c0,0,0,0,0,0l0,0.1c0,0,0,0.1,0,0.1c0,0.1,0,0.1,0,0.1l0,0.1c0,0,0,0,0,0.1l0,0.1l0.1,0.1l0.1,0.1l0,0l0.1,0.1l0.1,0
			l0.1,0.1l0.1,0l0.1,0.1l0.1,0.1l0.1,0.1l0,0.1l0,0.1v0c0.1,0.2,0.1,0.2,0.2,0.3l0.1,0.1c0,0,0,0,0,0.1l0,0.1
			c0.1,0.1,0.1,0.1,0.1,0.3l0,0.2c0,0.1,0,0.1,0,0.3l0,0.1l0,0.1l0.1,0.1l0,0.2l0,0c0,0.1,0,0.1,0,0.2l0,0.1l0,0l0.1,0c0,0,0,0,0,0
			l0.1,0l0,0l0.1,0l0.1-0.1l0.1-0.1l0.1-0.1l0,0c0,0,0,0,0,0l0.1-0.1l0-0.1l0,0l0,0l0,0l0.1,0C62,62.1,62,62,62.1,62l0.1,0l0.1,0
			l0.2-0.1l0,0l0,0l0.1,0c0.1-0.1,0.2-0.2,0.2-0.3l0.1-0.1l0.1,0H63l0.1,0l0.1-0.1l0.1,0c0,0,0,0,0,0c0.1,0,0.1,0,0.4-0.3l0,0l0,0
			l0,0l0-0.1l0-0.1l0-0.1l0.1-0.1l0.1-0.1c0,0,0.1-0.1,0.1-0.1c0,0,0,0,0,0l0.1-0.1l0,0c0,0,0,0,0.1,0c0.1,0,0.1,0,0.1,0l0.1,0
			c0,0,0,0,0,0l0.1-0.1l0.1-0.2c0,0,0,0,0,0l0-0.1l0.1-0.1l0.1-0.1l0-0.2l0.1-0.2l0.1-0.1c0,0,0.1-0.1,0.1-0.1c0-0.1,0-0.1,0-0.2
			l0-0.2l0,0l0.1-0.3c0,0,0,0,0,0l0,0l0,0.1l0,0l0,0l0-0.1l0-0.1c0-0.1,0.1-0.2,0.1-0.3l0.1-0.2l0-0.1l0-0.1l0-0.1l0-0.1l-0.1,0l0,0
			l0,0l0-0.1c0-0.1-0.1-0.1-0.1-0.2l0-0.1c0,0,0-0.1,0-0.1c-0.1,0-0.2,0-0.2,0l-0.2,0l0,0c-0.2-0.1-0.2-0.1-0.2-0.2
			c-0.1-0.1-0.1-0.1-0.1-0.6l0-0.1l-0.1,0.1l0,0l-0.1,0.1l-0.1,0.1l-0.1,0.1l0,0.1L64.2,57l-0.1,0.1L64,57.2l0,0c0,0,0,0,0,0
			c-0.1,0-0.2,0-0.3,0l-0.1,0l-0.1,0.1l0,0l0,0l0,0l0-0.1l-0.1,0l0,0l0,0l0,0l0-0.1l0-0.1l0-0.1l0,0l0-0.1l0-0.1l0,0l-0.1-0.1
			c0,0-0.1-0.1-0.2-0.1c0,0,0,0.1-0.1,0.1l0,0.1l0,0.2c0,0,0,0,0,0c0,0,0,0,0,0l0,0l0-0.1l-0.1-0.1l-0.1-0.1l0,0l0-0.1l0-0.1l0,0
			l0,0c0,0,0,0,0-0.1l-0.1-0.1l-0.1-0.1l0,0l0,0L62.3,56l0,0l0-0.1l-0.1-0.1l-0.1,0l0,0L62,55.5l0,0l0-0.1l0,0l0,0l0.1-0.1l0-0.1
			l0,0c0,0,0,0,0,0c0,0,0.1,0,0.1,0l0.1,0l0.1-0.1l0,0l0,0l0.1,0.1l0,0.1l0,0.1l0.1,0.1l0,0l0,0.1l0.1,0.1l0.1,0.1l0.1,0.1l0,0.1
			l0.1,0.1l0.1,0c0,0,0,0,0,0l0.1,0c0.1,0,0.1,0,0.2,0.1l0.1,0.1l0,0l0.1,0l0.1,0l0,0l0.1,0.1l0,0h0l0,0l0.1,0l0.1,0c0,0,0,0,0,0
			l0,0l0.1-0.1l0.1-0.1l0-0.1l0,0c0,0,0,0,0,0l0,0.1l0,0.1l0,0l0,0l0.1-0.1l0-0.1l0,0c0,0,0,0,0,0l0,0l0,0l0,0l0.1,0l0.1,0l0,0.1
			l0.1,0.2l0,0.1l0.1,0.1l0.1,0l0.1,0l0.1,0l0.1,0l0,0l0.1,0c0,0,0.1,0,0.1,0c0.2,0,0.2,0,0.3,0l0.1,0l0.1,0l0.2,0l0.1-0.1l0.1-0.1
			c0,0,0.1-0.1,0.2-0.1c0.1,0,0.1,0,0.1,0l0.1,0l0,0l0-0.1l0,0c0,0,0,0,0,0l0.1,0l0.1,0c0.1-0.1,0.2-0.1,0.3-0.2l0.1,0l0,0l0,0.1
			l0,0.1l0.1,0l0.1,0l0,0.1l0,0.2l0,0l0.1,0.1c0,0,0,0,0,0l0.1,0l0,0l0,0l0,0.1l0.2,0.2l0,0l0.1,0l0.1-0.1l0.1-0.1l0,0.1l-0.1,0.1
			L68.2,57l0,0l0,0L68.1,57l0,0.1l0.1,0l0.1,0l0.1,0.1l0.1,0.1l0.1,0.1l0.1,0.1l0,0.1l0.1,0.1l0,0l0,0l0.1-0.1l0.1-0.1l0.1-0.1
			c0,0,0,0,0,0l0.1-0.3l0-0.1l0,0c0,0,0,0,0,0l0-0.1l0-0.1v0c0,0,0,0,0,0l0,0.1l0,0.1l0,0l0,0.2l0,0l0,0.1l0,0l0.1,0.2l0,0.1l0,0.2
			l0,0.1l0,0.1v0l0,0.3l0,0c0,0.2,0.1,0.4,0.1,0.6l0,0.1l0,0.1l0.1,0.2l0,0l0,0c0.1,0.2,0.1,0.5,0.2,0.7l0,0.1c0,0.1,0,0.2,0,0.3
			c0,0.3,0.2,0.5,0.2,0.8c0,0.1,0,0.2,0,0.4v0.1l0,0.1l0,0.1c0,0.1,0,0.1,0.1,0.2l0.1,0.1l0,0l0.1-0.2l0-0.2l0,0c0,0,0,0,0,0l0-0.1
			l0,0l0.1-0.1l0,0h0h0l0,0l0-0.1l0,0l0,0c0,0,0,0,0,0c0,0,0,0,0,0l0-0.1l0-0.1l0-0.1c0,0,0,0,0,0l0,0c0,0,0,0,0,0h0l0-0.1l0-0.1
			c0,0,0,0,0,0l0-0.1l0-0.1l0,0c0-0.1,0-0.2,0.1-0.3l0.1-0.2c0-0.2,0-0.2,0-0.4v0c0-0.1,0-0.3,0-0.4l0-0.1l0-0.1l0-0.2l0-0.1l0-0.1
			l0,0l0,0l0,0l0.1-0.1l0,0l0-0.1l0,0h0l0,0l0,0l0.1-0.2l0,0l0-0.1l0,0h0c0,0,0,0,0,0l0,0l0.1-0.2l0,0l0-0.1l0-0.1l0-0.1l0,0
			c0.1-0.1,0.1-0.1,0.1-0.3l0-0.1l0-0.1l0.1-0.1l0-0.1l0-0.1l0.1-0.1l0,0l0.1-0.2l0,0l0-0.2l0-0.1l0-0.1l0-0.2l0,0l0-0.1l0,0l0-0.1
			v-0.1c0,0,0,0,0,0l0,0.2l0,0l0,0l0-0.1v-0.1l0,0l0,0l0.1,0.1l0,0l0,0l0-0.1l0-0.1l0,0l0,0l0,0l0-0.1l0-0.1l0-0.1l0,0.1l0,0l0,0
			l0,0l0,0l0,0l0-0.1l0,0l0-0.1c0,0,0,0,0,0l0,0.1c0,0,0,0,0,0l0-0.2c0,0,0,0,0,0l0,0l0,0l0,0l0,0.2l0,0.1l0,0.1l0,0.1
			c0,0.1,0,0.1,0.1,0.2l0,0.1l0,0l0,0.1l0,0.1l0,0h0l0-0.1l0,0l0,0c0,0,0,0,0,0l0,0v0l0,0l0,0.1l0,0.1l0,0.1l0,0.1l0,0.1l0,0h0
			l0-0.1l0,0l0,0l0,0.1l0,0.1l0,0.1l0,0.1l0,0.1v0.1c0,0,0,0,0,0.1l0,0.1l0,0.2l0,0.1l0,0.1l0,0.1l0,0.1l0,0l0.1,0l0,0l0,0l0,0l0,0
			l0,0l0,0l0-0.1l0-0.2l0,0l0,0l0-0.1l0-0.1l0-0.1l0-0.2l0-0.1l0,0.2l0,0.1l0,0.1l0,0l0,0c0,0,0,0,0,0.1l0,0.1l0,0.1l0,0.1
			c0,0,0,0,0,0v0.2v0.1l0,0.1l0,0l0,0.1l0,0l0,0.1l0,0.2l0,0l0,0l0,0.1l0,0l0,0.1l0,0.2c0,0,0,0,0,0l0,0.1c0,0,0,0.1,0,0.1l0,0.1
			l0,0.1l0,0.2l0,0.1l0,0.1l0,0.1l0,0.1l0,0.1l0,0.2c0,0.1,0,0.2-0.1,0.4l0,0.1l0,0l0-0.1l0-0.1l0-0.1c0,0,0,0,0,0v0
			c0,0,0,0.1,0,0.1c0,0,0,0,0,0l0,0.1c0,0.1,0,0.1,0,0.2l0,0l0,0l0-0.1c0,0,0,0,0,0l0,0l0,0l0,0c0-0.2,0.1-0.3,0.1-0.5v0l0,0l0,0
			l0,0l0-0.1l0-0.1l0,0l0,0l0,0c0,0,0,0,0,0c0,0,0,0,0,0v0l0-0.1v0c0-0.1,0-0.1,0-0.2c0,0,0-0.1,0-0.1l0-0.2l0-0.1l0-0.1l0,0l0-0.2
			c0-0.1,0-0.2,0-0.3l0-0.1l0-0.1c0,0,0-0.1,0-0.1l0-0.1l0-0.1l0,0l0-0.1l0-0.1l0,0l0,0l0,0.1c0,0,0,0,0,0l0,0.1v0l0,0l0,0l0,0l0,0
			l0,0l0,0C73.9,57.3,74.1,56.2,74.1,55.2C74.1,55.2,74.1,55.2,74.1,55.2z"/>
		<path class="st2" d="M36.5,75.1L36.4,75l-0.1-0.1l0,0h0c0,0,0,0,0,0l0,0l0-0.1l0,0l0-0.1l0,0l0,0c0,0,0,0,0,0l0,0c0,0,0,0,0,0
			l0.1,0.1l0,0l0,0l0,0l0.1,0.1l0,0l0,0v0c0,0,0,0,0,0l0-0.1l0,0l0,0l-0.1-0.1c0,0,0,0,0,0c0,0,0,0-0.1-0.1l0,0l-0.1-0.1l0-0.1l0,0
			c0,0,0,0-0.1-0.2L35.9,74l-0.2-0.2c0,0,0-0.1-0.1-0.1c0,0,0-0.1-0.1-0.1l0,0l-0.1-0.1l0,0v0l0,0l0-0.1l0,0l0-0.1l0-0.1l0,0l0,0
			l0,0l0.1,0l0.1,0l0,0l-0.1-0.1l0,0l0,0c0,0,0,0,0,0l0,0l0,0l0,0l0,0l0,0l0,0l0,0l0.1,0c0,0,0.1,0,0.1,0l0.1,0l0.1,0l0-0.1
			c0,0,0,0,0,0l0,0l0.1-0.1L36.2,73l-0.1-0.1l0,0l0,0l0-0.1l0,0l0-0.1l0,0v-0.1L36,72.4l-0.1-0.2l0-0.2l-0.1-0.1l0-0.1
			c0-0.1-0.1-0.3-0.1-0.3l0,0l-0.1-0.1l-0.1-0.2c0-0.1-0.1-0.2-0.1-0.3c0,0,0,0,0,0l0-0.1l-0.1-0.1l0,0l0,0l0,0l0.1-0.1l0,0
			c0-0.4,0.3-0.9,0.2-1.3c0,0-0.2-0.8-0.6-1l-0.1,0c0,0-0.1,0-0.1,0l-0.1-0.1l0,0l0,0h0l0,0l0-0.1l0-0.1l0,0l-0.1-0.1
			c0,0-0.6-0.6-0.8-0.7l-0.1,0l-0.1,0c-0.1-0.1-0.2-0.1-0.2-0.1L33,67c-0.1-0.1-0.2-0.2-0.3-0.1l0,0l0,0l-0.1,0l0,0l0,0l0-0.1l0-0.1
			l-0.1-0.1l0,0l0,0l0-0.1l0,0l0,0l-0.1-0.1l0,0l0,0l0,0l0,0l0-0.1L31.7,66l0,0l-0.1,0l-0.1,0.1l0,0.1l-0.1,0.1l0,0l0,0.1
			c0-0.1,0-0.1,0-0.2l0,0l0,0l0-0.1v-0.1l0-0.1l0-0.1l0-0.1l-0.2-0.1l0,0l0,0l-0.1-0.1l0,0c0,0,0,0-0.1,0c0,0,0,0,0,0l0,0l0-0.1
			l0-0.2l-0.1-0.2c-0.1-0.1-0.1-0.1-0.2-0.4l0-0.1l0-0.1l-0.1-0.2l0,0c0,0,0-0.1-0.1-0.1c0,0,0,0,0,0c0,0,0,0,0,0l0,0l0-0.1
			l-0.3-0.4l0,0c0,0,0,0,0,0l0,0l-0.1-0.1l-0.1-0.1l0,0c-0.1-0.1-0.1-0.1-0.2-0.1l0,0l-0.1,0l0,0l-0.1,0c0,0,0,0,0,0l-0.1-0.1
			l-0.1,0l-0.1,0l0-0.1l0,0l0,0l0,0l-0.1-0.1c0,0,0,0,0,0l0,0l0,0l0,0l0,0.1l0-0.2c0-0.1,0-0.1-0.1-0.3l-0.1-0.1l0,0l0,0l0-0.1
			l-0.1-0.1l0,0l0,0l0,0l-0.1,0c0,0,0,0,0,0c0,0,0,0,0-0.1l0,0l0,0l0-0.1l0,0l0-0.1l0,0c0,0,0,0,0,0l0,0l0,0l0,0l0,0l0-0.1l0,0l0,0
			l0,0l0-0.1l0,0l0,0l0,0c0,0,0,0,0,0l0-0.1l0,0l0,0l0,0l0,0c0,0,0,0,0,0l0,0l0,0l0,0c0,0,0,0,0,0l0,0l0,0l0,0c0,0,0,0,0,0l0,0v0
			l0-0.1c0,0,0,0,0,0l-0.1,0l-0.1,0c0,0,0,0,0,0l-0.1,0c0,0,0,0,0,0c0,0,0,0,0,0l0,0l0,0c0,0,0,0,0,0l0,0l0,0l0,0l0,0l0,0l0,0.1l0,0
			c0,0,0,0,0,0l0,0l0,0l0,0l0,0l0,0l0,0l0,0l0,0l0-0.1c0,0,0,0,0,0L27,60.2c0,0,0,0,0,0l0,0l0,0l0,0c0,0-0.1,0-0.1-0.1l0,0l0,0l0,0
			c0,0,0,0,0,0l0,0l0,0l0,0v0l0-0.1c0,0,0,0,0,0l0,0l0-0.1l0,0l0,0l0,0l0,0l0,0l0,0c0,0,0,0,0,0c0,0,0,0,0,0l0,0l0,0c0,0,0,0,0,0
			l0,0l0-0.1v0l0,0l0-0.1l0,0l0,0l0,0l0,0.1l0,0l0,0.1l0,0l0,0l0,0l0,0h0l0,0c0,0,0,0,0,0c0,0,0,0,0,0l0,0l0,0l0,0l0,0c0,0,0,0,0,0
			l0,0l0-0.1l0,0l0,0.1l0,0c0,0,0,0,0,0l0,0l0-0.1l0,0l0,0l0,0l0,0c0,0,0,0,0,0l0,0l0,0l0,0l0,0l0,0l0-0.1c0,0,0,0,0,0l0,0l0-0.1
			l-0.1-0.1l0,0l0,0l0,0.1l0,0.1c0,0,0,0,0,0l0,0l0,0l0,0l0,0l0,0l0,0c0,0,0,0,0,0l0,0c0,0,0,0,0,0l0,0l0,0l0,0l0,0l0,0.1l0,0.1l0,0
			l0,0c0,0,0,0,0,0l0,0l0,0l0,0c0,0,0,0,0,0c0,0,0,0,0,0c0,0,0,0,0,0l0,0l0,0l0,0l0,0.1l0,0.2c0,0,0,0.1,0,0.1l0,0.1c0,0,0,0,0,0
			c0,0,0,0,0,0c0,0,0,0,0,0c0,0,0,0,0,0l0,0v0l0,0.1l0,0l0,0l0,0.1l0,0l0,0.1l0,0l0,0l0-0.1l0-0.1l0-0.1l0-0.1l0-0.1l0-0.1l0-0.1
			l0-0.1l0,0l0-0.1l0,0l0,0l0,0c0,0,0,0,0,0v0c0,0,0,0,0,0l0,0l0,0c0,0,0,0,0,0l0,0.1l0,0l0,0l0,0l0,0l0,0l0-0.1l0-0.1l0-0.1
			c0,0,0,0,0,0c0.1,0.2,0.1,0.5,0.2,0.7l0,0l0,0l0,0l0,0.1l0.1,0c0,0,0,0,0,0c0,0,0,0,0,0l0,0l0,0c0,0,0-0.1,0-0.1l0,0l0-0.1l0-0.1
			l0,0l0,0l0,0c0,0,0,0,0,0l0,0l0-0.1v-0.1v0l0,0l0,0l0,0.1l0,0.1l0,0.1l0,0l0,0.1l0,0.1l0,0.1l0,0.1l0,0.1l0,0.1l0,0.1l0,0.2l0,0.1
			c0,0,0,0,0,0l0,0l0,0.1l0,0.1l0,0.1l0,0l0,0.1l0,0l0,0l0,0.1l0.1,0.3l0,0.1l0,0l0,0v0l0,0l0,0v0l0,0l0,0.1l0,0l0,0.1l0,0l0,0
			c0,0,0,0,0,0l0,0l0,0V62l0,0.1l0,0.1l0,0l0,0l0,0l0,0l0,0.1c2,5.4,5.8,10,10.7,12.9C36.6,75.2,36.6,75.2,36.5,75.1L36.5,75.1z
			 M26.2,60.4C26.2,60.4,26.2,60.4,26.2,60.4L26.2,60.4L26.2,60.4l-0.1-0.1c0,0,0,0,0,0l0-0.1l0-0.1l0-0.1l0,0l0-0.1l0,0v0l0,0
			c0,0,0,0,0,0l0,0.1c0,0,0,0,0,0l0,0.1l0,0.1l0,0l0,0.1l0,0C26.3,60.2,26.3,60.3,26.2,60.4L26.2,60.4z"/>
		<path class="st2" d="M70.4,40.6L70.4,40.6L70.4,40.6l0.1,0.1C70.5,40.6,70.4,40.6,70.4,40.6L70.4,40.6
			C70.3,40.5,70.3,40.5,70.4,40.6L70.4,40.6z"/>
		<path class="st2" d="M24.6,50.2C24.6,50.2,24.6,50.2,24.6,50.2L24.6,50.2L24.6,50.2L24.6,50.2L24.6,50.2l0,0.1l0,0.1c0,0,0,0,0,0
			l0,0l0,0l0,0l0,0l0,0l0,0l0,0l0,0.1l0,0.1c0,0,0,0,0,0l0,0.1l0,0l0,0l0,0l0,0l0,0l0,0l0,0c0,0,0,0,0,0c0,0,0,0,0,0l0,0l0,0l0,0.1
			l0,0l0,0l0,0l0,0l0,0l0,0l0,0l0,0l0-0.1l0,0.1v0l0,0.1v0v0l0,0c0,0,0,0,0,0l0,0l0,0l0-0.1l0,0l0-0.1v0v0v0l0,0l0,0l0,0l0,0
			c0,0,0,0,0,0l0,0c0,0,0,0,0,0l0,0l0,0l0,0l0,0l0,0l0,0l0,0l0,0l0,0c0,0,0,0,0,0c0,0,0,0,0,0h0l0,0l0,0l0-0.1c0,0,0,0,0,0l0,0.1
			c0,0,0,0,0,0.1l0,0l0,0l0,0l0.1,0l0,0l0,0l0,0c0,0,0,0,0,0c0,0,0,0,0,0l0,0v0l0,0.1l0,0c0,0,0,0,0,0.1c0,0,0,0,0,0l0,0.2l0.1,0
			l0,0l0,0h0l0,0.1l0,0l0,0.1l0,0.1l0,0l0,0l0,0.1l0,0l0,0l0,0.1l0,0.1l0,0.2l0,0.1l0,0l0,0l0,0c0,0,0,0,0,0l0,0.1l0,0.1l0,0.3
			c0,0,0,0,0,0l0,0c0,0,0,0,0,0l0,0l0,0l0,0.1l0,0l0,0l0,0l0,0.1l0,0.2l0,0.1l0,0l0,0.1l0,0.1l0,0.1l0,0l0,0l0,0l0,0l0-0.1l0-0.1
			c0-0.1,0.1-0.2,0.1-0.3c0.1-0.3,0.1-0.5,0.1-0.8c0,0,0,0,0,0l0,0l0,0l0-0.1c0-0.1,0-0.1,0-0.2c0.1-0.7,0.1-0.7,0.7-1.4l0.1-0.1
			l0.1,0l0,0l0-0.1l0.1-0.1l0.1,0l0.1,0l0-0.1v0l0,0l0,0l0,0l0,0c0,0,0,0,0.1,0c0.1-0.1,0.1-0.1,0.1-0.2l0,0l0,0c0,0,0,0,0,0l0,0
			l0,0l0,0l0,0l0-0.1c0,0,0,0,0-0.1l0-0.1l0,0c0,0,0,0,0,0l0,0l0,0c0,0,0,0,0,0l0,0l0,0l0,0l0,0l0,0l0,0l0,0c0,0,0,0,0,0l0,0l0,0
			l0,0c0,0,0,0,0,0l0,0l0,0l0-0.1l0-0.1l0,0l0,0l0,0c0,0,0,0,0,0l0,0l0-0.1l0-0.1l0,0l0.1-0.1l0,0l0,0l-0.1,0.1l-0.1,0.1l-0.1,0.2
			c0,0,0,0,0,0.1l0,0.1l0,0.1l0,0.1c0,0,0,0,0,0c0,0,0,0,0,0l0,0l0,0L27.2,49c0,0,0,0,0,0c0,0,0,0,0,0.1l0,0l0.1-0.1l0,0l0,0l0,0
			l0,0l0.1,0l0.1-0.1l0,0l0-0.1l0-0.1l0-0.1c0,0,0,0,0,0c0,0,0-0.1,0-0.1l0,0.1l0,0.1l0,0l0,0c0,0,0,0,0,0.1l0,0l0,0l0,0l0,0
			l0.1-0.1l0.1-0.1l0,0l0,0l0-0.1l0.1-0.1l0,0l0-0.1l0-0.1l0,0l0,0c0,0,0,0,0,0l0,0l0,0.1l0,0l0.1,0l0,0l0,0l0,0c0,0,0,0,0,0l0.1,0
			h0l0,0l0,0c0,0,0,0,0,0l0,0l0,0l0,0l0,0h0c0,0,0,0-0.1,0l0,0l0,0h0.1l0,0c0.1,0,0.1,0,0.1,0c0,0,0.1,0,0.1-0.1c0,0,0,0,0,0
			c0,0,0,0,0,0l0,0l0,0l0,0c0,0,0,0,0,0l0,0c0,0,0,0,0,0l0.1,0l0,0c0,0,0,0,0,0l0,0l-0.1,0l0,0l0,0l0.1-0.1l0,0l0,0l0,0c0,0,0,0,0,0
			c0,0,0,0,0,0l0,0l0,0c0,0,0,0,0-0.1l0-0.1l0,0l0,0.1l0,0h0c0,0,0,0,0,0c0,0,0,0,0,0l0,0c0,0,0-0.1,0-0.1l0,0l0,0l0,0c0,0,0,0,0,0
			l0-0.1l0,0c0,0,0,0,0,0l0,0l0,0l0,0l0-0.1l0,0l0,0l0.1-0.1l0,0l0.1-0.1c0,0,0,0,0,0c0,0,0,0,0,0l0,0l0,0h0l0,0l0,0l0.1,0l0.1-0.1
			l0,0l0,0l0,0l0,0.1l0,0l0,0.1l0,0.1l0.1,0l0,0l0,0l0.1,0l0,0l0,0l0.1,0l0.1,0l0.1,0l0,0l0-0.1c0,0,0,0,0,0l0,0h0.1l0.1,0l0,0l0,0
			c0,0,0,0,0,0l0,0l0,0l0,0l0.1,0l0,0l0.1,0l0.1,0l0.1,0l0,0l0,0l0,0l-0.1,0l0,0l0,0l0,0l0.1,0l0.1,0l0,0c0,0,0,0,0,0.1l0,0l0,0l0,0
			c0,0,0,0,0,0l0,0l-0.1,0l0,0c-0.1,0-0.1,0-0.2,0.1l0,0l0,0l0,0c0,0,0,0,0,0l0,0c0,0,0,0,0,0l0,0l0,0l-0.1,0.1l0,0l0,0.1v0.1l0,0.1
			c0,0,0,0,0,0l0.1,0l0,0l0.1,0l0.1-0.1l0,0l0.1,0l0-0.1l0,0l0,0l0,0l0,0l0,0l0,0l0,0l0,0l0,0h0l0,0l0,0l0,0l0,0l0,0c0,0,0,0,0,0
			c0,0,0,0,0,0l0.1,0l0,0l0.1,0l0,0l0.1,0l0.1,0l0,0l0.1-0.1l0,0c0,0,0,0,0,0c0,0,0,0,0,0h0l0,0l0,0l0.1,0l0.1-0.1c0,0,0,0,0,0
			c0,0,0,0,0,0l0,0l0,0l0,0c0,0,0,0,0,0l0,0l0,0l0,0l0,0l0,0l0-0.1l0-0.1l0,0l0,0h0l-0.1,0l0,0.1L31.5,47l0,0l-0.1,0l0,0l0,0.1
			l0,0.1c0,0,0,0,0,0h0l0,0l0-0.1l0,0c0,0,0,0,0,0l0,0l-0.1,0h0h0l0,0l0,0l0,0c0,0,0,0,0,0c0,0,0,0,0,0c0,0,0,0,0,0l0,0l-0.1,0l0,0
			l0-0.1l0,0l0-0.1c0,0,0,0,0,0l0,0l0,0c0,0,0,0,0,0c0,0,0-0.1,0-0.1l0-0.1l0,0v-0.1l0,0v0l0,0l0,0l0,0l0,0l0.1-0.1l0,0l0,0l0,0
			c0,0,0,0,0,0l0,0c0,0,0,0,0,0c0,0,0,0,0,0c0,0,0,0,0,0l0,0l0,0l0,0l0,0l0,0l0,0l0,0l0,0c0,0,0,0,0,0l0,0c0,0,0,0,0,0c0,0,0,0,0,0
			l0,0c0,0,0,0,0,0l0.1,0l0,0l0,0l0,0.1l0,0.1c0,0,0,0,0,0l0.1,0l0,0l0,0l0.1,0l0,0l0,0l0,0l0.1-0.1l0,0l0-0.1l0,0
			c0-0.1,0-0.1-0.1-0.1c0,0,0,0,0,0l0,0c-0.6,0-0.6,0-1.3,0.4l0,0l0,0l0.1,0l0.1-0.1l0.2-0.1l0,0l0.1-0.1l0.2-0.1l0,0l0.1-0.1l0.1,0
			l0.1,0l0,0l0.1,0c0,0,0,0,0,0l0.1,0l0,0l0,0c0,0,0,0,0,0c0,0,0,0,0,0l0,0l0.1,0l0.1-0.1l0-0.1l0,0l0,0l0,0c0.1,0,0.2-0.1,0.6,0.1
			c0.2,0.1,0.2,0.1,0.2,0.1c0,0,0,0,0,0.1l0,0l0,0l0,0h0h0.1l0,0c0,0,0,0,0,0c0,0,0,0,0,0l0,0l0,0l0.1,0l0,0l0,0l0,0l0,0l0,0l0.1,0
			l0.1,0l0,0l0,0l0,0l0,0l0,0c0,0,0,0,0,0c0,0,0,0,0,0l0,0c0,0,0,0,0,0l0,0c0,0,0,0,0,0l0,0l0,0l0,0l0,0c0,0,0,0,0,0c0,0,0,0,0,0
			l0.1,0l0,0c0,0,0,0,0,0l0,0l0,0l0.1,0l0,0l0.1,0l0,0l0.1,0c0,0,0,0,0,0c0,0,0,0,0,0l0.1,0l0.1,0l0.1-0.1l0,0c0,0,0,0,0-0.1l0-0.1
			l0,0l0,0l0.1,0l0,0l0,0l0-0.1c0,0,0,0,0,0l0-0.1l0-0.1l0-0.1l0,0c0,0,0,0,0,0l0,0l0,0l0-0.1l0,0c0,0,0,0,0,0c0,0,0,0,0,0
			c0,0,0,0,0,0h-0.1l-0.1,0l-0.1,0h-0.1l-0.1,0l0,0l0.1,0c0,0,0,0,0,0l0,0l0.1-0.1l0,0l0,0l0.1,0l0,0l0,0c0,0,0,0,0,0l0-0.1l0,0l0,0
			l0,0l0,0l0-0.1l0,0.1c0,0,0,0,0,0l0,0h0l0,0l0,0l0,0l0-0.1l0,0l0,0l0,0c0,0,0,0,0,0l0,0h0v0l0-0.1l0,0c0,0,0,0,0,0.1l0-0.1l0,0
			l0,0c0,0,0,0,0,0l0,0l0,0c0,0,0,0,0,0c0,0,0,0,0,0l0-0.1l0-0.1l0,0l0,0l0,0l0.1-0.1l0.1-0.1l0,0l0,0c0,0,0,0,0,0h0l0,0
			c0,0,0,0,0,0l0-0.1c0,0,0,0,0,0c0,0,0,0,0,0l0,0l0,0l0-0.1l0,0l0,0l0,0c0,0,0,0,0,0l0,0l0.1-0.1c0,0,0,0,0,0c0,0,0,0,0,0
			c0,0,0,0,0,0l0,0l0-0.1l0-0.1l0,0l0,0l0-0.1l0-0.1l0,0l0,0c0,0,0,0,0,0l0,0l0.1-0.1l0,0l0-0.1l0,0l0,0l-0.1,0.1l-0.1,0l-0.1,0.1
			l-0.1,0.1L34,42.6l-0.1,0.1l-0.1,0l0,0l0,0l0,0l-0.1,0l-0.1,0l-0.1,0l-0.1,0l0,0l0,0l0,0l0-0.1c0,0,0,0,0,0l0,0c0,0,0,0,0,0
			c0,0,0,0,0,0l0-0.1l0,0c0,0,0,0,0,0l0,0v0c0,0,0,0,0,0c0,0,0,0,0,0l0-0.1l0,0l0,0l0.1-0.1l0-0.1l0,0c0,0,0,0,0,0l0,0l0-0.1l0,0
			l0,0l0,0l0,0l0.1,0l0,0l0-0.1l0,0c0,0,0,0,0,0v0c0,0,0,0,0,0c0,0,0,0,0,0l0,0l0,0l-0.1,0c0,0,0,0,0,0v0l0,0l0,0l0,0l0,0l-0.1,0
			l0,0l0,0l0,0l0.1,0l0,0l0,0v0c0,0,0,0,0,0l0,0v0l0,0l0-0.1l0,0v0l0,0v0l0,0l0,0l0,0c0,0,0,0,0,0l-0.1,0l0,0l0,0c0,0,0,0,0,0
			l-0.1,0c0,0,0,0,0,0l0,0l0,0c0,0,0,0,0,0l0,0l-0.1-0.1l0,0l0,0l0,0l-0.1,0l0,0l0,0l-0.1,0l-0.1,0.1l0,0l0,0.1l0,0l0,0l-0.1,0
			l-0.1,0.1l0,0.1l0,0l0,0l-0.1,0.1l0,0.1v0c0,0,0,0,0,0c-0.1,0-0.2,0.1-0.3,0.1l0,0l-0.1,0C32,42,32,42,32,42.4l-0.1,0.2
			c-0.3,0.3-0.3,0.3-0.8,0.5l-0.1,0h-0.1l-0.1,0c0,0,0,0,0,0l-0.1,0l0,0c0,0-0.1,0.1-0.1,0.1l0,0l0,0.1l0,0l0,0l0,0.1l-0.1,0.1l0,0
			l-0.1,0.1l0,0.1l-0.1,0.1l0,0l-0.1,0L30.1,44c0,0,0,0,0,0L30,44.1l0,0.1l0,0l0,0l0-0.1l0,0l0,0l0,0l-0.1,0.1l0,0l0,0l0-0.1
			c0,0,0,0,0,0l0,0l0,0l0,0l0-0.1l0-0.1l0-0.1l0,0l0,0l0,0l0,0l0-0.1l0-0.1l0-0.1l0,0c0,0,0,0,0,0l0,0l0,0l0,0l0,0l0,0l0,0l0.1-0.1
			c0,0,0,0,0-0.1l0-0.1l0,0l0.1,0l0.1,0l0.1-0.1l0-0.1l0-0.1c0,0-0.1-0.1-0.2-0.1c0,0,0,0,0,0c0,0,0,0,0,0l-0.1,0l0.1-0.1l0,0l0,0
			l0,0l0,0l0-0.1l0,0c0,0,0,0,0,0l0,0c0,0,0,0,0,0l0,0l0,0l0-0.1l0-0.1l0,0l0-0.1l0-0.1l0,0c0,0,0,0,0,0l0,0l0,0l0-0.1l0-0.1l0,0
			l-0.1,0l0,0l0,0l0,0l-0.1,0c0,0,0,0,0,0c0,0,0,0,0,0l0,0l0,0l0.1-0.1c0,0,0,0,0-0.1l0-0.1c0,0,0,0,0,0l0.1-0.1l0,0l0,0l0,0l0,0
			l0-0.1l-0.1-0.1l0,0l0,0c0,0,0,0,0,0l0,0c0,0,0,0,0,0l0,0l0,0l0,0l0,0l0,0l0,0l0.1,0l0.1,0l0.1-0.1l0,0l0,0l0.1,0l0,0l0.1,0l0,0
			l0.1,0l0,0l0,0l0,0l0,0l0,0l0,0l0,0c0,0,0,0,0,0v0l0,0l0,0l0,0l0,0l0,0l0,0l0,0l0,0c0,0,0,0,0,0c0,0,0,0,0,0l0.1,0l0-0.1
			c0,0,0,0,0,0l0,0l0,0l0,0h0l0,0l0,0h0l0.1,0l0,0l0.1-0.1l0-0.1c0,0,0,0,0,0c0,0,0,0,0,0l0,0l0-0.1l0,0l0,0l0,0l0,0l0,0h0l0,0l0,0
			l0,0l0,0l0,0v0l0,0l0,0l0,0l0,0l0.1,0c0,0,0,0,0,0c0,0,0,0,0,0v0l0,0l0,0l0.1,0l0,0l0.1,0l0,0l0,0l0,0c0,0,0,0,0,0c0,0,0,0,0,0
			l0,0c0,0,0.1,0,0.1,0c0,0,0,0,0,0l0,0l0.1-0.1l0,0l0,0l0.1,0l0.1,0l0.1,0l0,0l0,0l0,0l0,0l0,0l0.1,0l0,0l0,0l0,0l0.1,0l0,0l0,0
			l0,0c0,0,0,0,0,0l0,0l-0.1,0l-0.1,0l0,0L33.2,40l0,0l-0.1,0l-0.1,0l-0.1,0l-0.1,0l0,0l0,0c0,0,0,0,0,0c0,0,0,0,0,0c0,0,0,0,0,0
			l0,0l-0.1,0l0,0l-0.1,0l0,0l0,0l-0.1,0.1c0,0,0,0,0,0l0,0c0.1,0,0.1,0,0.2,0c0,0,0,0,0,0l-0.1,0.1l-0.1,0.1l0,0l0.1,0l0.1,0l0.1,0
			l0.1,0l0,0l0.1-0.1l0,0l0,0l0,0l0,0l0,0.1v0l0,0l0,0l0,0l0,0c0,0,0,0,0,0c0,0,0,0,0,0l0,0c0,0,0,0,0,0l0,0l0,0l0,0.1c0,0,0,0,0,0
			l0.1,0l0,0l0.1,0l0,0l0,0l0,0l0,0v0v0l0,0l0,0l0,0c0,0,0,0,0,0c0,0,0,0,0,0l0,0l0,0l0,0l0.1,0l0,0l0,0l0,0l0,0l0,0l0,0
			c0,0,0,0,0,0c0,0,0,0,0,0l0,0l0,0l0,0v0l0,0c0,0,0,0,0,0c0,0,0,0,0,0c0,0,0,0,0,0c0,0,0,0,0,0l0,0l0,0l0.1-0.1c0,0,0,0,0-0.1l0,0
			l0,0l0,0l0,0L33.4,40c0,0,0,0,0,0l0,0l0,0l0,0l0,0l0,0h0l0,0l0,0l0.1-0.1c0,0,0,0,0,0l0,0c0,0,0,0,0,0l0,0l0,0l0,0c0,0,0,0,0,0
			l0,0l0,0l0,0l0,0l0,0l0,0l0,0h0c0,0,0,0,0,0l0,0L33.5,40l0,0c0,0,0,0,0,0l0,0l0,0l0,0l0-0.1l0,0l0,0l0-0.1v0c0,0,0,0,0,0l0,0l0,0
			l0,0h0v0l0.1,0l0,0l0,0l0,0l0,0l0,0l0,0l0,0c0,0,0,0,0,0l0,0l0,0l0,0l0,0l0,0l0,0l0.1,0l0,0c0,0,0,0,0,0c0,0,0,0,0.1,0l0,0l0,0
			l0.1-0.1l0-0.1l0,0c0,0,0,0,0,0l0,0l0,0l0,0l0,0l0.1,0l0,0l0,0l0.1,0l0.1-0.1l0.1,0l0-0.1c0,0,0,0,0,0l0,0l0,0c0,0,0,0,0,0l0,0
			l0,0l0,0l0,0l0,0l0,0l0,0c0,0,0,0,0,0l0,0l0,0.1l0,0l0,0.1l0,0l0,0l0,0c0,0,0,0,0,0l0,0l0,0l0,0l0,0l0,0c0,0,0,0,0,0c0,0,0,0,0,0
			l0,0c0,0,0,0,0,0l0.1,0c0,0,0,0,0,0l0.1-0.1l0,0l0,0l0,0.1l0,0l0,0c0,0,0,0,0,0l0,0l-0.1,0l-0.1,0l0,0l0.1,0c0,0,0,0,0,0l0,0l0,0
			l0,0l0,0l0,0c0,0,0,0,0,0l0,0c0,0,0,0,0,0l0,0c0,0,0,0,0,0c0,0,0,0,0,0c0,0,0,0,0,0l0,0c0,0,0,0,0,0c0,0,0,0,0,0l0,0l-0.1,0.1
			l0,0.1h0l0,0l0.1,0c0,0,0,0,0,0c0,0,0,0,0,0l0,0l0,0l0,0l0,0l0,0l0,0l0.1,0l0,0l0,0l0,0l0,0l0,0.1c0,0,0,0,0,0l0,0c0,0,0,0,0,0
			c0,0,0,0,0,0l0,0l0,0l-0.1,0.1l0,0.1c0,0,0,0,0,0c0,0,0,0,0,0l0,0l0,0l0,0l0,0l0,0l0,0l0,0l0,0l0,0c0,0,0,0,0,0l0,0l0,0
			c0,0,0,0,0,0c0,0,0,0,0,0c0,0,0,0,0,0l0,0l0,0l0,0l0,0.1l0,0.1l0,0l0,0l0,0l-0.1,0l-0.1,0.1l0,0c0,0,0,0,0,0l0,0l0,0l0,0l-0.3,0.1
			l0,0l0,0.1l0,0.1l0,0l0,0l0,0l0,0c0,0,0,0,0,0l0,0l0,0l0,0l-0.1,0l0,0l0,0l0,0l0,0l0,0c0,0,0,0,0,0l0,0l0,0l0,0l-0.1,0l0,0l0,0
			c0,0,0,0,0,0c0,0,0,0,0,0l-0.1,0l0,0l-0.2,0.1l0,0l0,0c0,0,0,0,0,0.1c0,0,0,0,0.1,0.1l0,0l0.1,0c0,0,0,0,0,0l0,0l0,0l0,0l0,0l0,0
			l0,0l0,0l0,0l0,0l0,0l0,0l0,0l0,0l0,0l0.1-0.1c0,0,0,0,0,0l0,0h0v0l0,0l0,0l0,0l0,0l0,0l0,0l0,0l0,0l0,0.1l0,0l0,0l0,0l0,0
			l-0.1,0.1l0,0l0,0c0,0,0,0,0,0c0,0,0,0,0,0l0,0l0,0.1l0,0l0,0.1l0,0l0,0l0,0.1c0,0.1,0.1,0.1,0.1,0c0,0,0,0,0,0c0,0,0,0,0,0l0,0
			l0,0l0,0.1v0l0,0.1c0,0,0,0,0,0l0,0l0,0l0,0c0,0,0,0,0,0l0,0l0,0l0,0l0,0l0,0.1l0,0l0,0l0,0l0,0l0,0c0,0,0,0,0,0l0,0l0-0.1
			c0,0,0,0,0,0l0-0.1c0-0.1,0-0.2,0-0.2v0c0,0,0-0.1,0-0.1c0,0,0,0,0,0c0,0,0,0,0,0c0,0,0,0,0,0l0,0l0,0.1v0l0,0v0l0,0
			c0,0,0,0,0,0.1c0,0,0,0,0,0.1l0,0l0,0.1l0,0l0,0l0,0l0.1-0.1c0,0,0,0,0,0l0,0l0,0l0-0.1l0,0l0,0l0.1-0.1l0,0c0,0,0,0,0,0l0,0l0,0
			l0,0c0,0,0,0,0,0l0,0l0,0l0,0l0.1,0l0,0l0.1-0.1l0-0.1l0,0v0l0,0l0,0c0,0,0,0,0,0l0,0l0,0l0,0l0,0l0-0.1l0,0l0-0.1l0,0
			c0,0,0,0,0,0l0,0l0,0l0-0.1l0,0c0,0,0,0,0-0.1l0-0.1l0,0l0,0l0.1,0c0,0,0,0,0,0l0,0l0,0l0,0l0.1-0.1l0,0l0,0l0,0l0,0l0,0l0,0l0,0
			l0,0l0,0l0,0.1l0,0.1v0l0,0l0,0c0,0,0,0,0,0l0,0c0,0,0,0,0,0l0,0c0,0,0,0,0,0c0,0,0,0,0,0l0.1,0l0,0l0.1,0l0,0l0,0l0-0.1l0,0
			c0,0,0,0,0,0l0,0l0,0l0,0l0,0l0,0l0,0l0,0l0,0l0.1-0.1c0,0,0,0,0,0c0,0,0,0,0,0l0,0l0,0l0,0l0,0l0,0c0,0,0,0,0,0l0,0l0,0l0,0
			l0.1,0l0,0c0,0,0,0,0,0c0,0,0,0,0,0c0,0,0,0,0,0c0,0,0,0,0,0c0,0,0,0,0,0l0,0l0,0c0,0,0-0.1,0-0.1c0,0,0,0-0.1,0l0,0l0-0.1l0,0
			l0-0.1l0-0.1l0,0l0,0l0-0.1l0,0l0,0l0,0l0,0l0,0l0,0c0,0,0,0-0.1,0c0,0,0.1,0,0.1,0l0,0l0,0l0,0l0.1,0c0,0,0,0,0,0c0,0,0,0,0,0
			l0,0l0.1,0l0,0l0,0l0,0l-0.1,0l0,0l0,0c0,0,0,0,0,0l0,0c0,0,0,0,0,0l0,0l0,0l0,0h0l0,0l0,0l0,0c0,0,0,0,0,0l0-0.1l0,0l0,0l0,0
			c0,0,0,0,0,0l0,0l0,0l0.1,0l0,0l0,0l0,0l0,0l0,0c0,0,0,0-0.1,0c0,0,0,0,0,0l0,0l0-0.1l0,0l0,0l0-0.1l0,0l0,0l0,0l0,0l0,0l0,0l0,0
			l0,0l0,0c0,0,0,0,0,0l0,0l0,0l0-0.1l0-0.1l0-0.1l0,0c0,0,0,0,0,0l0,0l-0.1,0l0,0c0,0,0,0,0,0c0,0,0,0,0,0c0,0,0,0,0,0l0,0l0.1-0.1
			l0,0l0-0.1l0,0l-0.1,0c0,0,0,0-0.1,0l0,0l0,0l0,0l0,0l0,0l0,0l-0.1,0l0,0l0,0l0,0.1c0,0,0,0,0,0l-0.1,0.1l0,0l0,0.1l0,0l0.1,0l0,0
			l0,0l0,0c0,0,0,0,0,0l-0.1,0c0,0,0,0,0,0l-0.1,0l-0.1,0l0,0c0,0,0,0,0,0l0,0v0l0,0c0,0,0,0,0,0h0l-0.1,0l0,0l0,0l0,0l0,0l0,0
			l0.1,0l0,0l0.1-0.1l0,0l0-0.1l0,0c0,0,0,0,0,0l0.1-0.1c0,0,0,0,0,0l0,0l0,0l0,0l0,0c-0.1,0-0.3,0-0.3,0l0,0l0,0h-0.1l-0.1,0l0,0
			l0,0l-0.1,0l-0.1,0l0,0c0,0,0,0,0,0l0,0c0,0,0,0,0,0c0,0,0,0,0,0c0,0,0,0,0,0l0,0l0,0l-0.1,0l0,0l0,0l0,0.1l0,0l0,0l0,0l0,0l0,0
			l0,0l0,0c0,0,0,0,0,0l0,0l0,0l0-0.1l0,0l0,0l0.1,0l0.1,0c0,0,0,0,0,0l0,0c0,0,0,0,0,0l0,0l0,0h0l0.1,0l0.1,0l0,0l0.1,0l0,0l0,0
			l0,0l0,0l0.1,0l0,0l0,0l0,0l-0.1,0c-0.3-0.1-0.6,0-0.6,0.1l0,0l-0.1,0l-0.1,0.1L35,38.3l0,0l-0.1,0l0,0l0,0l0,0l0,0l0,0
			c0,0,0,0,0,0v0c0,0,0,0,0,0l0.1,0l0,0l0,0l0,0l0,0l0,0v0c0,0,0,0,0,0l-0.1,0l0,0l0,0l0,0l0,0l-0.1,0c0,0,0,0,0,0l0,0.1
			c0,0.1,0,0.1,0,0.1l0,0c0,0,0,0,0,0l0.1,0c0,0,0,0,0,0l0,0l0,0l0,0l0,0l0,0l0,0l0,0c0,0,0,0,0,0c0,0,0,0,0,0c0,0,0,0,0,0l0,0
			c0,0,0,0,0,0c0,0,0,0,0,0c0,0,0,0,0,0l0,0h0l0,0l0,0c0,0,0,0,0,0l0,0l0,0c0,0,0,0,0,0l0,0c0,0,0,0,0,0l0,0l0,0l0,0l0,0
			c0,0,0,0,0,0l0,0l0,0l0,0c0,0,0,0,0,0l0,0c0,0,0,0,0,0c0,0,0,0,0,0c0,0,0,0,0,0v0l0,0l0,0l-0.1,0.1l0,0.1c0,0,0,0,0,0c0,0,0,0,0,0
			l-0.1,0c0,0,0,0,0,0c0,0,0,0,0,0c0,0,0,0-0.1,0l-0.1,0.1l-0.1,0.1l-0.1,0l0,0l0.1-0.1l0,0v0c0,0,0,0,0,0l0,0l-0.1,0l0,0l-0.1,0.1
			l0,0l0,0c0,0,0,0,0,0c0,0,0,0,0,0l0,0l0,0l0,0c0,0,0,0,0,0l0,0l0,0l0,0h0l0,0c0,0,0,0,0,0l0,0l0-0.1l0,0l0,0l0,0l0,0l0,0l0.1-0.1
			l0,0l0,0c0,0,0,0,0,0l0,0l0,0l0,0v0l0,0l0,0l0,0c0,0,0,0,0,0l0,0l0,0l0.1-0.1v0l0,0l0,0l0,0h0l0,0L34,39l0,0L33.9,39l0,0l0,0l0,0
			c0,0,0,0,0,0l0,0l0-0.1c0,0,0,0,0,0l0.1-0.1l0.1-0.1l0,0l0,0l0,0v0l0,0l0,0l0,0l0-0.1l0-0.1l0,0l0,0c0,0,0,0,0,0l0,0l0,0l-0.1,0
			l0,0c0,0,0,0,0,0l0,0l0,0l0,0l0,0l0,0l0.1,0l0,0l0,0l0,0c0,0,0,0,0,0c0,0,0,0,0,0v0l0,0c0,0,0,0,0,0c0,0,0,0,0,0l0,0l0,0l0,0l0,0
			l0,0c0,0,0,0,0,0l0,0l0.1-0.1l0-0.1l0,0l0,0l0,0l0,0c0,0,0,0,0,0c0,0,0,0,0,0l0,0c0,0,0.1,0,0.1,0l0,0l0,0l0,0l0,0l0,0l0,0l0,0
			l0.1,0.1l0,0l0.1,0l0.1,0l0.1,0l0.1,0l0,0l0.1,0l0,0c0,0,0,0,0,0l0,0l0,0l0,0c0,0,0,0,0,0l0,0c0,0,0,0,0,0c0,0,0,0,0,0
			c0,0-0.1,0-0.1,0c0,0,0,0,0,0h0c0,0,0,0,0,0v0l0,0l-0.1,0l0,0c0,0,0,0-0.1,0l-0.1,0l0,0l-0.1,0l0,0.1l0,0l0,0l0,0l0,0l0,0l-0.1,0
			l0,0c0,0,0,0,0,0l0,0l0,0l0,0L34.7,38c0,0,0,0,0,0l-0.1,0.1l-0.2,0.1l0,0l-0.1,0l0,0c0,0,0,0,0,0l0,0c0,0,0,0,0,0l0,0l0,0l0,0l0,0
			l0,0l0,0l-0.1,0l0,0l0,0l-0.1,0c0,0,0,0,0,0l0,0.1c0,0,0,0,0,0l-0.1,0l-0.1,0l0,0l0,0l0,0l0,0.1l0,0l0,0l0,0l0,0h0l0,0l0,0l0,0
			l0,0l0,0l-0.1,0l0,0l0,0l0,0c0,0,0,0,0,0l0,0l0,0l0,0l0,0l0,0l0,0l0,0l0,0l0,0l0,0l-0.1,0l0,0l-0.1,0l0,0c0,0,0,0,0,0l0,0l0,0
			c0,0,0,0,0,0l0,0l0,0l0,0l0,0l0,0l0,0l0,0l0,0l0,0l0,0c0,0,0,0,0,0c0,0,0,0,0,0l0,0l0.1,0l0,0l0.1,0h0l0,0l0,0c0,0,0,0,0,0l0,0
			l0,0v0l0,0l0,0c0,0,0,0,0,0l0,0c0,0,0,0,0,0l0,0l0,0l0,0l0,0l0.1,0l0,0l0,0l0,0l0,0l0,0l0,0c0,0,0,0,0,0c0,0,0,0,0,0l0,0l0,0
			c0,0,0,0,0,0l0,0l0,0l0,0l0,0l0,0c0,0,0,0,0,0h0l0,0l0,0c0,0,0,0,0,0l0,0l0,0l0,0l0,0l0,0c0,0,0,0,0,0l-0.1,0l0,0l0,0l0,0h0
			c0,0,0,0,0,0l0,0l-0.1,0l0,0l0,0c0,0,0,0,0,0h0l-0.1,0l0,0l0,0l0,0l0,0c0,0,0,0,0,0l0,0l0,0c0,0,0,0,0,0l0,0l0,0l0,0l0,0l0,0l0,0
			c0,0,0,0,0,0c0,0,0,0,0,0l0,0l0,0l0,0l0,0c0,0,0,0,0,0l0,0c0,0,0,0,0,0h0l0,0l0,0c0,0,0,0,0,0c0,0,0,0,0,0l0,0l0,0c0,0,0,0,0,0
			l0,0l0,0c0,0,0,0,0,0h0l-0.1,0c0,0,0,0,0-0.1c0,0,0,0,0-0.1l0,0l0,0l0,0h0c0,0,0,0,0,0l0,0l0,0l0.1,0h0l0,0l0,0l0-0.1h0l0,0l0-0.1
			l0,0c0,0,0,0,0,0c0,0,0,0,0,0c0,0,0,0,0,0l0,0l-0.1,0l-0.1,0c0,0,0,0,0,0l0,0h0l0,0c0,0-0.1,0-0.1,0l0,0l0,0.1l0,0l0,0l0,0l0,0
			l0,0l0,0l0,0L32,38.5l0,0l0,0l0,0l0,0l0,0l0,0l0,0l0,0l0,0l0,0l0,0l0,0c0,0,0,0,0,0l0,0l0,0l0,0c0,0,0,0,0,0l0,0l0,0h0l0.1,0l0,0
			c0,0,0,0,0,0c-0.3-0.1-0.3-0.1-0.4-0.1l0,0l0-0.1l0,0l0,0l0.1,0h0c0,0,0,0,0,0l0,0v0l0,0l0,0l0.1-0.1l0,0l0-0.1l0-0.1l0,0
			c0,0,0,0,0,0l0,0c0,0,0-0.1,0-0.2l0,0c0,0,0,0,0,0c0,0,0,0,0,0l0,0l0,0l0-0.1c0,0,0-0.1,0-0.1l0,0l0,0l0,0l-0.1,0c0,0,0,0,0,0l0,0
			l0,0l0,0c0,0,0,0,0,0l0,0l0,0l0.1,0l0,0l0,0l0,0v0l-0.1,0c-0.1,0-0.1,0.1-0.2,0.1l0,0l0,0l0,0l0,0c0,0,0,0,0,0c0,0,0,0,0,0l0,0
			l0,0l0,0l0.1,0L32,37l0.1-0.1l0.1,0l0,0v0l0,0l0,0l0,0L32,36.9l-0.1,0l-0.1,0l0,0l0,0l0,0l0,0l0,0l0,0l0,0l0,0l0,0l0,0l0,0l0,0h0
			l0,0c0,0,0,0,0,0l0,0l0,0h0h0l0,0l0,0c0,0,0,0,0,0l0,0l0,0l0,0c0,0,0,0,0,0l0,0l0,0l0,0l0,0l0,0c0,0,0,0,0,0l0,0l0,0l0,0l0-0.1
			l0,0l0,0l0,0l0,0l0,0l0,0l0,0c0,0,0,0,0,0l0,0c0,0,0,0,0,0l0,0l0,0l0,0l0,0l0,0l0,0l0,0c0,0,0,0,0,0l0.1-0.1l0,0l0,0l0,0l0.1,0
			l0,0l0,0c0-0.1,0.1-0.2,0.1-0.3l0,0c0,0,0,0,0,0l0,0l0,0c0,0,0,0,0,0l0,0l0,0l0,0v0c0,0,0,0,0,0l0,0l0,0l0,0l0,0l0,0c0,0,0,0,0,0
			C28.1,39.5,25.4,44.5,24.6,50.2L24.6,50.2z M33.4,44.6l0.1,0l0.1,0l0,0l0,0v0c0,0,0,0,0,0l0,0l0,0c0,0,0,0,0,0l0,0l0,0l-0.1,0
			L33.4,44.6L33.4,44.6L33.4,44.6L33.4,44.6L33.4,44.6L33.4,44.6z M35.6,39.7L35.6,39.7L35.6,39.7L35.6,39.7
			C35.6,39.6,35.6,39.6,35.6,39.7C35.6,39.6,35.6,39.6,35.6,39.7C35.6,39.6,35.6,39.6,35.6,39.7L35.6,39.7z M34.4,41.1
			C34.4,41.1,34.4,41.1,34.4,41.1C34.4,41.1,34.4,41.1,34.4,41.1L34.4,41.1L34.4,41.1L34.4,41.1L34.4,41.1
			C34.4,41.1,34.4,41.1,34.4,41.1L34.4,41.1L34.4,41.1L34.4,41.1z M35.6,38.5L35.6,38.5L35.6,38.5L35.6,38.5L35.6,38.5z M33.6,38.8
			L33.6,38.8L33.6,38.8L33.6,38.8L33.6,38.8L33.6,38.8C33.5,38.9,33.5,38.9,33.6,38.8C33.5,38.9,33.5,38.9,33.6,38.8L33.6,38.8z
			 M32.9,39.6C32.9,39.6,32.9,39.6,32.9,39.6C32.9,39.6,33,39.6,32.9,39.6L32.9,39.6L32.9,39.6L32.9,39.6l0.1,0.1l0,0l0,0l0,0l0,0
			c0,0,0,0,0,0l0,0l0-0.1L32.9,39.6L32.9,39.6L32.9,39.6C33,39.7,33,39.7,32.9,39.6L32.9,39.6L32.9,39.6L32.9,39.6
			C32.9,39.6,32.9,39.6,32.9,39.6L32.9,39.6z M32.9,38.8L32.9,38.8L32.9,38.8C32.9,38.8,32.9,38.8,32.9,38.8L32.9,38.8
			C32.9,38.8,32.9,38.8,32.9,38.8L32.9,38.8L32.9,38.8C32.9,38.9,32.9,38.9,32.9,38.8L32.9,38.8C32.9,38.9,32.9,38.9,32.9,38.8
			C32.9,38.9,32.9,38.9,32.9,38.8C32.9,38.9,32.9,38.9,32.9,38.8C32.9,38.9,32.9,38.9,32.9,38.8C32.9,38.8,32.9,38.8,32.9,38.8z
			 M32.5,38.3L32.5,38.3L32.5,38.3L32.5,38.3L32.5,38.3L32.5,38.3L32.5,38.3L32.5,38.3C32.5,38.3,32.5,38.3,32.5,38.3z M24.8,50.3
			C24.8,50.3,24.8,50.3,24.8,50.3C24.8,50.3,24.8,50.3,24.8,50.3L24.8,50.3l0,0.1l0,0l0,0c0,0,0,0,0,0c0,0,0,0,0,0L24.8,50.3
			L24.8,50.3C24.8,50.3,24.8,50.3,24.8,50.3L24.8,50.3z"/>
		<path class="st2" d="M24.5,54L24.5,54L24.5,54L24.5,54L24.5,54l-0.1-0.2l0,0l0,0l0,0c0,0.4,0,0.7,0,1.1l0-0.1l0-0.1l0,0l0-0.1l0,0
			l0-0.1l0-0.1l0-0.1l0,0l0-0.1l0,0C24.5,54.1,24.5,54,24.5,54L24.5,54z"/>
		<path class="st2" d="M45.9,38.3C45.9,38.3,45.9,38.3,45.9,38.3L45.9,38.3C46,38.3,46,38.3,45.9,38.3c0.1,0,0.1,0,0.1,0
			c0,0,0,0,0,0l0,0l0,0l0,0l0,0l0,0l0.1,0l0,0l0,0l0,0c0,0,0,0,0,0c0,0,0,0,0.1,0l0,0l0.1,0l0,0l0,0l0,0l-0.1,0l0,0l-0.1,0
			c0,0,0,0-0.1,0c0,0,0,0-0.1,0c-0.2,0-0.2,0-0.3,0l0,0l0,0l-0.1,0l0,0c0,0,0,0,0,0l0,0l0-0.1l0,0l0,0l0,0l0,0l0,0l0,0l0,0l0,0
			c0,0,0,0,0,0l0,0l0,0l0,0l0,0l0,0l0-0.1c0,0,0,0,0,0l0,0V38l0,0l0,0l0,0l0,0l0,0l-0.1,0l-0.1,0c0,0,0,0,0,0c0,0,0,0,0,0
			c0,0,0,0,0,0l0,0l0,0l0-0.1c0,0,0,0,0,0l0,0l0,0c0,0,0,0-0.1,0c0,0,0,0,0,0l-0.1,0l0,0L45,38l0,0l0,0l0,0l0,0c0,0,0,0,0,0l0.1,0
			c0,0,0,0,0,0l0,0l0,0l0,0l0,0l0,0l0,0l0.1,0h0c0,0,0,0,0,0c0,0,0,0,0,0c0,0,0,0,0,0l0.1,0l0,0l0,0l0,0l-0.1,0c0,0,0,0,0,0
			c0,0,0,0-0.1,0l0,0l0,0l0,0l0,0c0,0,0,0,0,0c0,0,0,0,0,0l-0.1,0l0,0l0,0l-0.1,0l-0.1,0l-0.1,0c0,0,0,0-0.1,0l0,0l0,0
			c-0.1,0-0.1,0-0.2,0c0,0-0.1,0-0.1,0.1l-0.1,0c0,0,0,0,0,0l-0.1,0l-0.1,0l0,0c0,0,0,0,0,0l0.1,0c0,0,0,0,0,0c0,0,0,0,0,0l0,0
			l0.1,0c0,0,0,0,0,0l0,0c0,0,0,0,0,0l0,0l0,0h0c-0.1,0-0.1,0-0.2,0l-0.1,0c0,0,0,0,0,0l0,0l0,0l0,0l-0.1,0c0,0,0,0,0,0l-0.1,0
			c0,0,0,0,0,0c0,0,0,0,0,0l0,0l0,0l0,0l0,0l0,0l0,0l0,0l0,0l0,0l0,0l0,0.1v0l0,0l0,0l0,0l0,0l0,0l-0.1,0l0,0l0,0l0,0H43l0,0l0,0
			c0,0,0,0,0,0l-0.1,0l-0.1,0h0l-0.1,0l0,0l0,0c0,0,0,0,0,0l0,0l0,0l0,0c0,0,0,0,0,0c0,0,0,0,0,0l0,0l0,0l0,0l0,0l0,0.1l0,0.1l0,0
			l0,0l0.1,0l0,0l0,0.1c0,0,0,0,0,0l0,0l0,0l0,0c0,0,0,0,0,0c0,0,0,0,0,0l0,0l0,0l0,0l0,0l0,0l0,0l0,0l0,0h0h0l0,0h-0.1l0,0l0,0h0
			c0,0,0,0,0,0c0,0,0,0,0,0.1c0,0,0.1,0,0.1,0.1l-0.1,0c0,0,0,0,0,0v0l0,0l0,0l0,0l0,0l0,0l0,0l0,0l-0.1,0l0,0l0,0l0,0l0,0l0,0l0,0
			l0.1,0l0-0.1l-0.1,0l-0.1,0c-0.1,0-0.1,0-0.2,0c0,0,0,0,0,0c-0.1,0-0.1,0-0.3,0c0,0,0,0,0,0c-0.1,0-0.1,0-0.2,0l0,0l0,0l-0.1,0
			l-0.1,0l0,0c0,0,0,0,0,0l0,0l0,0l0,0.1v0l0,0c0,0,0,0,0,0l0,0l0,0l0,0c-0.3,0-0.6,0.1-0.6,0.1c0,0,0,0,0,0c0.1,0,0.1,0,0.2,0.1
			l0,0l0,0l-0.1,0l-0.1,0l-0.1,0l0,0l-0.1,0c-0.2-0.1-0.3-0.1-0.5,0c0,0,0,0,0,0l0,0l-0.1,0l-0.1,0l0,0l0,0l0,0l0,0l0,0l-0.1,0
			l-0.1,0l0,0l-0.1,0v0l0,0l0,0l0,0l0,0l0,0l0,0l0,0l0,0l-0.1,0l0,0c0,0,0,0,0,0l0,0l0,0l0,0l0,0l0,0l0,0c0,0,0,0,0,0l0,0l0,0l0,0
			l0,0l0,0l0.1,0l0,0l-0.1,0l0,0v0l0,0l0,0l0,0l0,0l0,0l0,0l0,0c0,0,0,0,0,0l0,0l0,0c0,0,0,0,0,0c0,0,0,0,0,0c0,0,0,0,0,0l0.1,0l0,0
			l0-0.1l0,0l0,0l0.1,0l0.1,0l0,0l0,0l0,0l0,0l0.1,0l0,0l0.1,0l0,0c0,0,0,0,0,0c0,0,0,0,0,0l0,0c0,0,0,0,0,0l0.1,0l0.1,0l0,0l0,0
			l0,0l0,0h0.1c0,0,0,0,0,0c0,0,0,0,0,0l0,0l0,0l0,0l0,0l0.1,0l0,0l0,0l0,0l0.1,0l0,0l0,0c0,0,0,0,0,0c0,0,0,0,0,0l0,0l0,0l0,0l0,0
			l0,0l0,0l0.1,0l0,0c0,0,0,0,0,0l-0.1,0l-0.1,0c0,0,0,0,0,0c0,0,0,0,0,0l0,0L39.3,39l0,0.1l-0.1,0.1c0,0,0,0,0,0.1l0,0l0,0l0,0l0,0
			c0,0-0.1,0-0.1,0.1c0,0,0,0,0,0.1l0.1,0l0.1-0.1l-0.1,0l0,0l-0.1,0l-0.1,0l-0.1,0L39,39.5c0,0,0,0,0,0l0.1,0c0,0,0,0,0,0l-0.1,0
			l-0.1,0l0,0l-0.1,0l0,0l-0.1,0.1l0,0l0,0.1l0,0l0,0c0,0,0,0,0,0l0,0v0l0.1,0l0,0l0.1,0l0,0l0,0l0,0l0,0l-0.1,0.1l0,0c0,0,0,0,0,0
			l0,0l0,0l0,0l0,0l0,0l0,0.1l0,0l0,0l0,0l0,0l0,0l0,0l0,0l0,0l0,0l0,0l0,0L39.1,40l0,0l-0.1,0l-0.1,0l0,0l0.1,0c0,0,0,0,0,0l0,0
			c0,0,0,0,0,0c0,0,0,0,0,0c0,0,0,0,0,0l0,0l0,0l0,0l0,0l0,0l0,0c0,0,0,0,0,0l-0.1,0.1l0,0l0,0c0,0,0,0,0,0l0,0l0,0l0,0.1
			c0,0,0,0,0,0c0,0,0,0,0,0l0,0l0,0l0,0l-0.1,0l0,0l0,0.1c0,0,0,0,0,0l0,0l0,0.1l0,0.1l0,0.1l0,0.1l0,0l0,0c0,0,0,0,0,0l0.1,0l0.1,0
			l0,0l0.1,0l0.1,0l0,0l0,0l0,0v0l0,0l0,0l0,0l0,0l0,0l0,0h0l0,0l0,0c0,0,0,0,0,0l0.1,0l0.1,0l0,0l0,0l0,0.1l0,0l0,0l0,0.1l-0.1,0.1
			l-0.1,0l0,0c0,0,0,0,0,0.1c0,0,0,0,0,0c0,0,0,0,0,0c0,0,0,0,0,0l0,0l0,0c0,0,0,0,0,0c0,0,0,0,0,0l0,0l0,0l0,0l0,0c0,0,0,0,0,0
			c0,0,0,0,0,0l0,0l0,0l0,0l-0.1,0.1l-0.1,0.1l0,0c0,0,0,0,0,0l0,0l0,0l-0.1,0l0,0l0,0l0,0l-0.1,0l-0.1,0.1l0,0l0,0l0,0c0,0,0,0,0,0
			c0,0,0,0,0,0l-0.1,0l0,0l0,0c0,0,0,0,0,0c0,0,0,0,0,0l0,0l0,0l-0.1,0.1l0,0l0,0l0,0l0,0l0,0l-0.1,0.1c0,0,0,0,0,0l0,0.1l0,0l0,0
			l0,0c0,0,0,0,0,0l0,0.1c0,0,0,0,0,0l0,0l0,0l0,0l0,0l0,0l-0.1,0.1l-0.1,0.1l0,0l0,0.1l0,0l0,0l0,0l0,0c0,0,0,0,0,0.1l0,0l0,0l0,0
			l0,0.1l0,0l0,0l0,0l0,0.1c0,0,0,0,0,0c0,0,0,0,0,0c0,0,0,0,0,0l0,0v0l0,0l0,0l0,0l0,0.1l0,0l0,0l0,0c0,0,0,0,0,0l0,0l0,0l0,0
			c0,0,0,0,0,0c0,0,0,0,0,0l0,0.1c0,0,0,0,0,0l0,0.1l0,0l0,0v0l0,0l0,0.1c0,0,0,0,0,0c0,0,0,0,0,0l0,0.1l0.1,0l0,0l0,0c0,0,0,0,0,0
			l0,0l0,0l0,0l0,0l0,0l0,0l0,0l0,0l0,0c0,0,0,0,0,0l0,0l0,0l0,0.1l0,0.1v0c0,0,0,0,0,0l0,0l0,0l0,0l0,0l0,0c0,0,0,0,0,0
			c0,0,0,0,0,0l0,0.1l0,0l0,0c0,0,0,0,0,0l0,0l0,0l0.1,0l0.1-0.1l0,0l0.1-0.1l0.1-0.1l0.1,0l0.1-0.1l0.1-0.1l0.1,0l0.1-0.1
			c0,0,0,0,0,0l0.1-0.1l0-0.1l0.1-0.1l0.1,0l0.1,0l0.2-0.1l0.1-0.1c0.1,0,0.1-0.1,0.2-0.2l0.1-0.1l0-0.1l0,0l0,0l0,0l0,0l0.1,0
			l0.1-0.1l0.1-0.1c0,0,0,0,0,0c0,0,0,0,0,0l0,0l0,0l0.1,0c0,0,0,0,0,0l0,0l0,0l0.1,0l0,0l0,0l0,0.1l0,0l0,0l0.1,0l0,0l0.1,0l0.1,0
			l0,0l0.1,0l0.1,0l0,0c0,0,0,0,0,0l0,0l0,0c0,0,0,0,0,0l0.2-0.1l0,0l0.1-0.1l0,0l0.1,0l0,0c0,0,0,0,0,0l0,0l0.1-0.1
			c0.1-0.1,0.1-0.1,0.2-0.1c0,0,0,0,0,0l0.1,0l0-0.1l0-0.1v0l0,0l0,0l0,0l0,0l0,0.1c0,0,0,0,0,0l0,0l0,0l0,0h0.1l0.1,0l0,0
			c0,0,0,0,0,0l0.1,0c0.1,0,0.3,0,0.4-0.1c0,0,0.1,0,0.1,0l0.1,0l0,0l0.1,0l0,0l0.1,0l0.1,0l0.1,0l0.1,0l0.1,0
			c0.1,0,0.2-0.1,0.3-0.1l0.1,0l0,0l0,0c0,0,0,0,0,0c0,0,0,0,0,0l-0.1,0l0,0c-0.1,0-0.1,0-0.2-0.1l0,0l-0.1,0c0,0,0,0,0,0l-0.1,0
			l-0.1,0c0,0,0,0,0,0c0,0,0,0,0,0l0,0l0.1,0l0.1,0c0,0,0,0,0,0l0,0l0-0.1l0,0l0,0l0,0l0,0l0,0c0,0,0,0,0,0c0,0,0,0,0,0l0,0l0,0l0,0
			l0,0c0,0,0,0,0,0l0,0.1l0,0l0.1,0c0,0,0,0,0,0l0.1-0.1l0,0l0,0l0.1,0l0.1,0l0,0l0-0.1l0.1-0.1c0,0,0,0,0-0.1l0-0.1l0-0.1l0,0
			l-0.2-0.2l0-0.1l0,0c0,0,0-0.1,0-0.1l0,0l0,0l0,0l0,0l0,0l0,0l0,0l0,0l0,0l0.1,0c0,0,0,0,0,0l0,0l0,0l0,0l-0.1,0l-0.1,0.1v0l0,0.1
			l0.1,0l0.1,0.1l0,0l0.1,0c0,0,0,0,0,0l0.2-0.2l0,0l0,0l0,0l0,0L44,40l0,0l0,0l0,0l0,0l0,0l0,0l0,0l0,0l0,0l0,0l0,0l0,0l0,0
			c0,0,0,0,0,0l0.1,0c0,0,0,0,0,0c0,0,0,0,0,0l0.1,0l0-0.1l0,0c0,0,0,0,0,0l0,0l0,0c0,0,0,0,0,0l0,0c0.3,0,0.3-0.1,0.4-0.1l-0.1,0
			c0,0,0,0,0,0l-0.1,0l0,0l0,0l0,0c0.1,0,0.1,0,0.1-0.1l0,0l0-0.1l0,0l0,0l0,0c0,0,0,0,0,0l0-0.1l-0.1,0l0,0l0,0l0,0l0,0l0,0l0.1,0
			c0,0,0,0,0.1,0l0,0c0,0,0,0,0,0l0,0.1c0,0,0,0,0,0v0.1c0,0,0,0,0,0l0.1-0.1l0-0.1c0,0,0,0,0,0l0.1,0l0,0l0-0.1v0l0-0.1l0,0l-0.1,0
			l0,0l0,0l0,0l0,0l0,0l0,0c0,0,0,0,0,0c0,0,0,0,0,0l0.1,0l0.1,0l0,0l0,0l0,0l-0.1-0.1l0,0l0,0l0,0l0,0l0,0l0,0l0,0l0,0l0,0
			c0,0,0,0,0,0l0,0l0,0l0,0l0,0l0,0l0,0l0,0c0,0,0,0,0,0l0.1,0l0.1-0.1l0,0l0,0l0,0c0,0,0,0,0,0l0,0l0.1,0l0,0l0,0c0,0,0,0,0,0
			c0,0,0,0,0,0l0,0l0,0c0,0,0,0,0,0c0,0,0,0,0.1,0c0,0,0,0,0,0v0l0,0l0,0c0,0,0,0,0,0l0,0c0,0,0,0,0,0c0,0,0,0,0,0c0,0,0,0,0,0l0,0
			l0,0l0,0l0,0l0,0l0,0l0,0l0,0l0,0c0,0,0,0,0,0l0,0c0,0,0,0,0,0L45.9,38.3L45.9,38.3C45.8,38.4,45.8,38.4,45.9,38.3L45.9,38.3
			L45.9,38.3L45.9,38.3C45.9,38.3,45.9,38.3,45.9,38.3L45.9,38.3z M38.8,38L38.8,38L38.8,38L38.8,38z"/>
	</g>
</g>
<g id="Layer_4">
	<g>
		<path class="st3" d="M77.4,62.2H65.5c-1.9,0-3.4,1.5-3.4,3.4V72L59,74.2c-0.2,0.2-0.4,0.5-0.4,0.8c0,0.3,0.1,0.6,0.4,0.8l3.1,2.2
			c0.2,1.6,1.7,2.9,3.4,2.9h11.9c1.9,0,3.4-1.5,3.4-3.4V65.6C80.7,63.7,79.2,62.2,77.4,62.2L77.4,62.2z M73.4,75.1
			c-0.2,0-0.4-0.1-0.4-0.3l-0.4-1.3h-2.3l-0.4,1.3c0,0.2-0.2,0.3-0.4,0.3c-0.3,0-0.8-0.2-0.8-0.5c0,0,0-0.1,0-0.1l1.9-6.2
			c0.1-0.3,0.5-0.4,0.8-0.4c0.4,0,0.7,0.1,0.8,0.4l1.9,6.2c0,0,0,0.1,0,0.1C74.2,74.9,73.7,75.1,73.4,75.1L73.4,75.1z M73.4,75.1"/>
		<path class="st3" d="M70.6,72.6h1.7l-0.9-3L70.6,72.6z M70.6,72.6"/>
		<path class="st3" d="M60.3,65.6c0-1.2,0.4-2.4,1.2-3.3c-1.1,0-2-0.3-2.8-0.9c-0.8,0.6-1.8,0.9-2.8,0.9c-0.3,0-0.5-0.2-0.5-0.5
			c0-0.3,0.2-0.5,0.5-0.5c0.7,0,1.4-0.2,2-0.6c-0.7-0.8-1.2-1.8-1.3-2.9h-0.7c-0.3,0-0.5-0.2-0.5-0.5c0-0.3,0.2-0.5,0.5-0.5h2.3
			v-1.3c0-0.3,0.2-0.5,0.5-0.5c0.3,0,0.5,0.2,0.5,0.5v1.3h2.3c0.3,0,0.5,0.2,0.5,0.5c0,0.3-0.2,0.5-0.5,0.5h-0.7
			c-0.1,1.1-0.6,2.1-1.3,2.9c0.6,0.4,1.3,0.6,2,0.6c0.3,0,0.5,0.2,0.5,0.5c0.9-0.9,2.2-1.4,3.6-1.4h2.4v-2.2l3.1-2.2
			c0.2-0.2,0.4-0.5,0.4-0.8c0-0.3-0.1-0.6-0.4-0.8l-3.1-2.2c-0.2-1.6-1.7-2.9-3.4-2.9H52.6c-1.9,0-3.4,1.5-3.4,3.4v11.9
			c0,1.9,1.5,3.4,3.4,3.4h7.6V65.6z M60.3,65.6"/>
		<path class="st3" d="M58.6,60c0.6-0.6,1-1.4,1.1-2.2h-2.1C57.6,58.7,58,59.4,58.6,60L58.6,60z M58.6,60"/>
	</g>
</g>
</svg>
